TelexDeva HT-Regular.ufo
<glyph name="exclam" format="1">
  <advance width="237"/>
  <unicode hex="0021"/>
  <outline>
    <contour>
      <point x="162" y="718" type="line"/>
      <point x="75" y="718" type="line"/>
      <point x="86" y="184" type="line"/>
      <point x="150" y="184" type="line"/>
    </contour>
    <contour>
      <point x="161" y="84" type="line"/>
      <point x="76" y="84" type="line"/>
      <point x="76" y="0" type="line"/>
      <point x="161" y="0" type="line"/>
    </contour>
  </outline>
</glyph>
<glyph name="quotedbl" format="1">
  <advance width="395"/>
  <unicode hex="0022"/>
  <outline>
    <contour>
      <point x="157" y="728" type="line"/>
      <point x="77" y="728" type="line"/>
      <point x="82" y="484" type="line"/>
      <point x="152" y="484" type="line"/>
    </contour>
    <contour>
      <point x="318" y="728" type="line"/>
      <point x="238" y="728" type="line"/>
      <point x="243" y="484" type="line"/>
      <point x="313" y="484" type="line"/>
    </contour>
  </outline>
</glyph>
<glyph name="numbersign" format="1">
  <advance width="670"/>
  <unicode hex="0023"/>
  <outline>
    <contour>
      <point x="5" y="187" type="line"/>
      <point x="145" y="187" type="line"/>
      <point x="113" y="0" type="line"/>
      <point x="192" y="0" type="line"/>
      <point x="223" y="187" type="line"/>
      <point x="392" y="187" type="line"/>
      <point x="360" y="0" type="line"/>
      <point x="440" y="0" type="line"/>
      <point x="471" y="187" type="line"/>
      <point x="608" y="187" type="line"/>
      <point x="620" y="259" type="line"/>
      <point x="483" y="259" type="line"/>
      <point x="514" y="440" type="line"/>
      <point x="653" y="440" type="line"/>
      <point x="665" y="512" type="line"/>
      <point x="526" y="512" type="line"/>
      <point x="560" y="708" type="line"/>
      <point x="481" y="708" type="line"/>
      <point x="447" y="512" type="line"/>
      <point x="278" y="512" type="line"/>
      <point x="312" y="708" type="line"/>
      <point x="234" y="708" type="line"/>
      <point x="200" y="512" type="line"/>
      <point x="61" y="512" type="line"/>
      <point x="49" y="440" type="line"/>
      <point x="188" y="440" type="line"/>
      <point x="157" y="259" type="line"/>
      <point x="16" y="259" type="line"/>
    </contour>
    <contour>
      <point x="435" y="440" type="line"/>
      <point x="404" y="259" type="line"/>
      <point x="235" y="259" type="line"/>
      <point x="266" y="440" type="line"/>
    </contour>
  </outline>
</glyph>
<glyph name="dollar" format="1">
  <advance width="491"/>
  <unicode hex="0024"/>
  <outline>
    <contour>
      <point x="453" y="435"/>
      <point x="149" y="354"/>
      <point x="149" y="493" type="curve" smooth="yes"/>
      <point x="149" y="545"/>
      <point x="195" y="576"/>
      <point x="273" y="576" type="curve" smooth="yes"/>
      <point x="312" y="576"/>
      <point x="360" y="565"/>
      <point x="410" y="545" type="curve"/>
      <point x="434" y="624" type="line"/>
      <point x="395" y="639"/>
      <point x="356" y="654"/>
      <point x="297" y="659" type="curve"/>
      <point x="297" y="774" type="line"/>
      <point x="213" y="774" type="line"/>
      <point x="213" y="657" type="line"/>
      <point x="125" y="643"/>
      <point x="49" y="589"/>
      <point x="49" y="483" type="curve" smooth="yes"/>
      <point x="49" y="267"/>
      <point x="354" y="346"/>
      <point x="354" y="206" type="curve" smooth="yes"/>
      <point x="354" y="146"/>
      <point x="307" y="109"/>
      <point x="229" y="109" type="curve" smooth="yes"/>
      <point x="184" y="109"/>
      <point x="141" y="119"/>
      <point x="63" y="152" type="curve"/>
      <point x="34" y="71" type="line"/>
      <point x="95" y="46"/>
      <point x="146" y="30"/>
      <point x="213" y="26" type="curve"/>
      <point x="213" y="-84" type="line"/>
      <point x="297" y="-84" type="line"/>
      <point x="297" y="29" type="line"/>
      <point x="392" y="45"/>
      <point x="453" y="112"/>
      <point x="453" y="206" type="curve" smooth="yes"/>
    </contour>
  </outline>
</glyph>
<glyph name="ampersand" format="1">
  <advance width="638"/>
  <unicode hex="0026"/>
  <outline>
    <contour>
      <point x="576" y="2" type="line"/>
      <point x="633" y="64" type="line"/>
      <point x="532" y="154" type="line"/>
      <point x="559" y="213"/>
      <point x="573" y="286"/>
      <point x="573" y="372" type="curve"/>
      <point x="488" y="372" type="line"/>
      <point x="488" y="309"/>
      <point x="481" y="256"/>
      <point x="467" y="212" type="curve"/>
      <point x="282" y="377" type="line" smooth="yes"/>
      <point x="196" y="452"/>
      <point x="172" y="492"/>
      <point x="172" y="544" type="curve" smooth="yes"/>
      <point x="172" y="597"/>
      <point x="225" y="638"/>
      <point x="290" y="638" type="curve" smooth="yes"/>
      <point x="358" y="638"/>
      <point x="409" y="601"/>
      <point x="409" y="550" type="curve"/>
      <point x="494" y="550" type="line"/>
      <point x="494" y="646"/>
      <point x="414" y="712"/>
      <point x="290" y="712" type="curve" smooth="yes"/>
      <point x="166" y="712"/>
      <point x="85" y="635"/>
      <point x="85" y="544" type="curve" smooth="yes"/>
      <point x="85" y="486"/>
      <point x="104" y="440"/>
      <point x="151" y="387" type="curve"/>
      <point x="68" y="340"/>
      <point x="26" y="273"/>
      <point x="26" y="188" type="curve" smooth="yes"/>
      <point x="26" y="68"/>
      <point x="121" y="-10"/>
      <point x="267" y="-10" type="curve" smooth="yes"/>
      <point x="360" y="-10"/>
      <point x="434" y="22"/>
      <point x="486" y="82" type="curve"/>
    </contour>
    <contour>
      <point x="177" y="64"/>
      <point x="113" y="116"/>
      <point x="113" y="188" type="curve" smooth="yes"/>
      <point x="113" y="246"/>
      <point x="145" y="296"/>
      <point x="208" y="332" type="curve"/>
      <point x="428" y="135" type="line"/>
      <point x="391" y="88"/>
      <point x="337" y="64"/>
      <point x="267" y="64" type="curve" smooth="yes"/>
    </contour>
  </outline>
</glyph>
<glyph name="quotesingle" format="1">
  <advance width="232"/>
  <unicode hex="0027"/>
  <outline>
    <contour>
      <point x="152" y="727" type="line"/>
      <point x="80" y="727" type="line"/>
      <point x="84" y="485" type="line"/>
      <point x="148" y="485" type="line"/>
    </contour>
  </outline>
</glyph>
<glyph name="parenleft" format="1">
  <advance width="278"/>
  <unicode hex="0028"/>
  <outline>
    <contour>
      <point x="208" y="789" type="line"/>
      <point x="94" y="611"/>
      <point x="45" y="460"/>
      <point x="45" y="285" type="curve" smooth="yes"/>
      <point x="45" y="108"/>
      <point x="95" y="-46"/>
      <point x="208" y="-219" type="curve"/>
      <point x="259" y="-186" type="line"/>
      <point x="166" y="-16"/>
      <point x="126" y="122"/>
      <point x="126" y="285" type="curve" smooth="yes"/>
      <point x="126" y="451"/>
      <point x="166" y="591"/>
      <point x="259" y="757" type="curve"/>
    </contour>
  </outline>
</glyph>
<glyph name="parenright" format="1">
  <advance width="278"/>
  <unicode hex="0029"/>
  <outline>
    <contour>
      <point x="19" y="757" type="line"/>
      <point x="112" y="591"/>
      <point x="152" y="451"/>
      <point x="152" y="285" type="curve" smooth="yes"/>
      <point x="152" y="122"/>
      <point x="112" y="-16"/>
      <point x="19" y="-186" type="curve"/>
      <point x="70" y="-219" type="line"/>
      <point x="182" y="-46"/>
      <point x="233" y="108"/>
      <point x="233" y="285" type="curve" smooth="yes"/>
      <point x="233" y="460"/>
      <point x="184" y="611"/>
      <point x="70" y="789" type="curve"/>
    </contour>
  </outline>
</glyph>
<glyph name="asterisk" format="1">
  <advance width="381"/>
  <unicode hex="002A"/>
  <outline>
    <contour>
      <point x="208" y="581" type="line"/>
      <point x="229" y="720" type="line"/>
      <point x="154" y="720" type="line"/>
      <point x="172" y="580" type="line"/>
      <point x="45" y="644" type="line"/>
      <point x="24" y="573" type="line"/>
      <point x="162" y="545" type="line"/>
      <point x="58" y="439" type="line"/>
      <point x="119" y="396" type="line"/>
      <point x="189" y="528" type="line"/>
      <point x="258" y="396" type="line"/>
      <point x="319" y="440" type="line"/>
      <point x="219" y="547" type="line"/>
      <point x="359" y="573" type="line"/>
      <point x="337" y="641" type="line"/>
    </contour>
  </outline>
</glyph>
<glyph name="plus" format="1">
  <advance width="553"/>
  <unicode hex="002B"/>
  <outline>
    <contour>
      <point x="44" y="274" type="line"/>
      <point x="237" y="274" type="line"/>
      <point x="237" y="71" type="line"/>
      <point x="313" y="71" type="line"/>
      <point x="313" y="274" type="line"/>
      <point x="509" y="274" type="line"/>
      <point x="509" y="340" type="line"/>
      <point x="313" y="340" type="line"/>
      <point x="313" y="542" type="line"/>
      <point x="237" y="542" type="line"/>
      <point x="237" y="340" type="line"/>
      <point x="44" y="340" type="line"/>
    </contour>
  </outline>
</glyph>
<glyph name="comma" format="1">
  <advance width="208"/>
  <unicode hex="002C"/>
  <outline>
    <contour>
      <point x="169" y="100" type="line"/>
      <point x="84" y="100" type="line"/>
      <point x="26" y="-123" type="line"/>
      <point x="81" y="-123" type="line"/>
    </contour>
  </outline>
</glyph>
<glyph name="hyphen" format="1">
  <advance width="497"/>
  <unicode hex="002D"/>
  <outline>
    <contour>
      <point x="422" y="359" type="line"/>
      <point x="75" y="359" type="line"/>
      <point x="75" y="279" type="line"/>
      <point x="422" y="279" type="line"/>
    </contour>
  </outline>
</glyph>
<glyph name="period" format="1">
  <advance width="247"/>
  <unicode hex="002E"/>
  <outline>
    <contour>
      <point x="169" y="0" type="line"/>
      <point x="169" y="91" type="line"/>
      <point x="78" y="91" type="line"/>
      <point x="78" y="0" type="line"/>
    </contour>
  </outline>
</glyph>
<glyph name="slash" format="1">
  <advance width="340"/>
  <unicode hex="002F"/>
  <outline>
    <contour>
      <point x="336" y="742" type="line"/>
      <point x="261" y="742" type="line"/>
      <point x="4" y="-61" type="line"/>
      <point x="79" y="-61" type="line"/>
    </contour>
  </outline>
</glyph>
<glyph name="zero" format="1">
  <advance width="638"/>
  <unicode hex="0030"/>
  <outline>
    <contour>
      <point x="149" y="714"/>
      <point x="58" y="588"/>
      <point x="58" y="355" type="curve" smooth="yes"/>
      <point x="58" y="121"/>
      <point x="151" y="-8"/>
      <point x="319" y="-8" type="curve" smooth="yes"/>
      <point x="487" y="-8"/>
      <point x="580" y="121"/>
      <point x="580" y="355" type="curve" smooth="yes"/>
      <point x="580" y="588"/>
      <point x="489" y="714"/>
      <point x="319" y="714" type="curve" smooth="yes"/>
    </contour>
    <contour>
      <point x="427" y="631"/>
      <point x="484" y="535"/>
      <point x="484" y="355" type="curve" smooth="yes"/>
      <point x="484" y="172"/>
      <point x="427" y="75"/>
      <point x="319" y="75" type="curve" smooth="yes"/>
      <point x="212" y="75"/>
      <point x="154" y="173"/>
      <point x="154" y="355" type="curve" smooth="yes"/>
      <point x="154" y="535"/>
      <point x="211" y="631"/>
      <point x="319" y="631" type="curve" smooth="yes"/>
    </contour>
  </outline>
</glyph>
<glyph name="one" format="1">
  <advance width="397"/>
  <unicode hex="0031"/>
  <outline>
    <contour>
      <point x="35" y="561" type="line"/>
      <point x="211" y="618" type="line"/>
      <point x="211" y="0" type="line"/>
      <point x="296" y="0" type="line"/>
      <point x="296" y="700" type="line"/>
      <point x="232" y="711" type="line"/>
      <point x="14" y="615" type="line"/>
    </contour>
  </outline>
</glyph>
<glyph name="two" format="1">
  <advance width="521"/>
  <unicode hex="0032"/>
  <outline>
    <contour>
      <point x="156" y="708"/>
      <point x="96" y="695"/>
      <point x="40" y="670" type="curve"/>
      <point x="56" y="584" type="line"/>
      <point x="100" y="608"/>
      <point x="161" y="623"/>
      <point x="213" y="623" type="curve" smooth="yes"/>
      <point x="304" y="623"/>
      <point x="356" y="577"/>
      <point x="356" y="496" type="curve" smooth="yes"/>
      <point x="356" y="415"/>
      <point x="335" y="359"/>
      <point x="204" y="232" type="curve" smooth="yes"/>
      <point x="34" y="67" type="line"/>
      <point x="34" y="0" type="line"/>
      <point x="474" y="0" type="line"/>
      <point x="474" y="87" type="line"/>
      <point x="373" y="81"/>
      <point x="273" y="76"/>
      <point x="172" y="76" type="curve"/>
      <point x="271" y="176" type="line" smooth="yes"/>
      <point x="433" y="340"/>
      <point x="456" y="393"/>
      <point x="456" y="490" type="curve" smooth="yes"/>
      <point x="456" y="626"/>
      <point x="365" y="708"/>
      <point x="215" y="708" type="curve" smooth="yes"/>
    </contour>
  </outline>
</glyph>
<glyph name="three" format="1">
  <advance width="518"/>
  <unicode hex="0033"/>
  <outline>
    <contour>
      <point x="398" y="388"/>
      <point x="446" y="441"/>
      <point x="446" y="527" type="curve" smooth="yes"/>
      <point x="446" y="638"/>
      <point x="360" y="706"/>
      <point x="218" y="706" type="curve" smooth="yes"/>
      <point x="156" y="706"/>
      <point x="92" y="693"/>
      <point x="31" y="669" type="curve"/>
      <point x="48" y="596" type="line"/>
      <point x="110" y="618"/>
      <point x="170" y="630"/>
      <point x="215" y="630" type="curve" smooth="yes"/>
      <point x="303" y="630"/>
      <point x="355" y="591"/>
      <point x="355" y="525" type="curve" smooth="yes"/>
      <point x="355" y="444"/>
      <point x="294" y="401"/>
      <point x="181" y="401" type="curve" smooth="yes"/>
      <point x="152" y="401" type="line"/>
      <point x="152" y="327" type="line"/>
      <point x="185" y="327" type="line" smooth="yes"/>
      <point x="309" y="327"/>
      <point x="371" y="282"/>
      <point x="371" y="193" type="curve" smooth="yes"/>
      <point x="371" y="115"/>
      <point x="308" y="70"/>
      <point x="197" y="70" type="curve" smooth="yes"/>
      <point x="150" y="70"/>
      <point x="94" y="77"/>
      <point x="53" y="89" type="curve"/>
      <point x="38" y="15" type="line"/>
      <point x="90" y="1"/>
      <point x="146" y="-7"/>
      <point x="197" y="-7" type="curve" smooth="yes"/>
      <point x="362" y="-7"/>
      <point x="461" y="68"/>
      <point x="461" y="193" type="curve" smooth="yes"/>
      <point x="461" y="288"/>
      <point x="406" y="350"/>
      <point x="307" y="371" type="curve"/>
    </contour>
  </outline>
</glyph>
<glyph name="four" format="1">
  <advance width="588"/>
  <unicode hex="0034"/>
  <outline>
    <contour>
      <point x="550" y="163" type="line"/>
      <point x="560" y="243" type="line"/>
      <point x="475" y="243" type="line"/>
      <point x="475" y="708" type="line"/>
      <point x="325" y="708" type="line"/>
      <point x="21" y="226" type="line"/>
      <point x="31" y="163" type="line"/>
      <point x="381" y="163" type="line"/>
      <point x="381" y="0" type="line"/>
      <point x="475" y="0" type="line"/>
      <point x="475" y="163" type="line"/>
    </contour>
    <contour>
      <point x="381" y="243" type="line"/>
      <point x="142" y="243" type="line"/>
      <point x="381" y="629" type="line"/>
    </contour>
  </outline>
</glyph>
<glyph name="five" format="1">
  <advance width="544"/>
  <unicode hex="0035"/>
  <outline>
    <contour>
      <point x="244" y="431"/>
      <point x="199" y="422"/>
      <point x="158" y="406" type="curve"/>
      <point x="183" y="635" type="line"/>
      <point x="467" y="635" type="line"/>
      <point x="467" y="707" type="line"/>
      <point x="106" y="707" type="line"/>
      <point x="72" y="358" type="line"/>
      <point x="126" y="320" type="line"/>
      <point x="168" y="344"/>
      <point x="222" y="359"/>
      <point x="269" y="359" type="curve" smooth="yes"/>
      <point x="358" y="359"/>
      <point x="408" y="312"/>
      <point x="408" y="230" type="curve" smooth="yes"/>
      <point x="408" y="128"/>
      <point x="349" y="72"/>
      <point x="242" y="72" type="curve" smooth="yes"/>
      <point x="191" y="72"/>
      <point x="124" y="86"/>
      <point x="66" y="109" type="curve"/>
      <point x="49" y="34" type="line"/>
      <point x="111" y="9"/>
      <point x="184" y="-5"/>
      <point x="251" y="-5" type="curve" smooth="yes"/>
      <point x="406" y="-5"/>
      <point x="495" y="81"/>
      <point x="495" y="230" type="curve" smooth="yes"/>
      <point x="495" y="350"/>
      <point x="410" y="431"/>
      <point x="286" y="431" type="curve" smooth="yes"/>
    </contour>
  </outline>
</glyph>
<glyph name="six" format="1">
  <advance width="585"/>
  <unicode hex="0036"/>
  <outline>
    <contour>
      <point x="260" y="431"/>
      <point x="202" y="408"/>
      <point x="153" y="366" type="curve"/>
      <point x="185" y="522"/>
      <point x="302" y="615"/>
      <point x="488" y="629" type="curve"/>
      <point x="478" y="708" type="line"/>
      <point x="214" y="694"/>
      <point x="49" y="530"/>
      <point x="49" y="281" type="curve" smooth="yes"/>
      <point x="49" y="97"/>
      <point x="143" y="-9"/>
      <point x="301" y="-9" type="curve" smooth="yes"/>
      <point x="446" y="-9"/>
      <point x="546" y="81"/>
      <point x="546" y="213" type="curve" smooth="yes"/>
      <point x="546" y="339"/>
      <point x="451" y="431"/>
      <point x="322" y="431" type="curve" smooth="yes"/>
    </contour>
    <contour>
      <point x="203" y="74"/>
      <point x="145" y="150"/>
      <point x="145" y="277" type="curve" smooth="yes"/>
      <point x="145" y="284" type="line"/>
      <point x="195" y="325"/>
      <point x="252" y="348"/>
      <point x="305" y="348" type="curve" smooth="yes"/>
      <point x="395" y="348"/>
      <point x="450" y="297"/>
      <point x="450" y="213" type="curve" smooth="yes"/>
      <point x="450" y="135"/>
      <point x="384" y="74"/>
      <point x="299" y="74" type="curve" smooth="yes"/>
    </contour>
  </outline>
</glyph>
<glyph name="seven" format="1">
  <advance width="514"/>
  <unicode hex="0037"/>
  <outline>
    <contour>
      <point x="18" y="635" type="line"/>
      <point x="394" y="635" type="line"/>
      <point x="102" y="0" type="line"/>
      <point x="192" y="0" type="line"/>
      <point x="488" y="643" type="line"/>
      <point x="476" y="707" type="line"/>
      <point x="18" y="707" type="line"/>
    </contour>
  </outline>
</glyph>
<glyph name="eight" format="1">
  <advance width="606"/>
  <unicode hex="0038"/>
  <outline>
    <contour>
      <point x="480" y="406"/>
      <point x="525" y="468"/>
      <point x="525" y="535" type="curve" smooth="yes"/>
      <point x="525" y="645"/>
      <point x="440" y="715"/>
      <point x="304" y="715" type="curve" smooth="yes"/>
      <point x="168" y="715"/>
      <point x="83" y="646"/>
      <point x="83" y="535" type="curve" smooth="yes"/>
      <point x="83" y="451"/>
      <point x="125" y="404"/>
      <point x="181" y="373" type="curve"/>
      <point x="93" y="325"/>
      <point x="52" y="267"/>
      <point x="52" y="187" type="curve" smooth="yes"/>
      <point x="52" y="65"/>
      <point x="149" y="-10"/>
      <point x="308" y="-10" type="curve" smooth="yes"/>
      <point x="456" y="-10"/>
      <point x="556" y="72"/>
      <point x="556" y="192" type="curve" smooth="yes"/>
      <point x="556" y="292"/>
      <point x="487" y="338"/>
      <point x="407" y="371" type="curve"/>
    </contour>
    <contour>
      <point x="389" y="643"/>
      <point x="441" y="603"/>
      <point x="441" y="535" type="curve" smooth="yes"/>
      <point x="441" y="480"/>
      <point x="407" y="428"/>
      <point x="347" y="393" type="curve"/>
      <point x="255" y="425"/>
      <point x="167" y="453"/>
      <point x="167" y="535" type="curve" smooth="yes"/>
      <point x="167" y="601"/>
      <point x="219" y="643"/>
      <point x="304" y="643" type="curve" smooth="yes"/>
    </contour>
    <contour>
      <point x="204" y="63"/>
      <point x="136" y="112"/>
      <point x="136" y="188" type="curve" smooth="yes"/>
      <point x="136" y="251"/>
      <point x="165" y="295"/>
      <point x="246" y="346" type="curve"/>
      <point x="352" y="307"/>
      <point x="472" y="292"/>
      <point x="472" y="193" type="curve" smooth="yes"/>
      <point x="472" y="115"/>
      <point x="405" y="63"/>
      <point x="308" y="63" type="curve" smooth="yes"/>
    </contour>
  </outline>
</glyph>
<glyph name="nine" format="1">
  <advance width="585"/>
  <unicode hex="0039"/>
  <outline>
    <contour>
      <point x="141" y="715"/>
      <point x="41" y="626"/>
      <point x="41" y="495" type="curve" smooth="yes"/>
      <point x="41" y="370"/>
      <point x="135" y="279"/>
      <point x="263" y="279" type="curve" smooth="yes"/>
      <point x="329" y="279"/>
      <point x="390" y="304"/>
      <point x="439" y="350" type="curve"/>
      <point x="411" y="185"/>
      <point x="290" y="87"/>
      <point x="98" y="71" type="curve"/>
      <point x="107" y="0" type="line"/>
      <point x="370" y="15"/>
      <point x="533" y="178"/>
      <point x="533" y="428" type="curve" smooth="yes"/>
      <point x="533" y="611"/>
      <point x="441" y="715"/>
      <point x="285" y="715" type="curve" smooth="yes"/>
    </contour>
    <contour>
      <point x="185" y="355"/>
      <point x="128" y="408"/>
      <point x="128" y="495" type="curve" smooth="yes"/>
      <point x="128" y="577"/>
      <point x="197" y="640"/>
      <point x="286" y="640" type="curve" smooth="yes"/>
      <point x="387" y="640"/>
      <point x="446" y="563"/>
      <point x="446" y="431" type="curve" smooth="yes"/>
      <point x="446" y="424" type="line"/>
      <point x="396" y="380"/>
      <point x="336" y="355"/>
      <point x="279" y="355" type="curve" smooth="yes"/>
    </contour>
  </outline>
</glyph>
<glyph name="colon" format="1">
  <advance width="180"/>
  <unicode hex="003A"/>
  <outline>
    <contour>
      <point x="136" y="458" type="line"/>
      <point x="44" y="458" type="line"/>
      <point x="44" y="366" type="line"/>
      <point x="136" y="366" type="line"/>
    </contour>
    <contour>
      <point x="136" y="113" type="line"/>
      <point x="44" y="113" type="line"/>
      <point x="44" y="22" type="line"/>
      <point x="136" y="22" type="line"/>
    </contour>
  </outline>
</glyph>
<glyph name="semicolon" format="1">
  <advance width="213"/>
  <unicode hex="003B"/>
  <outline>
    <contour>
      <point x="174" y="412" type="line"/>
      <point x="83" y="412" type="line"/>
      <point x="83" y="321" type="line"/>
      <point x="174" y="321" type="line"/>
    </contour>
    <contour>
      <point x="169" y="100" type="line"/>
      <point x="84" y="100" type="line"/>
      <point x="26" y="-123" type="line"/>
      <point x="81" y="-123" type="line"/>
    </contour>
  </outline>
</glyph>
<glyph name="less" format="1">
  <advance width="601"/>
  <unicode hex="003C"/>
  <outline>
    <contour>
      <point x="41" y="328" type="line"/>
      <point x="41" y="277" type="line"/>
      <point x="533" y="61" type="line"/>
      <point x="533" y="139" type="line"/>
      <point x="162" y="302" type="line"/>
      <point x="533" y="466" type="line"/>
      <point x="533" y="545" type="line"/>
    </contour>
  </outline>
</glyph>
<glyph name="equal" format="1">
  <advance width="640"/>
  <unicode hex="003D"/>
  <outline>
    <contour>
      <point x="549" y="435" type="line"/>
      <point x="91" y="435" type="line"/>
      <point x="91" y="363" type="line"/>
      <point x="549" y="363" type="line"/>
    </contour>
    <contour>
      <point x="549" y="221" type="line"/>
      <point x="91" y="221" type="line"/>
      <point x="91" y="149" type="line"/>
      <point x="549" y="149" type="line"/>
    </contour>
  </outline>
</glyph>
<glyph name="greater" format="1">
  <advance width="601"/>
  <unicode hex="003E"/>
  <outline>
    <contour>
      <point x="561" y="328" type="line"/>
      <point x="68" y="545" type="line"/>
      <point x="68" y="466" type="line"/>
      <point x="440" y="302" type="line"/>
      <point x="68" y="139" type="line"/>
      <point x="68" y="61" type="line"/>
      <point x="561" y="277" type="line"/>
    </contour>
  </outline>
</glyph>
<glyph name="question" format="1">
  <advance width="409"/>
  <unicode hex="003F"/>
  <outline>
    <contour>
      <point x="305" y="383"/>
      <point x="105" y="453"/>
      <point x="105" y="155" type="curve"/>
      <point x="188" y="155" type="line"/>
      <point x="188" y="409"/>
      <point x="392" y="333"/>
      <point x="392" y="539" type="curve" smooth="yes"/>
      <point x="392" y="653"/>
      <point x="312" y="721"/>
      <point x="179" y="721" type="curve" smooth="yes"/>
      <point x="122" y="721"/>
      <point x="57" y="705"/>
      <point x="-2" y="675" type="curve"/>
      <point x="27" y="604" type="line"/>
      <point x="88" y="631"/>
      <point x="137" y="643"/>
      <point x="178" y="643" type="curve" smooth="yes"/>
      <point x="256" y="643"/>
      <point x="305" y="603"/>
      <point x="305" y="539" type="curve" smooth="yes"/>
    </contour>
    <contour>
      <point x="193" y="94" type="line"/>
      <point x="101" y="94" type="line"/>
      <point x="101" y="2" type="line"/>
      <point x="193" y="2" type="line"/>
    </contour>
  </outline>
</glyph>
<glyph name="at" format="1">
  <advance width="1002"/>
  <unicode hex="0040"/>
  <outline>
    <contour>
      <point x="48" y="-47"/>
      <point x="230" y="-224"/>
      <point x="504" y="-224" type="curve" smooth="yes"/>
      <point x="567" y="-224"/>
      <point x="644" y="-210"/>
      <point x="696" y="-190" type="curve"/>
      <point x="672" y="-113" type="line"/>
      <point x="630" y="-130"/>
      <point x="563" y="-141"/>
      <point x="504" y="-141" type="curve" smooth="yes"/>
      <point x="283" y="-141"/>
      <point x="136" y="3"/>
      <point x="136" y="218" type="curve" smooth="yes"/>
      <point x="136" y="466"/>
      <point x="294" y="631"/>
      <point x="531" y="631" type="curve" smooth="yes"/>
      <point x="732" y="631"/>
      <point x="866" y="505"/>
      <point x="866" y="315" type="curve" smooth="yes"/>
      <point x="866" y="189"/>
      <point x="818" y="105"/>
      <point x="747" y="105" type="curve" smooth="yes"/>
      <point x="695" y="105"/>
      <point x="660" y="155"/>
      <point x="660" y="229" type="curve" smooth="yes"/>
      <point x="660" y="249"/>
      <point x="662" y="271"/>
      <point x="664" y="283" type="curve" smooth="yes"/>
      <point x="685" y="441" type="line"/>
      <point x="645" y="455"/>
      <point x="593" y="465"/>
      <point x="557" y="465" type="curve" smooth="yes"/>
      <point x="400" y="465"/>
      <point x="295" y="358"/>
      <point x="295" y="197" type="curve" smooth="yes"/>
      <point x="295" y="95"/>
      <point x="356" y="27"/>
      <point x="448" y="27" type="curve" smooth="yes"/>
      <point x="510" y="27"/>
      <point x="572" y="65"/>
      <point x="604" y="121" type="curve"/>
      <point x="622" y="65"/>
      <point x="677" y="27"/>
      <point x="742" y="27" type="curve" smooth="yes"/>
      <point x="869" y="27"/>
      <point x="954" y="143"/>
      <point x="954" y="318" type="curve" smooth="yes"/>
      <point x="954" y="556"/>
      <point x="785" y="714"/>
      <point x="531" y="714" type="curve" smooth="yes"/>
      <point x="241" y="714"/>
      <point x="48" y="516"/>
      <point x="48" y="218" type="curve" smooth="yes"/>
    </contour>
    <contour>
      <point x="582" y="252" type="line" smooth="yes"/>
      <point x="570" y="164"/>
      <point x="522" y="105"/>
      <point x="462" y="105" type="curve" smooth="yes"/>
      <point x="416" y="105"/>
      <point x="385" y="148"/>
      <point x="385" y="212" type="curve" smooth="yes"/>
      <point x="385" y="319"/>
      <point x="449" y="390"/>
      <point x="545" y="390" type="curve" smooth="yes"/>
      <point x="561" y="390"/>
      <point x="583" y="387"/>
      <point x="601" y="383" type="curve"/>
    </contour>
  </outline>
</glyph>
<glyph name="A" format="1">
  <advance width="645"/>
  <unicode hex="0041"/>
  <outline>
    <contour>
      <point x="630" y="0" type="line"/>
      <point x="374" y="707" type="line"/>
      <point x="265" y="707" type="line"/>
      <point x="16" y="0" type="line"/>
      <point x="104" y="0" type="line"/>
      <point x="178" y="211" type="line"/>
      <point x="468" y="211" type="line"/>
      <point x="545" y="0" type="line"/>
    </contour>
    <contour>
      <point x="205" y="288" type="line"/>
      <point x="318" y="618" type="line"/>
      <point x="324" y="618" type="line"/>
      <point x="441" y="288" type="line"/>
    </contour>
  </outline>
</glyph>
<glyph name="B" format="1">
  <advance width="634"/>
  <unicode hex="0042"/>
  <outline>
    <contour>
      <point x="463" y="375" type="line"/>
      <point x="528" y="401"/>
      <point x="560" y="449"/>
      <point x="560" y="520" type="curve" smooth="yes"/>
      <point x="560" y="642"/>
      <point x="475" y="708"/>
      <point x="317" y="708" type="curve" smooth="yes"/>
      <point x="93" y="708" type="line"/>
      <point x="93" y="0" type="line"/>
      <point x="346" y="0" type="line" smooth="yes"/>
      <point x="501" y="0"/>
      <point x="589" y="76"/>
      <point x="589" y="209" type="curve" smooth="yes"/>
      <point x="589" y="289"/>
      <point x="545" y="344"/>
      <point x="463" y="370" type="curve"/>
    </contour>
    <contour>
      <point x="189" y="408" type="line"/>
      <point x="189" y="623" type="line"/>
      <point x="317" y="623" type="line" smooth="yes"/>
      <point x="413" y="623"/>
      <point x="460" y="589"/>
      <point x="460" y="520" type="curve" smooth="yes"/>
      <point x="460" y="445"/>
      <point x="412" y="408"/>
      <point x="317" y="408" type="curve" smooth="yes"/>
    </contour>
    <contour>
      <point x="189" y="85" type="line"/>
      <point x="189" y="323" type="line"/>
      <point x="331" y="323" type="line" smooth="yes"/>
      <point x="436" y="323"/>
      <point x="489" y="285"/>
      <point x="489" y="209" type="curve" smooth="yes"/>
      <point x="489" y="129"/>
      <point x="438" y="85"/>
      <point x="346" y="85" type="curve" smooth="yes"/>
    </contour>
  </outline>
</glyph>
<glyph name="C" format="1">
  <advance width="619"/>
  <unicode hex="0043"/>
  <outline>
    <contour>
      <point x="175" y="715"/>
      <point x="50" y="581"/>
      <point x="50" y="356" type="curve" smooth="yes"/>
      <point x="50" y="121"/>
      <point x="166" y="-7"/>
      <point x="379" y="-7" type="curve" smooth="yes"/>
      <point x="450" y="-7"/>
      <point x="530" y="11"/>
      <point x="597" y="42" type="curve"/>
      <point x="565" y="116" type="line"/>
      <point x="504" y="89"/>
      <point x="441" y="75"/>
      <point x="382" y="75" type="curve" smooth="yes"/>
      <point x="228" y="75"/>
      <point x="141" y="175"/>
      <point x="141" y="356" type="curve" smooth="yes"/>
      <point x="141" y="533"/>
      <point x="229" y="633"/>
      <point x="385" y="633" type="curve" smooth="yes"/>
      <point x="442" y="633"/>
      <point x="493" y="619"/>
      <point x="556" y="586" type="curve"/>
      <point x="592" y="656" type="line"/>
      <point x="529" y="695"/>
      <point x="457" y="715"/>
      <point x="385" y="715" type="curve" smooth="yes"/>
    </contour>
  </outline>
</glyph>
<glyph name="D" format="1">
  <advance width="710"/>
  <unicode hex="0044"/>
  <outline>
    <contour>
      <point x="95" y="707" type="line"/>
      <point x="95" y="0" type="line"/>
      <point x="320" y="0" type="line" smooth="yes"/>
      <point x="537" y="0"/>
      <point x="660" y="129"/>
      <point x="660" y="356" type="curve" smooth="yes"/>
      <point x="660" y="583"/>
      <point x="540" y="707"/>
      <point x="320" y="707" type="curve" smooth="yes"/>
    </contour>
    <contour>
      <point x="182" y="77" type="line"/>
      <point x="182" y="630" type="line"/>
      <point x="320" y="630" type="line" smooth="yes"/>
      <point x="482" y="630"/>
      <point x="569" y="535"/>
      <point x="569" y="356" type="curve" smooth="yes"/>
      <point x="569" y="175"/>
      <point x="481" y="77"/>
      <point x="320" y="77" type="curve" smooth="yes"/>
    </contour>
  </outline>
</glyph>
<glyph name="E" format="1">
  <advance width="558"/>
  <unicode hex="0045"/>
  <outline>
    <contour>
      <point x="512" y="707" type="line"/>
      <point x="95" y="707" type="line"/>
      <point x="95" y="0" type="line"/>
      <point x="523" y="0" type="line"/>
      <point x="523" y="77" type="line"/>
      <point x="182" y="77" type="line"/>
      <point x="182" y="332" type="line"/>
      <point x="480" y="332" type="line"/>
      <point x="480" y="409" type="line"/>
      <point x="182" y="409" type="line"/>
      <point x="182" y="630" type="line"/>
      <point x="512" y="630" type="line"/>
    </contour>
  </outline>
</glyph>
<glyph name="F" format="1">
  <advance width="532"/>
  <unicode hex="0046"/>
  <outline>
    <contour>
      <point x="514" y="708" type="line"/>
      <point x="93" y="708" type="line"/>
      <point x="93" y="0" type="line"/>
      <point x="189" y="0" type="line"/>
      <point x="189" y="328" type="line"/>
      <point x="465" y="328" type="line"/>
      <point x="465" y="413" type="line"/>
      <point x="189" y="413" type="line"/>
      <point x="189" y="623" type="line"/>
      <point x="514" y="623" type="line"/>
    </contour>
  </outline>
</glyph>
<glyph name="G" format="1">
  <advance width="664"/>
  <unicode hex="0047"/>
  <outline>
    <contour>
      <point x="606" y="351" type="line"/>
      <point x="520" y="351" type="line"/>
      <point x="520" y="96" type="line"/>
      <point x="474" y="82"/>
      <point x="427" y="75"/>
      <point x="383" y="75" type="curve" smooth="yes"/>
      <point x="229" y="75"/>
      <point x="141" y="175"/>
      <point x="141" y="356" type="curve" smooth="yes"/>
      <point x="141" y="533"/>
      <point x="230" y="633"/>
      <point x="386" y="633" type="curve" smooth="yes"/>
      <point x="446" y="633"/>
      <point x="501" y="619"/>
      <point x="566" y="586" type="curve"/>
      <point x="602" y="656" type="line"/>
      <point x="534" y="695"/>
      <point x="460" y="715"/>
      <point x="386" y="715" type="curve" smooth="yes"/>
      <point x="176" y="715"/>
      <point x="50" y="581"/>
      <point x="50" y="356" type="curve" smooth="yes"/>
      <point x="50" y="121"/>
      <point x="167" y="-7"/>
      <point x="380" y="-7" type="curve" smooth="yes"/>
      <point x="455" y="-7"/>
      <point x="539" y="11"/>
      <point x="606" y="42" type="curve"/>
    </contour>
  </outline>
</glyph>
<glyph name="H" format="1">
  <advance width="739"/>
  <unicode hex="0048"/>
  <outline>
    <contour>
      <point x="182" y="707" type="line"/>
      <point x="95" y="707" type="line"/>
      <point x="95" y="0" type="line"/>
      <point x="182" y="0" type="line"/>
      <point x="182" y="329" type="line"/>
      <point x="557" y="329" type="line"/>
      <point x="557" y="0" type="line"/>
      <point x="644" y="0" type="line"/>
      <point x="644" y="707" type="line"/>
      <point x="557" y="707" type="line"/>
      <point x="557" y="406" type="line"/>
      <point x="182" y="406" type="line"/>
    </contour>
  </outline>
</glyph>
<glyph name="I" format="1">
  <advance width="278"/>
  <unicode hex="0049"/>
  <outline>
    <contour>
      <point x="182" y="707" type="line"/>
      <point x="95" y="707" type="line"/>
      <point x="95" y="0" type="line"/>
      <point x="182" y="0" type="line"/>
    </contour>
  </outline>
</glyph>
<glyph name="J" format="1">
  <advance width="331"/>
  <unicode hex="004A"/>
  <outline>
    <contour>
      <point x="34" y="-137" type="line"/>
      <point x="150" y="-94"/>
      <point x="239" y="17"/>
      <point x="239" y="121" type="curve" smooth="yes"/>
      <point x="239" y="707" type="line"/>
      <point x="12" y="707" type="line"/>
      <point x="12" y="630" type="line"/>
      <point x="154" y="630" type="line"/>
      <point x="154" y="121" type="line" smooth="yes"/>
      <point x="154" y="46"/>
      <point x="88" y="-40"/>
      <point x="2" y="-79" type="curve"/>
    </contour>
  </outline>
</glyph>
<glyph name="K" format="1">
  <advance width="637"/>
  <unicode hex="004B"/>
  <outline>
    <contour>
      <point x="182" y="707" type="line"/>
      <point x="95" y="707" type="line"/>
      <point x="95" y="0" type="line"/>
      <point x="182" y="0" type="line"/>
    </contour>
    <contour>
      <point x="496" y="707" type="line"/>
      <point x="206" y="380" type="line"/>
      <point x="518" y="0" type="line"/>
      <point x="628" y="0" type="line"/>
      <point x="314" y="381" type="line"/>
      <point x="602" y="707" type="line"/>
    </contour>
  </outline>
</glyph>
<glyph name="L" format="1">
  <advance width="521"/>
  <unicode hex="004C"/>
  <outline>
    <contour>
      <point x="182" y="707" type="line"/>
      <point x="95" y="707" type="line"/>
      <point x="95" y="0" type="line"/>
      <point x="509" y="0" type="line"/>
      <point x="509" y="77" type="line"/>
      <point x="182" y="77" type="line"/>
    </contour>
  </outline>
</glyph>
<glyph name="N" format="1">
  <advance width="739"/>
  <unicode hex="004E"/>
  <outline>
    <contour>
      <point x="643" y="707" type="line"/>
      <point x="561" y="707" type="line"/>
      <point x="561" y="138" type="line"/>
      <point x="521" y="202"/>
      <point x="482" y="265"/>
      <point x="439" y="326" type="curve" smooth="yes"/>
      <point x="169" y="707" type="line"/>
      <point x="95" y="707" type="line"/>
      <point x="95" y="0" type="line"/>
      <point x="178" y="0" type="line"/>
      <point x="178" y="570" type="line"/>
      <point x="215" y="510"/>
      <point x="251" y="450"/>
      <point x="292" y="393" type="curve" smooth="yes"/>
      <point x="570" y="0" type="line"/>
      <point x="643" y="0" type="line"/>
    </contour>
  </outline>
</glyph>
<glyph name="O" format="1">
  <advance width="739"/>
  <unicode hex="004F"/>
  <outline>
    <contour>
      <point x="165" y="716"/>
      <point x="48" y="586"/>
      <point x="48" y="357" type="curve" smooth="yes"/>
      <point x="48" y="120"/>
      <point x="162" y="-10"/>
      <point x="370" y="-10" type="curve" smooth="yes"/>
      <point x="577" y="-10"/>
      <point x="691" y="121"/>
      <point x="691" y="357" type="curve" smooth="yes"/>
      <point x="691" y="585"/>
      <point x="574" y="716"/>
      <point x="370" y="716" type="curve" smooth="yes"/>
    </contour>
    <contour>
      <point x="512" y="626"/>
      <point x="591" y="530"/>
      <point x="591" y="357" type="curve" smooth="yes"/>
      <point x="591" y="179"/>
      <point x="512" y="80"/>
      <point x="370" y="80" type="curve" smooth="yes"/>
      <point x="227" y="80"/>
      <point x="148" y="178"/>
      <point x="148" y="357" type="curve" smooth="yes"/>
      <point x="148" y="531"/>
      <point x="226" y="626"/>
      <point x="370" y="626" type="curve" smooth="yes"/>
    </contour>
  </outline>
</glyph>
<glyph name="P" format="1">
  <advance width="573"/>
  <unicode hex="0050"/>
  <outline>
    <contour>
      <point x="95" y="707" type="line"/>
      <point x="95" y="0" type="line"/>
      <point x="182" y="0" type="line"/>
      <point x="182" y="295" type="line"/>
      <point x="302" y="295" type="line" smooth="yes"/>
      <point x="457" y="295"/>
      <point x="542" y="369"/>
      <point x="542" y="501" type="curve" smooth="yes"/>
      <point x="542" y="634"/>
      <point x="459" y="707"/>
      <point x="302" y="707" type="curve" smooth="yes"/>
    </contour>
    <contour>
      <point x="182" y="372" type="line"/>
      <point x="182" y="630" type="line"/>
      <point x="302" y="630" type="line" smooth="yes"/>
      <point x="404" y="630"/>
      <point x="452" y="588"/>
      <point x="452" y="501" type="curve" smooth="yes"/>
      <point x="452" y="414"/>
      <point x="403" y="372"/>
      <point x="302" y="372" type="curve" smooth="yes"/>
    </contour>
  </outline>
</glyph>
<glyph name="Q" format="1">
  <advance width="742"/>
  <unicode hex="0051"/>
  <outline>
    <contour>
      <point x="451" y="-134"/>
      <point x="406" y="-90"/>
      <point x="391" y="-9" type="curve"/>
      <point x="584" y="0"/>
      <point x="692" y="130"/>
      <point x="692" y="356" type="curve" smooth="yes"/>
      <point x="692" y="584"/>
      <point x="575" y="715"/>
      <point x="371" y="715" type="curve" smooth="yes"/>
      <point x="167" y="715"/>
      <point x="50" y="585"/>
      <point x="50" y="356" type="curve" smooth="yes"/>
      <point x="50" y="142"/>
      <point x="145" y="15"/>
      <point x="318" y="-6" type="curve"/>
      <point x="332" y="-132"/>
      <point x="407" y="-212"/>
      <point x="530" y="-212" type="curve" smooth="yes"/>
      <point x="563" y="-212"/>
      <point x="599" y="-207"/>
      <point x="635" y="-195" type="curve"/>
      <point x="610" y="-121" type="line"/>
      <point x="583" y="-130"/>
      <point x="559" y="-134"/>
      <point x="536" y="-134" type="curve" smooth="yes"/>
    </contour>
    <contour>
      <point x="141" y="535"/>
      <point x="222" y="633"/>
      <point x="371" y="633" type="curve" smooth="yes"/>
      <point x="518" y="633"/>
      <point x="601" y="534"/>
      <point x="601" y="356" type="curve" smooth="yes"/>
      <point x="601" y="174"/>
      <point x="518" y="72"/>
      <point x="371" y="72" type="curve" smooth="yes"/>
      <point x="223" y="72"/>
      <point x="141" y="173"/>
      <point x="141" y="356" type="curve" smooth="yes"/>
    </contour>
  </outline>
</glyph>
<glyph name="R" format="1">
  <advance width="612"/>
  <unicode hex="0052"/>
  <outline>
    <contour>
      <point x="470" y="0" type="line"/>
      <point x="581" y="0" type="line"/>
      <point x="420" y="308" type="line"/>
      <point x="507" y="338"/>
      <point x="555" y="404"/>
      <point x="555" y="500" type="curve" smooth="yes"/>
      <point x="555" y="635"/>
      <point x="467" y="708"/>
      <point x="302" y="708" type="curve" smooth="yes"/>
      <point x="93" y="708" type="line"/>
      <point x="93" y="0" type="line"/>
      <point x="189" y="0" type="line"/>
      <point x="189" y="291" type="line"/>
      <point x="302" y="291" type="line"/>
      <point x="320" y="291" type="line"/>
    </contour>
    <contour>
      <point x="189" y="376" type="line"/>
      <point x="189" y="623" type="line"/>
      <point x="302" y="623" type="line" smooth="yes"/>
      <point x="406" y="623"/>
      <point x="455" y="583"/>
      <point x="455" y="500" type="curve" smooth="yes"/>
      <point x="455" y="417"/>
      <point x="404" y="376"/>
      <point x="302" y="376" type="curve" smooth="yes"/>
    </contour>
  </outline>
</glyph>
<glyph name="T" format="1">
  <advance width="545"/>
  <unicode hex="0054"/>
  <outline>
    <contour>
      <point x="12" y="630" type="line"/>
      <point x="235" y="630" type="line"/>
      <point x="235" y="0" type="line"/>
      <point x="322" y="0" type="line"/>
      <point x="322" y="630" type="line"/>
      <point x="533" y="630" type="line"/>
      <point x="533" y="707" type="line"/>
      <point x="12" y="707" type="line"/>
    </contour>
  </outline>
</glyph>
<glyph name="U" format="1">
  <advance width="710"/>
  <unicode hex="0055"/>
  <outline>
    <contour>
      <point x="629" y="707" type="line"/>
      <point x="543" y="707" type="line"/>
      <point x="543" y="237" type="line" smooth="yes"/>
      <point x="543" y="127"/>
      <point x="482" y="72"/>
      <point x="355" y="72" type="curve" smooth="yes"/>
      <point x="228" y="72"/>
      <point x="167" y="128"/>
      <point x="167" y="237" type="curve" smooth="yes"/>
      <point x="167" y="707" type="line"/>
      <point x="81" y="707" type="line"/>
      <point x="81" y="237" type="line" smooth="yes"/>
      <point x="81" y="83"/>
      <point x="176" y="-9"/>
      <point x="355" y="-9" type="curve" smooth="yes"/>
      <point x="532" y="-9"/>
      <point x="629" y="83"/>
      <point x="629" y="237" type="curve" smooth="yes"/>
    </contour>
  </outline>
</glyph>
<glyph name="V" format="1">
  <advance width="640"/>
  <unicode hex="0056"/>
  <outline>
    <contour>
      <point x="624" y="707" type="line"/>
      <point x="533" y="707" type="line"/>
      <point x="403" y="340" type="line" smooth="yes"/>
      <point x="373" y="254"/>
      <point x="346" y="175"/>
      <point x="320" y="95" type="curve"/>
      <point x="294" y="176"/>
      <point x="266" y="257"/>
      <point x="237" y="340" type="curve" smooth="yes"/>
      <point x="108" y="707" type="line"/>
      <point x="16" y="707" type="line"/>
      <point x="263" y="0" type="line"/>
      <point x="378" y="0" type="line"/>
    </contour>
  </outline>
</glyph>
<glyph name="W" format="1">
  <advance width="985"/>
  <unicode hex="0057"/>
  <outline>
    <contour>
      <point x="778" y="0" type="line"/>
      <point x="962" y="707" type="line"/>
      <point x="874" y="707" type="line"/>
      <point x="780" y="341" type="line" smooth="yes"/>
      <point x="757" y="254"/>
      <point x="734" y="168"/>
      <point x="712" y="81" type="curve"/>
      <point x="690" y="168"/>
      <point x="667" y="254"/>
      <point x="645" y="341" type="curve" smooth="yes"/>
      <point x="550" y="707" type="line"/>
      <point x="435" y="707" type="line"/>
      <point x="340" y="341" type="line" smooth="yes"/>
      <point x="318" y="254"/>
      <point x="295" y="168"/>
      <point x="273" y="81" type="curve"/>
      <point x="251" y="168"/>
      <point x="228" y="254"/>
      <point x="205" y="341" type="curve" smooth="yes"/>
      <point x="111" y="707" type="line"/>
      <point x="23" y="707" type="line"/>
      <point x="207" y="0" type="line"/>
      <point x="337" y="0" type="line"/>
      <point x="450" y="438" type="line" smooth="yes"/>
      <point x="464" y="494"/>
      <point x="478" y="562"/>
      <point x="492" y="623" type="curve"/>
      <point x="507" y="562"/>
      <point x="521" y="494"/>
      <point x="535" y="438" type="curve" smooth="yes"/>
      <point x="648" y="0" type="line"/>
    </contour>
  </outline>
</glyph>
<glyph name="X" format="1">
  <advance width="619"/>
  <unicode hex="0058"/>
  <outline>
    <contour>
      <point x="503" y="0" type="line"/>
      <point x="604" y="0" type="line"/>
      <point x="367" y="367" type="line"/>
      <point x="586" y="707" type="line"/>
      <point x="485" y="707" type="line"/>
      <point x="310" y="436" type="line"/>
      <point x="134" y="707" type="line"/>
      <point x="33" y="707" type="line"/>
      <point x="252" y="367" type="line"/>
      <point x="15" y="0" type="line"/>
      <point x="116" y="0" type="line"/>
      <point x="310" y="298" type="line"/>
    </contour>
  </outline>
</glyph>
<glyph name="Y" format="1">
  <advance width="574"/>
  <unicode hex="0059"/>
  <outline>
    <contour>
      <point x="5" y="708" type="line"/>
      <point x="239" y="298" type="line"/>
      <point x="239" y="0" type="line"/>
      <point x="334" y="0" type="line"/>
      <point x="334" y="298" type="line"/>
      <point x="569" y="708" type="line"/>
      <point x="465" y="708" type="line"/>
      <point x="358" y="514" type="line" smooth="yes"/>
      <point x="335" y="473"/>
      <point x="290" y="381"/>
      <point x="290" y="381" type="curve" smooth="yes"/>
      <point x="284" y="381" type="line" smooth="yes"/>
      <point x="284" y="381"/>
      <point x="239" y="473"/>
      <point x="217" y="514" type="curve" smooth="yes"/>
      <point x="110" y="708" type="line"/>
    </contour>
  </outline>
</glyph>
<glyph name="Z" format="1">
  <advance width="537"/>
  <unicode hex="005A"/>
  <outline>
    <contour>
      <point x="397" y="634" type="line"/>
      <point x="31" y="68" type="line"/>
      <point x="31" y="0" type="line"/>
      <point x="501" y="0" type="line"/>
      <point x="501" y="75" type="line"/>
      <point x="138" y="75" type="line"/>
      <point x="505" y="643" type="line"/>
      <point x="505" y="707" type="line"/>
      <point x="42" y="707" type="line"/>
      <point x="42" y="634" type="line"/>
    </contour>
  </outline>
</glyph>
<glyph name="bracketleft" format="1">
  <advance width="318"/>
  <unicode hex="005B"/>
  <outline>
    <contour>
      <point x="304" y="774" type="line"/>
      <point x="91" y="774" type="line"/>
      <point x="91" y="-193" type="line"/>
      <point x="304" y="-193" type="line"/>
      <point x="304" y="-121" type="line"/>
      <point x="175" y="-121" type="line"/>
      <point x="175" y="702" type="line"/>
      <point x="304" y="702" type="line"/>
    </contour>
  </outline>
</glyph>
<glyph name="backslash" format="1">
  <advance width="340"/>
  <unicode hex="005C"/>
  <outline>
    <contour>
      <point x="336" y="-61" type="line"/>
      <point x="79" y="742" type="line"/>
      <point x="4" y="742" type="line"/>
      <point x="261" y="-61" type="line"/>
    </contour>
  </outline>
</glyph>
<glyph name="bracketright" format="1">
  <advance width="320"/>
  <unicode hex="005D"/>
  <outline>
    <contour>
      <point x="151" y="-128" type="line"/>
      <point x="15" y="-128" type="line"/>
      <point x="15" y="-193" type="line"/>
      <point x="227" y="-193" type="line"/>
      <point x="227" y="774" type="line"/>
      <point x="15" y="774" type="line"/>
      <point x="15" y="709" type="line"/>
      <point x="151" y="709" type="line"/>
    </contour>
  </outline>
</glyph>
<glyph name="asciicircum" format="1">
  <advance width="510"/>
  <unicode hex="005E"/>
  <outline>
    <contour>
      <point x="279" y="706" type="line"/>
      <point x="230" y="706" type="line"/>
      <point x="9" y="364" type="line"/>
      <point x="85" y="364" type="line"/>
      <point x="254" y="637" type="line"/>
      <point x="424" y="365" type="line"/>
      <point x="501" y="365" type="line"/>
    </contour>
  </outline>
</glyph>
<glyph name="underscore" format="1">
  <advance width="660"/>
  <unicode hex="005F"/>
  <outline>
    <contour>
      <point x="583" y="-53" type="line"/>
      <point x="77" y="-53" type="line"/>
      <point x="77" y="-127" type="line"/>
      <point x="583" y="-127" type="line"/>
    </contour>
  </outline>
</glyph>
<glyph name="grave" format="1">
  <advance width="291"/>
  <unicode hex="0060"/>
  <outline>
    <contour>
      <point x="239" y="600" type="line"/>
      <point x="106" y="760" type="line"/>
      <point x="52" y="704" type="line"/>
      <point x="205" y="569" type="line"/>
    </contour>
  </outline>
</glyph>
<glyph name="b" format="1">
  <advance width="591"/>
  <unicode hex="0062"/>
  <outline>
    <contour>
      <point x="170" y="749" type="line"/>
      <point x="85" y="749" type="line"/>
      <point x="85" y="31" type="line"/>
      <point x="135" y="8"/>
      <point x="214" y="-8"/>
      <point x="283" y="-8" type="curve" smooth="yes"/>
      <point x="447" y="-8"/>
      <point x="546" y="95"/>
      <point x="546" y="265" type="curve" smooth="yes"/>
      <point x="546" y="428"/>
      <point x="464" y="521"/>
      <point x="321" y="521" type="curve" smooth="yes"/>
      <point x="261" y="521"/>
      <point x="208" y="496"/>
      <point x="170" y="450" type="curve"/>
    </contour>
    <contour>
      <point x="407" y="446"/>
      <point x="459" y="380"/>
      <point x="459" y="265" type="curve" smooth="yes"/>
      <point x="459" y="141"/>
      <point x="393" y="68"/>
      <point x="282" y="68" type="curve" smooth="yes"/>
      <point x="240" y="68"/>
      <point x="203" y="74"/>
      <point x="170" y="87" type="curve"/>
      <point x="170" y="343" type="line"/>
      <point x="191" y="407"/>
      <point x="245" y="446"/>
      <point x="315" y="446" type="curve" smooth="yes"/>
    </contour>
  </outline>
</glyph>
<glyph name="c" format="1">
  <advance width="471"/>
  <unicode hex="0063"/>
  <outline>
    <contour>
      <point x="136" y="521"/>
      <point x="45" y="423"/>
      <point x="45" y="257" type="curve" smooth="yes"/>
      <point x="45" y="90"/>
      <point x="132" y="-6"/>
      <point x="285" y="-6" type="curve" smooth="yes"/>
      <point x="338" y="-6"/>
      <point x="400" y="9"/>
      <point x="449" y="33" type="curve"/>
      <point x="426" y="101" type="line"/>
      <point x="384" y="82"/>
      <point x="334" y="70"/>
      <point x="295" y="70" type="curve" smooth="yes"/>
      <point x="190" y="70"/>
      <point x="132" y="136"/>
      <point x="132" y="257" type="curve" smooth="yes"/>
      <point x="132" y="377"/>
      <point x="189" y="446"/>
      <point x="291" y="446" type="curve" smooth="yes"/>
      <point x="332" y="446"/>
      <point x="371" y="435"/>
      <point x="414" y="410" type="curve"/>
      <point x="444" y="478" type="line"/>
      <point x="397" y="506"/>
      <point x="342" y="521"/>
      <point x="291" y="521" type="curve" smooth="yes"/>
    </contour>
  </outline>
</glyph>
<glyph name="f" format="1">
  <advance width="344"/>
  <unicode hex="0066"/>
  <outline>
    <contour>
      <point x="14" y="439" type="line"/>
      <point x="105" y="439" type="line"/>
      <point x="105" y="-153" type="line"/>
      <point x="161" y="-153" type="line"/>
      <point x="182" y="-89"/>
      <point x="190" y="-37"/>
      <point x="190" y="31" type="curve" smooth="yes"/>
      <point x="190" y="439" type="line"/>
      <point x="338" y="439" type="line"/>
      <point x="338" y="513" type="line"/>
      <point x="190" y="513" type="line"/>
      <point x="190" y="591" type="line" smooth="yes"/>
      <point x="190" y="647"/>
      <point x="221" y="678"/>
      <point x="273" y="678" type="curve" smooth="yes"/>
      <point x="298" y="678"/>
      <point x="322" y="673"/>
      <point x="358" y="661" type="curve"/>
      <point x="389" y="728" type="line"/>
      <point x="337" y="747"/>
      <point x="305" y="754"/>
      <point x="266" y="754" type="curve" smooth="yes"/>
      <point x="165" y="754"/>
      <point x="105" y="693"/>
      <point x="105" y="585" type="curve" smooth="yes"/>
      <point x="105" y="513" type="line"/>
      <point x="14" y="513" type="line"/>
    </contour>
  </outline>
</glyph>
<glyph name="g" format="1">
  <advance width="520"/>
  <unicode hex="0067"/>
  <outline>
    <contour>
      <point x="228" y="85" type="line" smooth="yes"/>
      <point x="189" y="85"/>
      <point x="169" y="96"/>
      <point x="169" y="123" type="curve" smooth="yes"/>
      <point x="169" y="141"/>
      <point x="186" y="157"/>
      <point x="216" y="174" type="curve"/>
      <point x="228" y="173"/>
      <point x="241" y="172"/>
      <point x="255" y="172" type="curve" smooth="yes"/>
      <point x="383" y="172"/>
      <point x="460" y="235"/>
      <point x="460" y="347" type="curve" smooth="yes"/>
      <point x="460" y="391"/>
      <point x="447" y="428"/>
      <point x="423" y="457" type="curve"/>
      <point x="491" y="542" type="line"/>
      <point x="455" y="578" type="line"/>
      <point x="360" y="502" type="line"/>
      <point x="330" y="514"/>
      <point x="295" y="521"/>
      <point x="255" y="521" type="curve" smooth="yes"/>
      <point x="127" y="521"/>
      <point x="50" y="454"/>
      <point x="50" y="347" type="curve" smooth="yes"/>
      <point x="50" y="272"/>
      <point x="85" y="218"/>
      <point x="147" y="192" type="curve"/>
      <point x="109" y="166"/>
      <point x="85" y="129"/>
      <point x="85" y="92" type="curve" smooth="yes"/>
      <point x="85" y="40"/>
      <point x="125" y="9"/>
      <point x="192" y="9" type="curve" smooth="yes"/>
      <point x="294" y="9" type="line" smooth="yes"/>
      <point x="370" y="9"/>
      <point x="404" y="-17"/>
      <point x="404" y="-75" type="curve" smooth="yes"/>
      <point x="404" y="-136"/>
      <point x="355" y="-161"/>
      <point x="256" y="-161" type="curve" smooth="yes"/>
      <point x="159" y="-161"/>
      <point x="124" y="-130"/>
      <point x="124" y="-75" type="curve" smooth="yes"/>
      <point x="124" y="-58"/>
      <point x="128" y="-41"/>
      <point x="133" y="-24" type="curve"/>
      <point x="103" y="-20"/>
      <point x="75" y="-12"/>
      <point x="55" y="-3" type="curve"/>
      <point x="44" y="-31"/>
      <point x="39" y="-60"/>
      <point x="39" y="-88" type="curve" smooth="yes"/>
      <point x="39" y="-179"/>
      <point x="109" y="-236"/>
      <point x="256" y="-236" type="curve" smooth="yes"/>
      <point x="402" y="-236"/>
      <point x="491" y="-178"/>
      <point x="491" y="-75" type="curve" smooth="yes"/>
      <point x="491" y="27"/>
      <point x="424" y="85"/>
      <point x="304" y="85" type="curve" smooth="yes"/>
    </contour>
    <contour>
      <point x="329" y="446"/>
      <point x="374" y="407"/>
      <point x="374" y="347" type="curve" smooth="yes"/>
      <point x="374" y="282"/>
      <point x="329" y="248"/>
      <point x="255" y="248" type="curve" smooth="yes"/>
      <point x="181" y="248"/>
      <point x="136" y="282"/>
      <point x="136" y="347" type="curve" smooth="yes"/>
      <point x="136" y="407"/>
      <point x="181" y="446"/>
      <point x="255" y="446" type="curve" smooth="yes"/>
    </contour>
  </outline>
</glyph>
<glyph name="h" format="1">
  <advance width="591"/>
  <unicode hex="0068"/>
  <outline>
    <contour>
      <point x="177" y="754" type="line"/>
      <point x="83" y="754" type="line"/>
      <point x="83" y="0" type="line"/>
      <point x="177" y="0" type="line"/>
      <point x="177" y="363" type="line"/>
      <point x="209" y="411"/>
      <point x="266" y="440"/>
      <point x="327" y="440" type="curve" smooth="yes"/>
      <point x="396" y="440"/>
      <point x="426" y="407"/>
      <point x="426" y="331" type="curve" smooth="yes"/>
      <point x="426" y="0" type="line"/>
      <point x="520" y="0" type="line"/>
      <point x="520" y="338" type="line" smooth="yes"/>
      <point x="520" y="458"/>
      <point x="461" y="523"/>
      <point x="351" y="523" type="curve" smooth="yes"/>
      <point x="282" y="523"/>
      <point x="224" y="498"/>
      <point x="177" y="448" type="curve"/>
    </contour>
  </outline>
</glyph>
<glyph name="i" format="1">
  <advance width="254"/>
  <unicode hex="0069"/>
  <outline>
    <contour>
      <point x="170" y="700" type="line"/>
      <point x="84" y="700" type="line"/>
      <point x="84" y="613" type="line"/>
      <point x="170" y="613" type="line"/>
    </contour>
    <contour>
      <point x="169" y="513" type="line"/>
      <point x="84" y="513" type="line"/>
      <point x="84" y="0" type="line"/>
      <point x="169" y="0" type="line"/>
    </contour>
  </outline>
</glyph>
<glyph name="j" format="1">
  <advance width="255"/>
  <unicode hex="006A"/>
  <outline>
    <contour>
      <point x="172" y="700" type="line"/>
      <point x="87" y="700" type="line"/>
      <point x="87" y="613" type="line"/>
      <point x="172" y="613" type="line"/>
    </contour>
    <contour>
      <point x="30" y="-178" type="line"/>
      <point x="128" y="-89"/>
      <point x="172" y="-7"/>
      <point x="172" y="87" type="curve" smooth="yes"/>
      <point x="172" y="513" type="line"/>
      <point x="87" y="513" type="line"/>
      <point x="87" y="87" type="line" smooth="yes"/>
      <point x="87" y="20"/>
      <point x="55" y="-48"/>
      <point x="-19" y="-138" type="curve"/>
    </contour>
  </outline>
</glyph>
<glyph name="k" format="1">
  <advance width="523"/>
  <unicode hex="006B"/>
  <outline>
    <contour>
      <point x="170" y="754" type="line"/>
      <point x="85" y="754" type="line"/>
      <point x="85" y="0" type="line"/>
      <point x="170" y="0" type="line"/>
    </contour>
    <contour>
      <point x="385" y="513" type="line"/>
      <point x="188" y="291" type="line"/>
      <point x="416" y="0" type="line"/>
      <point x="520" y="0" type="line"/>
      <point x="291" y="295" type="line"/>
      <point x="486" y="513" type="line"/>
    </contour>
  </outline>
</glyph>
<glyph name="l" format="1">
  <advance width="255"/>
  <unicode hex="006C"/>
  <outline>
    <contour>
      <point x="170" y="749" type="line"/>
      <point x="85" y="749" type="line"/>
      <point x="85" y="0" type="line"/>
      <point x="170" y="0" type="line"/>
    </contour>
  </outline>
</glyph>
<glyph name="m" format="1">
  <advance width="925"/>
  <unicode hex="006D"/>
  <outline>
    <contour>
      <point x="153" y="513" type="line"/>
      <point x="84" y="513" type="line"/>
      <point x="84" y="0" type="line"/>
      <point x="169" y="0" type="line"/>
      <point x="169" y="365" type="line"/>
      <point x="209" y="417"/>
      <point x="263" y="446"/>
      <point x="323" y="446" type="curve" smooth="yes"/>
      <point x="395" y="446"/>
      <point x="426" y="411"/>
      <point x="426" y="332" type="curve" smooth="yes"/>
      <point x="426" y="0" type="line"/>
      <point x="511" y="0" type="line"/>
      <point x="511" y="335" type="line" smooth="yes"/>
      <point x="511" y="351"/>
      <point x="509" y="364"/>
      <point x="509" y="364" type="curve"/>
      <point x="550" y="418"/>
      <point x="603" y="446"/>
      <point x="664" y="446" type="curve" smooth="yes"/>
      <point x="736" y="446"/>
      <point x="767" y="411"/>
      <point x="767" y="332" type="curve" smooth="yes"/>
      <point x="767" y="0" type="line"/>
      <point x="852" y="0" type="line"/>
      <point x="852" y="338" type="line" smooth="yes"/>
      <point x="852" y="458"/>
      <point x="793" y="521"/>
      <point x="680" y="521" type="curve" smooth="yes"/>
      <point x="608" y="521"/>
      <point x="550" y="492"/>
      <point x="496" y="427" type="curve"/>
      <point x="470" y="489"/>
      <point x="417" y="521"/>
      <point x="339" y="521" type="curve" smooth="yes"/>
      <point x="271" y="521"/>
      <point x="216" y="495"/>
      <point x="163" y="437" type="curve"/>
    </contour>
  </outline>
</glyph>
<glyph name="n" format="1">
  <advance width="589"/>
  <unicode hex="006E"/>
  <outline>
    <contour>
      <point x="153" y="513" type="line"/>
      <point x="84" y="513" type="line"/>
      <point x="84" y="0" type="line"/>
      <point x="169" y="0" type="line"/>
      <point x="169" y="364" type="line"/>
      <point x="210" y="417"/>
      <point x="266" y="446"/>
      <point x="328" y="446" type="curve" smooth="yes"/>
      <point x="399" y="446"/>
      <point x="430" y="411"/>
      <point x="430" y="332" type="curve" smooth="yes"/>
      <point x="430" y="0" type="line"/>
      <point x="515" y="0" type="line"/>
      <point x="515" y="338" type="line" smooth="yes"/>
      <point x="515" y="457"/>
      <point x="458" y="521"/>
      <point x="350" y="521" type="curve" smooth="yes"/>
      <point x="276" y="521"/>
      <point x="219" y="496"/>
      <point x="163" y="436" type="curve"/>
    </contour>
  </outline>
</glyph>
<glyph name="p" format="1">
  <advance width="592"/>
  <unicode hex="0070"/>
  <outline>
    <contour>
      <point x="259" y="520"/>
      <point x="209" y="496"/>
      <point x="165" y="444" type="curve"/>
      <point x="153" y="512" type="line"/>
      <point x="85" y="512" type="line"/>
      <point x="85" y="-235" type="line"/>
      <point x="170" y="-235" type="line"/>
      <point x="170" y="6" type="line"/>
      <point x="220" y="-5"/>
      <point x="249" y="-9"/>
      <point x="284" y="-9" type="curve" smooth="yes"/>
      <point x="448" y="-9"/>
      <point x="547" y="94"/>
      <point x="547" y="264" type="curve" smooth="yes"/>
      <point x="547" y="427"/>
      <point x="465" y="520"/>
      <point x="322" y="520" type="curve" smooth="yes"/>
    </contour>
    <contour>
      <point x="245" y="67"/>
      <point x="227" y="68"/>
      <point x="170" y="82" type="curve"/>
      <point x="170" y="340" type="line"/>
      <point x="194" y="408"/>
      <point x="245" y="445"/>
      <point x="316" y="445" type="curve" smooth="yes"/>
      <point x="408" y="445"/>
      <point x="460" y="379"/>
      <point x="460" y="264" type="curve" smooth="yes"/>
      <point x="460" y="140"/>
      <point x="394" y="67"/>
      <point x="283" y="67" type="curve" smooth="yes"/>
    </contour>
  </outline>
</glyph>
<glyph name="q" format="1">
  <advance width="575"/>
  <unicode hex="0071"/>
  <outline>
    <contour>
      <point x="149" y="521"/>
      <point x="45" y="413"/>
      <point x="45" y="243" type="curve" smooth="yes"/>
      <point x="45" y="87"/>
      <point x="129" y="-8"/>
      <point x="267" y="-8" type="curve" smooth="yes"/>
      <point x="324" y="-8"/>
      <point x="376" y="16"/>
      <point x="416" y="57" type="curve"/>
      <point x="416" y="-237" type="line"/>
      <point x="501" y="-237" type="line"/>
      <point x="501" y="484" type="line"/>
      <point x="446" y="509"/>
      <point x="381" y="521"/>
      <point x="311" y="521" type="curve" smooth="yes"/>
    </contour>
    <contour>
      <point x="184" y="68"/>
      <point x="131" y="133"/>
      <point x="131" y="243" type="curve" smooth="yes"/>
      <point x="131" y="367"/>
      <point x="202" y="446"/>
      <point x="311" y="446" type="curve" smooth="yes"/>
      <point x="348" y="446"/>
      <point x="383" y="441"/>
      <point x="416" y="430" type="curve"/>
      <point x="416" y="164" type="line"/>
      <point x="384" y="103"/>
      <point x="331" y="68"/>
      <point x="271" y="68" type="curve" smooth="yes"/>
    </contour>
  </outline>
</glyph>
<glyph name="r" format="1">
  <advance width="381"/>
  <unicode hex="0072"/>
  <outline>
    <contour>
      <point x="157" y="514" type="line"/>
      <point x="82" y="514" type="line"/>
      <point x="82" y="0" type="line"/>
      <point x="176" y="0" type="line"/>
      <point x="176" y="362" type="line"/>
      <point x="203" y="410"/>
      <point x="238" y="430"/>
      <point x="295" y="430" type="curve" smooth="yes"/>
      <point x="311" y="430"/>
      <point x="327" y="427"/>
      <point x="361" y="420" type="curve"/>
      <point x="378" y="512" type="line"/>
      <point x="354" y="519"/>
      <point x="330" y="523"/>
      <point x="311" y="523" type="curve" smooth="yes"/>
      <point x="254" y="523"/>
      <point x="205" y="495"/>
      <point x="169" y="442" type="curve"/>
    </contour>
  </outline>
</glyph>
<glyph name="v" format="1">
  <advance width="503"/>
  <unicode hex="0076"/>
  <outline>
    <contour>
      <point x="492" y="513" type="line"/>
      <point x="406" y="513" type="line"/>
      <point x="302" y="232" type="line" smooth="yes"/>
      <point x="283" y="181"/>
      <point x="269" y="131"/>
      <point x="253" y="84" type="curve"/>
      <point x="237" y="131"/>
      <point x="222" y="181"/>
      <point x="204" y="232" type="curve" smooth="yes"/>
      <point x="101" y="513" type="line"/>
      <point x="11" y="513" type="line"/>
      <point x="198" y="0" type="line"/>
      <point x="305" y="0" type="line"/>
    </contour>
  </outline>
</glyph>
<glyph name="x" format="1">
  <advance width="611"/>
  <unicode hex="0078"/>
  <outline>
    <contour>
      <point x="446" y="-1" type="line"/>
      <point x="546" y="0" type="line"/>
      <point x="359" y="266" type="line"/>
      <point x="531" y="513" type="line"/>
      <point x="432" y="513" type="line"/>
      <point x="306" y="329" type="line"/>
      <point x="179" y="513" type="line"/>
      <point x="80" y="513" type="line"/>
      <point x="252" y="266" type="line"/>
      <point x="65" y="0" type="line"/>
      <point x="165" y="-1" type="line"/>
      <point x="306" y="203" type="line"/>
    </contour>
  </outline>
</glyph>
<glyph name="y" format="1">
  <advance width="498"/>
  <unicode hex="0079"/>
  <outline>
    <contour>
      <point x="486" y="513" type="line"/>
      <point x="401" y="513" type="line"/>
      <point x="326" y="316" type="line" smooth="yes"/>
      <point x="295" y="235"/>
      <point x="275" y="171"/>
      <point x="251" y="100" type="curve"/>
      <point x="226" y="171"/>
      <point x="201" y="240"/>
      <point x="172" y="316" type="curve" smooth="yes"/>
      <point x="96" y="513" type="line"/>
      <point x="12" y="513" type="line"/>
      <point x="210" y="1" type="line"/>
      <point x="120" y="-237" type="line"/>
      <point x="198" y="-237" type="line"/>
    </contour>
  </outline>
</glyph>
<glyph name="z" format="1">
  <advance width="450"/>
  <unicode hex="007A"/>
  <outline>
    <contour>
      <point x="304" y="437" type="line"/>
      <point x="30" y="61" type="line"/>
      <point x="30" y="0" type="line"/>
      <point x="422" y="0" type="line"/>
      <point x="422" y="75" type="line"/>
      <point x="137" y="75" type="line"/>
      <point x="412" y="455" type="line"/>
      <point x="412" y="513" type="line"/>
      <point x="43" y="513" type="line"/>
      <point x="43" y="437" type="line"/>
    </contour>
  </outline>
</glyph>
<glyph name="braceleft" format="1">
  <advance width="323"/>
  <unicode hex="007B"/>
  <outline>
    <contour>
      <point x="99" y="-21" type="line" smooth="yes"/>
      <point x="99" y="-145"/>
      <point x="144" y="-193"/>
      <point x="264" y="-193" type="curve" smooth="yes"/>
      <point x="308" y="-193" type="line"/>
      <point x="308" y="-133" type="line"/>
      <point x="265" y="-133" type="line" smooth="yes"/>
      <point x="202" y="-133"/>
      <point x="175" y="-105"/>
      <point x="175" y="-38" type="curve" smooth="yes"/>
      <point x="175" y="148" type="line" smooth="yes"/>
      <point x="175" y="200"/>
      <point x="152" y="242"/>
      <point x="99" y="292" type="curve"/>
      <point x="99" y="299" type="line"/>
      <point x="152" y="345"/>
      <point x="175" y="390"/>
      <point x="175" y="445" type="curve" smooth="yes"/>
      <point x="175" y="621" type="line" smooth="yes"/>
      <point x="175" y="686"/>
      <point x="202" y="714"/>
      <point x="265" y="714" type="curve" smooth="yes"/>
      <point x="308" y="714" type="line"/>
      <point x="308" y="774" type="line"/>
      <point x="268" y="774" type="line" smooth="yes"/>
      <point x="150" y="774"/>
      <point x="99" y="722"/>
      <point x="99" y="602" type="curve" smooth="yes"/>
      <point x="99" y="470" type="line" smooth="yes"/>
      <point x="99" y="393"/>
      <point x="71" y="340"/>
      <point x="17" y="320" type="curve"/>
      <point x="17" y="278" type="line"/>
      <point x="65" y="261"/>
      <point x="99" y="196"/>
      <point x="99" y="121" type="curve" smooth="yes"/>
    </contour>
  </outline>
</glyph>
<glyph name="bar" format="1">
  <advance width="247"/>
  <unicode hex="007C"/>
  <outline>
    <contour>
      <point x="161" y="774" type="line"/>
      <point x="85" y="774" type="line"/>
      <point x="85" y="-193" type="line"/>
      <point x="161" y="-193" type="line"/>
    </contour>
  </outline>
</glyph>
<glyph name="braceright" format="1">
  <advance width="323"/>
  <unicode hex="007D"/>
  <outline>
    <contour>
      <point x="15" y="-133" type="line"/>
      <point x="15" y="-193" type="line"/>
      <point x="58" y="-193" type="line" smooth="yes"/>
      <point x="178" y="-193"/>
      <point x="223" y="-145"/>
      <point x="223" y="-21" type="curve" smooth="yes"/>
      <point x="223" y="121" type="line" smooth="yes"/>
      <point x="223" y="196"/>
      <point x="257" y="261"/>
      <point x="305" y="278" type="curve"/>
      <point x="305" y="320" type="line"/>
      <point x="252" y="340"/>
      <point x="223" y="393"/>
      <point x="223" y="470" type="curve" smooth="yes"/>
      <point x="223" y="602" type="line" smooth="yes"/>
      <point x="223" y="722"/>
      <point x="173" y="774"/>
      <point x="55" y="774" type="curve" smooth="yes"/>
      <point x="15" y="774" type="line"/>
      <point x="15" y="714" type="line"/>
      <point x="57" y="714" type="line" smooth="yes"/>
      <point x="120" y="714"/>
      <point x="147" y="686"/>
      <point x="147" y="621" type="curve" smooth="yes"/>
      <point x="147" y="445" type="line" smooth="yes"/>
      <point x="147" y="390"/>
      <point x="170" y="345"/>
      <point x="224" y="299" type="curve"/>
      <point x="224" y="292" type="line"/>
      <point x="170" y="242"/>
      <point x="147" y="200"/>
      <point x="147" y="148" type="curve" smooth="yes"/>
      <point x="147" y="-38" type="line" smooth="yes"/>
      <point x="147" y="-105"/>
      <point x="120" y="-133"/>
      <point x="57" y="-133" type="curve" smooth="yes"/>
    </contour>
  </outline>
</glyph>
<glyph name="asciitilde" format="1">
  <advance width="665"/>
  <unicode hex="007E"/>
  <outline>
    <contour>
      <point x="307" y="387"/>
      <point x="324" y="274"/>
      <point x="438" y="274" type="curve" smooth="yes"/>
      <point x="525" y="274"/>
      <point x="582" y="337"/>
      <point x="582" y="435" type="curve"/>
      <point x="508" y="435" type="line"/>
      <point x="508" y="377"/>
      <point x="481" y="341"/>
      <point x="436" y="341" type="curve" smooth="yes"/>
      <point x="355" y="341"/>
      <point x="349" y="454"/>
      <point x="228" y="454" type="curve" smooth="yes"/>
      <point x="141" y="454"/>
      <point x="84" y="391"/>
      <point x="84" y="293" type="curve"/>
      <point x="157" y="293" type="line"/>
      <point x="157" y="352"/>
      <point x="185" y="387"/>
      <point x="233" y="387" type="curve" smooth="yes"/>
    </contour>
  </outline>
</glyph>
<glyph name="exclamdown" format="1">
  <advance width="237"/>
  <unicode hex="00A1"/>
  <outline>
    <contour>
      <point x="86" y="329" type="line"/>
      <point x="75" y="-205" type="line"/>
      <point x="162" y="-205" type="line"/>
      <point x="150" y="329" type="line"/>
    </contour>
    <contour>
      <point x="76" y="513" type="line"/>
      <point x="76" y="428" type="line"/>
      <point x="161" y="428" type="line"/>
      <point x="161" y="513" type="line"/>
    </contour>
  </outline>
</glyph>
<glyph name="cent" format="1">
  <advance width="448"/>
  <unicode hex="00A2"/>
  <outline>
    <contour>
      <point x="401" y="195" type="line"/>
      <point x="361" y="176"/>
      <point x="314" y="164"/>
      <point x="277" y="164" type="curve" smooth="yes"/>
      <point x="177" y="164"/>
      <point x="122" y="228"/>
      <point x="122" y="342" type="curve" smooth="yes"/>
      <point x="122" y="455"/>
      <point x="177" y="520"/>
      <point x="274" y="520" type="curve" smooth="yes"/>
      <point x="313" y="520"/>
      <point x="349" y="509"/>
      <point x="391" y="486" type="curve"/>
      <point x="418" y="549" type="line"/>
      <point x="382" y="571"/>
      <point x="342" y="584"/>
      <point x="303" y="588" type="curve"/>
      <point x="303" y="707" type="line"/>
      <point x="231" y="707" type="line"/>
      <point x="231" y="587" type="line"/>
      <point x="109" y="571"/>
      <point x="40" y="483"/>
      <point x="40" y="342" type="curve" smooth="yes"/>
      <point x="40" y="198"/>
      <point x="109" y="110"/>
      <point x="231" y="96" type="curve"/>
      <point x="231" y="-1" type="line"/>
      <point x="303" y="-1" type="line"/>
      <point x="303" y="96" type="line"/>
      <point x="343" y="101"/>
      <point x="387" y="114"/>
      <point x="423" y="131" type="curve"/>
    </contour>
  </outline>
</glyph>
<glyph name="sterling" format="1">
  <advance width="520"/>
  <unicode hex="00A3"/>
  <outline>
    <contour>
      <point x="238" y="317" type="line"/>
      <point x="387" y="317" type="line"/>
      <point x="387" y="389" type="line"/>
      <point x="227" y="389" type="line"/>
      <point x="214" y="440"/>
      <point x="194" y="475"/>
      <point x="194" y="519" type="curve" smooth="yes"/>
      <point x="194" y="591"/>
      <point x="242" y="636"/>
      <point x="319" y="636" type="curve" smooth="yes"/>
      <point x="373" y="636"/>
      <point x="412" y="614"/>
      <point x="425" y="575" type="curve"/>
      <point x="496" y="610" type="line"/>
      <point x="471" y="677"/>
      <point x="406" y="716"/>
      <point x="319" y="716" type="curve" smooth="yes"/>
      <point x="185" y="716"/>
      <point x="100" y="641"/>
      <point x="100" y="523" type="curve" smooth="yes"/>
      <point x="100" y="470"/>
      <point x="117" y="436"/>
      <point x="128" y="389" type="curve"/>
      <point x="40" y="389" type="line"/>
      <point x="40" y="317" type="line"/>
      <point x="139" y="317" type="line"/>
      <point x="139" y="297" type="line" smooth="yes"/>
      <point x="139" y="202"/>
      <point x="113" y="136"/>
      <point x="52" y="74" type="curve"/>
      <point x="52" y="0" type="line"/>
      <point x="491" y="0" type="line"/>
      <point x="491" y="80" type="line"/>
      <point x="142" y="80" type="line"/>
      <point x="197" y="123"/>
      <point x="239" y="216"/>
      <point x="239" y="297" type="curve"/>
    </contour>
  </outline>
</glyph>
<glyph name="currency" format="1">
  <advance width="595"/>
  <unicode hex="00A4"/>
  <outline>
    <contour>
      <point x="478" y="359"/>
      <point x="468" y="394"/>
      <point x="450" y="422" type="curve"/>
      <point x="572" y="544" type="line"/>
      <point x="521" y="595" type="line"/>
      <point x="399" y="473" type="line"/>
      <point x="371" y="491"/>
      <point x="337" y="501"/>
      <point x="298" y="501" type="curve" smooth="yes"/>
      <point x="259" y="501"/>
      <point x="225" y="491"/>
      <point x="196" y="473" type="curve"/>
      <point x="75" y="595" type="line"/>
      <point x="24" y="544" type="line"/>
      <point x="145" y="422" type="line"/>
      <point x="127" y="394"/>
      <point x="117" y="359"/>
      <point x="117" y="320" type="curve" smooth="yes"/>
      <point x="117" y="282"/>
      <point x="127" y="247"/>
      <point x="144" y="219" type="curve"/>
      <point x="24" y="98" type="line"/>
      <point x="75" y="47" type="line"/>
      <point x="195" y="168" type="line"/>
      <point x="224" y="150"/>
      <point x="259" y="140"/>
      <point x="298" y="140" type="curve" smooth="yes"/>
      <point x="337" y="140"/>
      <point x="371" y="150"/>
      <point x="400" y="168" type="curve"/>
      <point x="521" y="47" type="line"/>
      <point x="572" y="98" type="line"/>
      <point x="450" y="219" type="line"/>
      <point x="468" y="247"/>
      <point x="478" y="281"/>
      <point x="478" y="320" type="curve" smooth="yes"/>
    </contour>
    <contour>
      <point x="193" y="385"/>
      <point x="238" y="434"/>
      <point x="298" y="434" type="curve" smooth="yes"/>
      <point x="358" y="434"/>
      <point x="402" y="385"/>
      <point x="402" y="320" type="curve" smooth="yes"/>
      <point x="402" y="255"/>
      <point x="358" y="207"/>
      <point x="298" y="207" type="curve" smooth="yes"/>
      <point x="238" y="207"/>
      <point x="193" y="255"/>
      <point x="193" y="320" type="curve" smooth="yes"/>
    </contour>
  </outline>
</glyph>
<glyph name="yen" format="1">
  <advance width="602"/>
  <unicode hex="00A5"/>
  <outline>
    <contour>
      <point x="381" y="361" type="line"/>
      <point x="581" y="707" type="line"/>
      <point x="487" y="707" type="line"/>
      <point x="301" y="382" type="line"/>
      <point x="117" y="707" type="line"/>
      <point x="22" y="707" type="line"/>
      <point x="222" y="361" type="line"/>
      <point x="77" y="361" type="line"/>
      <point x="77" y="295" type="line"/>
      <point x="258" y="295" type="line"/>
      <point x="258" y="195" type="line"/>
      <point x="77" y="195" type="line"/>
      <point x="77" y="130" type="line"/>
      <point x="258" y="130" type="line"/>
      <point x="258" y="0" type="line"/>
      <point x="344" y="0" type="line"/>
      <point x="344" y="130" type="line"/>
      <point x="524" y="130" type="line"/>
      <point x="524" y="195" type="line"/>
      <point x="344" y="195" type="line"/>
      <point x="344" y="295" type="line"/>
      <point x="524" y="295" type="line"/>
      <point x="524" y="361" type="line"/>
    </contour>
  </outline>
</glyph>
<glyph name="brokenbar" format="1">
  <advance width="222"/>
  <unicode hex="00A6"/>
  <outline>
    <contour>
      <point x="153" y="774" type="line"/>
      <point x="69" y="774" type="line"/>
      <point x="69" y="397" type="line"/>
      <point x="153" y="397" type="line"/>
    </contour>
    <contour>
      <point x="153" y="200" type="line"/>
      <point x="69" y="200" type="line"/>
      <point x="69" y="-193" type="line"/>
      <point x="153" y="-193" type="line"/>
    </contour>
  </outline>
</glyph>
<glyph name="section" format="1">
  <advance width="401"/>
  <unicode hex="00A7"/>
  <outline>
    <contour>
      <point x="130" y="771"/>
      <point x="63" y="708"/>
      <point x="63" y="610" type="curve" smooth="yes"/>
      <point x="63" y="563"/>
      <point x="81" y="518"/>
      <point x="120" y="475" type="curve"/>
      <point x="59" y="436"/>
      <point x="27" y="376"/>
      <point x="27" y="306" type="curve" smooth="yes"/>
      <point x="27" y="137"/>
      <point x="247" y="88"/>
      <point x="247" y="-31" type="curve" smooth="yes"/>
      <point x="247" y="-89"/>
      <point x="213" y="-122"/>
      <point x="151" y="-122" type="curve" smooth="yes"/>
      <point x="123" y="-122"/>
      <point x="100" y="-118"/>
      <point x="77" y="-112" type="curve"/>
      <point x="68" y="-176" type="line"/>
      <point x="104" y="-186"/>
      <point x="134" y="-190"/>
      <point x="163" y="-190" type="curve" smooth="yes"/>
      <point x="269" y="-190"/>
      <point x="337" y="-128"/>
      <point x="337" y="-29" type="curve" smooth="yes"/>
      <point x="337" y="18"/>
      <point x="319" y="61"/>
      <point x="280" y="105" type="curve"/>
      <point x="341" y="143"/>
      <point x="374" y="203"/>
      <point x="374" y="274" type="curve" smooth="yes"/>
      <point x="374" y="437"/>
      <point x="153" y="498"/>
      <point x="153" y="612" type="curve" smooth="yes"/>
      <point x="153" y="670"/>
      <point x="188" y="703"/>
      <point x="250" y="703" type="curve" smooth="yes"/>
      <point x="274" y="703"/>
      <point x="298" y="700"/>
      <point x="324" y="694" type="curve"/>
      <point x="333" y="757" type="line"/>
      <point x="302" y="766"/>
      <point x="268" y="771"/>
      <point x="238" y="771" type="curve" smooth="yes"/>
    </contour>
    <contour>
      <point x="264" y="346"/>
      <point x="297" y="309"/>
      <point x="297" y="254" type="curve" smooth="yes"/>
      <point x="297" y="210"/>
      <point x="282" y="170"/>
      <point x="251" y="135" type="curve"/>
      <point x="137" y="234"/>
      <point x="103" y="272"/>
      <point x="103" y="328" type="curve" smooth="yes"/>
      <point x="103" y="369"/>
      <point x="119" y="409"/>
      <point x="150" y="446" type="curve"/>
    </contour>
  </outline>
</glyph>
<glyph name="dieresis" format="1">
  <advance width="373"/>
  <unicode hex="00A8"/>
  <outline>
    <contour>
      <point x="138" y="693" type="line"/>
      <point x="52" y="693" type="line"/>
      <point x="52" y="607" type="line"/>
      <point x="138" y="607" type="line"/>
    </contour>
    <contour>
      <point x="321" y="693" type="line"/>
      <point x="236" y="693" type="line"/>
      <point x="236" y="607" type="line"/>
      <point x="321" y="607" type="line"/>
    </contour>
  </outline>
</glyph>
<glyph name="copyright" format="1">
  <advance width="607"/>
  <unicode hex="00A9"/>
  <outline>
    <contour>
      <point x="33" y="185"/>
      <point x="152" y="66"/>
      <point x="304" y="66" type="curve" smooth="yes"/>
      <point x="453" y="66"/>
      <point x="574" y="187"/>
      <point x="574" y="338" type="curve" smooth="yes"/>
      <point x="574" y="488"/>
      <point x="455" y="605"/>
      <point x="304" y="605" type="curve" smooth="yes"/>
      <point x="153" y="605"/>
      <point x="33" y="485"/>
      <point x="33" y="336" type="curve" smooth="yes"/>
    </contour>
    <contour>
      <point x="511" y="220"/>
      <point x="419" y="126"/>
      <point x="304" y="126" type="curve" smooth="yes"/>
      <point x="190" y="126"/>
      <point x="97" y="221"/>
      <point x="97" y="338" type="curve" smooth="yes"/>
      <point x="97" y="454"/>
      <point x="190" y="547"/>
      <point x="304" y="547" type="curve" smooth="yes"/>
      <point x="418" y="547"/>
      <point x="511" y="452"/>
      <point x="511" y="336" type="curve" smooth="yes"/>
    </contour>
    <contour>
      <point x="175" y="252"/>
      <point x="227" y="201"/>
      <point x="312" y="201" type="curve" smooth="yes"/>
      <point x="343" y="201"/>
      <point x="375" y="210"/>
      <point x="398" y="224" type="curve"/>
      <point x="382" y="271" type="line"/>
      <point x="357" y="258"/>
      <point x="335" y="252"/>
      <point x="314" y="252" type="curve" smooth="yes"/>
      <point x="265" y="252"/>
      <point x="239" y="282"/>
      <point x="239" y="337" type="curve" smooth="yes"/>
      <point x="239" y="390"/>
      <point x="265" y="421"/>
      <point x="309" y="421" type="curve" smooth="yes"/>
      <point x="334" y="421"/>
      <point x="352" y="412"/>
      <point x="369" y="391" type="curve"/>
      <point x="405" y="427" type="line"/>
      <point x="382" y="456"/>
      <point x="348" y="472"/>
      <point x="309" y="472" type="curve" smooth="yes"/>
      <point x="227" y="472"/>
      <point x="175" y="420"/>
      <point x="175" y="337" type="curve" smooth="yes"/>
    </contour>
  </outline>
</glyph>
<glyph name="ordfeminine" format="1">
  <advance width="333"/>
  <unicode hex="00AA"/>
  <outline>
    <contour>
      <point x="18" y="399"/>
      <point x="62" y="359"/>
      <point x="131" y="359" type="curve" smooth="yes"/>
      <point x="171" y="359"/>
      <point x="208" y="374"/>
      <point x="238" y="402" type="curve"/>
      <point x="245" y="367" type="line"/>
      <point x="297" y="367" type="line"/>
      <point x="297" y="583" type="line" smooth="yes"/>
      <point x="297" y="665"/>
      <point x="250" y="712"/>
      <point x="166" y="712" type="curve" smooth="yes"/>
      <point x="125" y="712"/>
      <point x="79" y="701"/>
      <point x="37" y="681" type="curve"/>
      <point x="55" y="630" type="line"/>
      <point x="95" y="648"/>
      <point x="132" y="656"/>
      <point x="161" y="656" type="curve" smooth="yes"/>
      <point x="205" y="656"/>
      <point x="230" y="632"/>
      <point x="232" y="584" type="curve"/>
      <point x="232" y="576" type="line"/>
      <point x="184" y="576" type="line" smooth="yes"/>
      <point x="79" y="576"/>
      <point x="18" y="533"/>
      <point x="18" y="461" type="curve" smooth="yes"/>
    </contour>
    <contour>
      <point x="232" y="458" type="line"/>
      <point x="212" y="435"/>
      <point x="178" y="415"/>
      <point x="142" y="415" type="curve" smooth="yes"/>
      <point x="104" y="415"/>
      <point x="83" y="432"/>
      <point x="83" y="462" type="curve" smooth="yes"/>
      <point x="83" y="504"/>
      <point x="121" y="527"/>
      <point x="188" y="527" type="curve" smooth="yes"/>
      <point x="232" y="527" type="line"/>
    </contour>
  </outline>
</glyph>
<glyph name="guillemotleft" format="1">
  <advance width="492"/>
  <unicode hex="00AB"/>
  <outline>
    <contour>
      <point x="169" y="497" type="line"/>
      <point x="14" y="261" type="line"/>
      <point x="168" y="26" type="line"/>
      <point x="231" y="74" type="line"/>
      <point x="104" y="261" type="line"/>
      <point x="232" y="451" type="line"/>
    </contour>
    <contour>
      <point x="402" y="497" type="line"/>
      <point x="247" y="261" type="line"/>
      <point x="401" y="26" type="line"/>
      <point x="463" y="74" type="line"/>
      <point x="336" y="261" type="line"/>
      <point x="464" y="451" type="line"/>
    </contour>
  </outline>
</glyph>
<glyph name="logicalnot" format="1">
  <advance width="632"/>
  <unicode hex="00AC"/>
  <outline>
    <contour>
      <point x="59" y="367" type="line"/>
      <point x="444" y="367" type="line"/>
      <point x="444" y="191" type="line"/>
      <point x="515" y="191" type="line"/>
      <point x="515" y="432" type="line"/>
      <point x="59" y="432" type="line"/>
    </contour>
  </outline>
</glyph>
<glyph name="softhyphen" format="1">
  <advance width="417"/>
  <unicode hex="00AD"/>
  <outline>
    <contour>
      <point x="340" y="355" type="line"/>
      <point x="77" y="355" type="line"/>
      <point x="77" y="283" type="line"/>
      <point x="340" y="283" type="line"/>
    </contour>
  </outline>
</glyph>
<glyph name="registered" format="1">
  <advance width="609"/>
  <unicode hex="00AE"/>
  <outline>
    <contour>
      <point x="155" y="716"/>
      <point x="35" y="597"/>
      <point x="35" y="449" type="curve" smooth="yes"/>
      <point x="35" y="299"/>
      <point x="154" y="180"/>
      <point x="305" y="180" type="curve" smooth="yes"/>
      <point x="453" y="180"/>
      <point x="573" y="300"/>
      <point x="573" y="451" type="curve" smooth="yes"/>
      <point x="573" y="600"/>
      <point x="455" y="716"/>
      <point x="305" y="716" type="curve" smooth="yes"/>
    </contour>
    <contour>
      <point x="421" y="663"/>
      <point x="516" y="567"/>
      <point x="516" y="449" type="curve" smooth="yes"/>
      <point x="516" y="331"/>
      <point x="422" y="235"/>
      <point x="305" y="235" type="curve" smooth="yes"/>
      <point x="188" y="235"/>
      <point x="94" y="331"/>
      <point x="94" y="450" type="curve" smooth="yes"/>
      <point x="94" y="568"/>
      <point x="188" y="663"/>
      <point x="305" y="663" type="curve" smooth="yes"/>
    </contour>
    <contour>
      <point x="217" y="594" type="line"/>
      <point x="217" y="315" type="line"/>
      <point x="263" y="315" type="line"/>
      <point x="263" y="426" type="line"/>
      <point x="307" y="426" type="line"/>
      <point x="377" y="310" type="line"/>
      <point x="417" y="332" type="line"/>
      <point x="355" y="433" type="line"/>
      <point x="390" y="444"/>
      <point x="409" y="471"/>
      <point x="409" y="510" type="curve" smooth="yes"/>
      <point x="409" y="565"/>
      <point x="374" y="594"/>
      <point x="309" y="594" type="curve" smooth="yes"/>
    </contour>
    <contour>
      <point x="263" y="553" type="line"/>
      <point x="309" y="553" type="line" smooth="yes"/>
      <point x="342" y="553"/>
      <point x="360" y="538"/>
      <point x="360" y="510" type="curve" smooth="yes"/>
      <point x="360" y="481"/>
      <point x="342" y="467"/>
      <point x="309" y="467" type="curve" smooth="yes"/>
      <point x="263" y="467" type="line"/>
    </contour>
  </outline>
</glyph>
<glyph name="macron" format="1">
  <advance width="403"/>
  <unicode hex="00AF"/>
  <outline>
    <contour>
      <point x="351" y="681" type="line"/>
      <point x="52" y="681" type="line"/>
      <point x="52" y="618" type="line"/>
      <point x="351" y="618" type="line"/>
    </contour>
  </outline>
</glyph>
<glyph name="degree" format="1">
  <advance width="416"/>
  <unicode hex="00B0"/>
  <outline>
    <contour>
      <point x="43" y="453"/>
      <point x="117" y="379"/>
      <point x="208" y="379" type="curve" smooth="yes"/>
      <point x="299" y="379"/>
      <point x="371" y="452"/>
      <point x="371" y="544" type="curve" smooth="yes"/>
      <point x="371" y="635"/>
      <point x="300" y="707"/>
      <point x="208" y="707" type="curve" smooth="yes"/>
      <point x="116" y="707"/>
      <point x="43" y="634"/>
      <point x="43" y="544" type="curve" smooth="yes"/>
    </contour>
    <contour>
      <point x="302" y="489"/>
      <point x="261" y="444"/>
      <point x="209" y="444" type="curve" smooth="yes"/>
      <point x="158" y="444"/>
      <point x="116" y="489"/>
      <point x="116" y="544" type="curve" smooth="yes"/>
      <point x="116" y="600"/>
      <point x="157" y="643"/>
      <point x="209" y="643" type="curve" smooth="yes"/>
      <point x="262" y="643"/>
      <point x="302" y="600"/>
      <point x="302" y="544" type="curve" smooth="yes"/>
    </contour>
  </outline>
</glyph>
<glyph name="plusminus" format="1">
  <advance width="582"/>
  <unicode hex="00B1"/>
  <outline>
    <contour>
      <point x="58" y="323" type="line"/>
      <point x="251" y="323" type="line"/>
      <point x="251" y="130" type="line"/>
      <point x="327" y="130" type="line"/>
      <point x="327" y="323" type="line"/>
      <point x="523" y="323" type="line"/>
      <point x="523" y="389" type="line"/>
      <point x="327" y="389" type="line"/>
      <point x="327" y="581" type="line"/>
      <point x="251" y="581" type="line"/>
      <point x="251" y="389" type="line"/>
      <point x="58" y="389" type="line"/>
    </contour>
    <contour>
      <point x="523" y="70" type="line"/>
      <point x="59" y="70" type="line"/>
      <point x="59" y="5" type="line"/>
      <point x="523" y="5" type="line"/>
    </contour>
  </outline>
</glyph>
<glyph name="acute" format="1">
  <advance width="291"/>
  <unicode hex="00B4"/>
  <outline>
    <contour>
      <point x="185" y="760" type="line"/>
      <point x="52" y="600" type="line"/>
      <point x="86" y="569" type="line"/>
      <point x="239" y="704" type="line"/>
    </contour>
  </outline>
</glyph>
<glyph name="paragraph" format="1">
  <advance width="464"/>
  <unicode hex="00B6"/>
  <outline>
    <contour>
      <point x="195" y="-192" type="line"/>
      <point x="254" y="-192" type="line"/>
      <point x="254" y="656" type="line"/>
      <point x="320" y="656" type="line"/>
      <point x="320" y="-192" type="line"/>
      <point x="379" y="-192" type="line"/>
      <point x="379" y="706" type="line"/>
      <point x="195" y="706" type="line" smooth="yes"/>
      <point x="79" y="706"/>
      <point x="10" y="639"/>
      <point x="10" y="529" type="curve" smooth="yes"/>
      <point x="10" y="422"/>
      <point x="84" y="352"/>
      <point x="195" y="352" type="curve"/>
    </contour>
  </outline>
</glyph>
<glyph name="periodcentered" format="1">
  <advance width="247"/>
  <unicode hex="00B7"/>
  <outline>
    <contour>
      <point x="169" y="347" type="line"/>
      <point x="78" y="347" type="line"/>
      <point x="78" y="255" type="line"/>
      <point x="169" y="255" type="line"/>
    </contour>
  </outline>
</glyph>
<glyph name="cedilla" format="1">
  <advance width="271"/>
  <unicode hex="00B8"/>
  <outline>
    <contour>
      <point x="167" y="0" type="line"/>
      <point x="129" y="0" type="line"/>
      <point x="91" y="-55" type="line"/>
      <point x="97" y="-74" type="line"/>
      <point x="138" y="-86"/>
      <point x="157" y="-102"/>
      <point x="157" y="-128" type="curve" smooth="yes"/>
      <point x="157" y="-152"/>
      <point x="142" y="-165"/>
      <point x="116" y="-165" type="curve" smooth="yes"/>
      <point x="99" y="-165"/>
      <point x="80" y="-160"/>
      <point x="68" y="-153" type="curve"/>
      <point x="52" y="-188" type="line"/>
      <point x="73" y="-201"/>
      <point x="104" y="-212"/>
      <point x="135" y="-212" type="curve" smooth="yes"/>
      <point x="181" y="-212"/>
      <point x="219" y="-184"/>
      <point x="219" y="-129" type="curve" smooth="yes"/>
      <point x="219" y="-94"/>
      <point x="189" y="-59"/>
      <point x="151" y="-46" type="curve"/>
    </contour>
  </outline>
</glyph>
<glyph name="onesuperior" format="1">
  <advance width="259"/>
  <unicode hex="00B9"/>
  <outline>
    <contour>
      <point x="21" y="760" type="line"/>
      <point x="125" y="789" type="line"/>
      <point x="125" y="420" type="line"/>
      <point x="210" y="420" type="line"/>
      <point x="210" y="860" type="line"/>
      <point x="154" y="869" type="line"/>
      <point x="6" y="808" type="line"/>
    </contour>
  </outline>
</glyph>
<glyph name="ordmasculine" format="1">
  <advance width="368"/>
  <unicode hex="00BA"/>
  <outline>
    <contour>
      <point x="23" y="426"/>
      <point x="83" y="361"/>
      <point x="185" y="361" type="curve" smooth="yes"/>
      <point x="286" y="361"/>
      <point x="345" y="426"/>
      <point x="345" y="538" type="curve" smooth="yes"/>
      <point x="345" y="648"/>
      <point x="287" y="713"/>
      <point x="185" y="713" type="curve" smooth="yes"/>
      <point x="83" y="713"/>
      <point x="23" y="648"/>
      <point x="23" y="538" type="curve" smooth="yes"/>
    </contour>
    <contour>
      <point x="279" y="460"/>
      <point x="245" y="417"/>
      <point x="185" y="417" type="curve" smooth="yes"/>
      <point x="124" y="417"/>
      <point x="90" y="460"/>
      <point x="90" y="538" type="curve" smooth="yes"/>
      <point x="90" y="615"/>
      <point x="123" y="658"/>
      <point x="185" y="658" type="curve" smooth="yes"/>
      <point x="246" y="658"/>
      <point x="279" y="615"/>
      <point x="279" y="538" type="curve" smooth="yes"/>
    </contour>
  </outline>
</glyph>
<glyph name="guillemotright" format="1">
  <advance width="594"/>
  <unicode hex="00BB"/>
  <outline>
    <contour>
      <point x="207" y="261" type="line"/>
      <point x="81" y="74" type="line"/>
      <point x="142" y="26" type="line"/>
      <point x="297" y="261" type="line"/>
      <point x="142" y="497" type="line"/>
      <point x="80" y="451" type="line"/>
    </contour>
    <contour>
      <point x="440" y="261" type="line"/>
      <point x="312" y="74" type="line"/>
      <point x="375" y="26" type="line"/>
      <point x="529" y="261" type="line"/>
      <point x="374" y="497" type="line"/>
      <point x="311" y="451" type="line"/>
    </contour>
  </outline>
</glyph>
<glyph name="questiondown" format="1">
  <advance width="409"/>
  <unicode hex="00BF"/>
  <outline>
    <contour>
      <point x="216" y="421" type="line"/>
      <point x="307" y="421" type="line"/>
      <point x="307" y="512" type="line"/>
      <point x="216" y="512" type="line"/>
    </contour>
    <contour>
      <point x="104" y="132"/>
      <point x="304" y="62"/>
      <point x="304" y="360" type="curve"/>
      <point x="221" y="360" type="line"/>
      <point x="221" y="106"/>
      <point x="17" y="182"/>
      <point x="17" y="-25" type="curve" smooth="yes"/>
      <point x="17" y="-138"/>
      <point x="96" y="-206"/>
      <point x="230" y="-206" type="curve" smooth="yes"/>
      <point x="287" y="-206"/>
      <point x="352" y="-190"/>
      <point x="411" y="-160" type="curve"/>
      <point x="382" y="-90" type="line"/>
      <point x="321" y="-116"/>
      <point x="271" y="-128"/>
      <point x="230" y="-128" type="curve" smooth="yes"/>
      <point x="152" y="-128"/>
      <point x="104" y="-88"/>
      <point x="104" y="-25" type="curve" smooth="yes"/>
    </contour>
  </outline>
</glyph>
<glyph name="Agrave" format="1">
  <advance width="645"/>
  <unicode hex="00C0"/>
  <outline>
    <contour>
      <point x="350" y="795" type="line"/>
      <point x="217" y="955" type="line"/>
      <point x="163" y="899" type="line"/>
      <point x="316" y="764" type="line"/>
    </contour>
    <contour>
      <point x="630" y="0" type="line"/>
      <point x="374" y="707" type="line"/>
      <point x="265" y="707" type="line"/>
      <point x="16" y="0" type="line"/>
      <point x="104" y="0" type="line"/>
      <point x="178" y="211" type="line"/>
      <point x="468" y="211" type="line"/>
      <point x="545" y="0" type="line"/>
    </contour>
    <contour>
      <point x="205" y="288" type="line"/>
      <point x="318" y="618" type="line"/>
      <point x="324" y="618" type="line"/>
      <point x="441" y="288" type="line"/>
    </contour>
  </outline>
</glyph>
<glyph name="Aacute" format="1">
  <advance width="644"/>
  <unicode hex="00C1"/>
  <outline>
    <contour>
      <point x="405" y="959" type="line"/>
      <point x="272" y="795" type="line"/>
      <point x="309" y="761" type="line"/>
      <point x="465" y="897" type="line"/>
    </contour>
    <contour>
      <point x="631" y="0" type="line"/>
      <point x="378" y="708" type="line"/>
      <point x="258" y="708" type="line"/>
      <point x="14" y="0" type="line"/>
      <point x="111" y="0" type="line"/>
      <point x="181" y="205" type="line"/>
      <point x="464" y="205" type="line"/>
      <point x="537" y="0" type="line"/>
    </contour>
    <contour>
      <point x="210" y="290" type="line"/>
      <point x="317" y="609" type="line"/>
      <point x="323" y="609" type="line"/>
      <point x="434" y="290" type="line"/>
    </contour>
  </outline>
</glyph>
<glyph name="Acircumflex" format="1">
  <advance width="645"/>
  <unicode hex="00C2"/>
  <outline>
    <contour>
      <point x="471" y="795" type="line"/>
      <point x="338" y="929" type="line"/>
      <point x="304" y="929" type="line"/>
      <point x="171" y="795" type="line"/>
      <point x="205" y="764" type="line"/>
      <point x="320" y="856" type="line"/>
      <point x="437" y="764" type="line"/>
    </contour>
    <contour>
      <point x="630" y="0" type="line"/>
      <point x="374" y="707" type="line"/>
      <point x="265" y="707" type="line"/>
      <point x="16" y="0" type="line"/>
      <point x="104" y="0" type="line"/>
      <point x="178" y="211" type="line"/>
      <point x="468" y="211" type="line"/>
      <point x="545" y="0" type="line"/>
    </contour>
    <contour>
      <point x="205" y="288" type="line"/>
      <point x="318" y="618" type="line"/>
      <point x="324" y="618" type="line"/>
      <point x="441" y="288" type="line"/>
    </contour>
  </outline>
</glyph>
<glyph name="Atilde" format="1">
  <advance width="644"/>
  <unicode hex="00C3"/>
  <outline>
    <contour>
      <point x="180" y="912"/>
      <point x="136" y="865"/>
      <point x="136" y="793" type="curve"/>
      <point x="200" y="793" type="line"/>
      <point x="200" y="824"/>
      <point x="219" y="843"/>
      <point x="248" y="843" type="curve" smooth="yes"/>
      <point x="300" y="843"/>
      <point x="312" y="784"/>
      <point x="388" y="784" type="curve" smooth="yes"/>
      <point x="453" y="784"/>
      <point x="496" y="831"/>
      <point x="496" y="903" type="curve"/>
      <point x="432" y="903" type="line"/>
      <point x="432" y="873"/>
      <point x="416" y="854"/>
      <point x="391" y="854" type="curve" smooth="yes"/>
      <point x="335" y="854"/>
      <point x="327" y="912"/>
      <point x="249" y="912" type="curve" smooth="yes"/>
    </contour>
    <contour>
      <point x="631" y="0" type="line"/>
      <point x="378" y="708" type="line"/>
      <point x="258" y="708" type="line"/>
      <point x="14" y="0" type="line"/>
      <point x="111" y="0" type="line"/>
      <point x="181" y="205" type="line"/>
      <point x="464" y="205" type="line"/>
      <point x="537" y="0" type="line"/>
    </contour>
    <contour>
      <point x="210" y="290" type="line"/>
      <point x="317" y="609" type="line"/>
      <point x="323" y="609" type="line"/>
      <point x="434" y="290" type="line"/>
    </contour>
  </outline>
</glyph>
<glyph name="Adieresis" format="1">
  <advance width="644"/>
  <unicode hex="00C4"/>
  <outline>
    <contour>
      <point x="275" y="890" type="line"/>
      <point x="182" y="890" type="line"/>
      <point x="182" y="797" type="line"/>
      <point x="275" y="797" type="line"/>
    </contour>
    <contour>
      <point x="456" y="890" type="line"/>
      <point x="364" y="890" type="line"/>
      <point x="364" y="797" type="line"/>
      <point x="456" y="797" type="line"/>
    </contour>
    <contour>
      <point x="631" y="0" type="line"/>
      <point x="378" y="708" type="line"/>
      <point x="258" y="708" type="line"/>
      <point x="14" y="0" type="line"/>
      <point x="111" y="0" type="line"/>
      <point x="181" y="205" type="line"/>
      <point x="464" y="205" type="line"/>
      <point x="537" y="0" type="line"/>
    </contour>
    <contour>
      <point x="210" y="290" type="line"/>
      <point x="317" y="609" type="line"/>
      <point x="323" y="609" type="line"/>
      <point x="434" y="290" type="line"/>
    </contour>
  </outline>
</glyph>
<glyph name="Aring" format="1">
  <advance width="644"/>
  <unicode hex="00C5"/>
  <outline>
    <contour>
      <point x="247" y="1020"/>
      <point x="186" y="961"/>
      <point x="186" y="891" type="curve" smooth="yes"/>
      <point x="186" y="821"/>
      <point x="247" y="762"/>
      <point x="320" y="762" type="curve" smooth="yes"/>
      <point x="393" y="762"/>
      <point x="454" y="821"/>
      <point x="454" y="891" type="curve" smooth="yes"/>
      <point x="454" y="961"/>
      <point x="393" y="1020"/>
      <point x="320" y="1020" type="curve" smooth="yes"/>
    </contour>
    <contour>
      <point x="355" y="954"/>
      <point x="383" y="926"/>
      <point x="383" y="891" type="curve" smooth="yes"/>
      <point x="383" y="856"/>
      <point x="355" y="827"/>
      <point x="320" y="827" type="curve" smooth="yes"/>
      <point x="285" y="827"/>
      <point x="256" y="856"/>
      <point x="256" y="891" type="curve" smooth="yes"/>
      <point x="256" y="926"/>
      <point x="285" y="954"/>
      <point x="320" y="954" type="curve" smooth="yes"/>
    </contour>
    <contour>
      <point x="631" y="0" type="line"/>
      <point x="378" y="708" type="line"/>
      <point x="258" y="708" type="line"/>
      <point x="14" y="0" type="line"/>
      <point x="111" y="0" type="line"/>
      <point x="181" y="205" type="line"/>
      <point x="464" y="205" type="line"/>
      <point x="537" y="0" type="line"/>
    </contour>
    <contour>
      <point x="210" y="290" type="line"/>
      <point x="317" y="609" type="line"/>
      <point x="323" y="609" type="line"/>
      <point x="434" y="290" type="line"/>
    </contour>
  </outline>
</glyph>
<glyph name="AE" format="1">
  <advance width="948"/>
  <unicode hex="00C6"/>
  <outline>
    <contour>
      <point x="913" y="83" type="line"/>
      <point x="586" y="83" type="line"/>
      <point x="586" y="330" type="line"/>
      <point x="869" y="330" type="line"/>
      <point x="869" y="412" type="line"/>
      <point x="586" y="412" type="line"/>
      <point x="586" y="627" type="line"/>
      <point x="902" y="627" type="line"/>
      <point x="902" y="708" type="line"/>
      <point x="423" y="708" type="line"/>
      <point x="14" y="0" type="line"/>
      <point x="116" y="0" type="line"/>
      <point x="236" y="208" type="line"/>
      <point x="491" y="208" type="line"/>
      <point x="491" y="0" type="line"/>
      <point x="913" y="0" type="line"/>
    </contour>
    <contour>
      <point x="491" y="288" type="line"/>
      <point x="282" y="288" type="line"/>
      <point x="491" y="649" type="line"/>
    </contour>
  </outline>
</glyph>
<glyph name="Ccedilla" format="1">
  <advance width="619"/>
  <unicode hex="00C7"/>
  <outline>
    <contour>
      <point x="382" y="-7" type="line"/>
      <point x="452" y="-7"/>
      <point x="531" y="11"/>
      <point x="597" y="42" type="curve"/>
      <point x="565" y="116" type="line"/>
      <point x="504" y="89"/>
      <point x="441" y="75"/>
      <point x="382" y="75" type="curve" smooth="yes"/>
      <point x="228" y="75"/>
      <point x="141" y="175"/>
      <point x="141" y="356" type="curve" smooth="yes"/>
      <point x="141" y="533"/>
      <point x="229" y="633"/>
      <point x="385" y="633" type="curve" smooth="yes"/>
      <point x="442" y="633"/>
      <point x="493" y="619"/>
      <point x="556" y="586" type="curve"/>
      <point x="592" y="656" type="line"/>
      <point x="529" y="695"/>
      <point x="457" y="715"/>
      <point x="385" y="715" type="curve" smooth="yes"/>
      <point x="175" y="715"/>
      <point x="50" y="581"/>
      <point x="50" y="356" type="curve" smooth="yes"/>
      <point x="50" y="135"/>
      <point x="153" y="9"/>
      <point x="342" y="-6" type="curve"/>
      <point x="308" y="-55" type="line"/>
      <point x="314" y="-74" type="line"/>
      <point x="355" y="-86"/>
      <point x="374" y="-102"/>
      <point x="374" y="-128" type="curve" smooth="yes"/>
      <point x="374" y="-152"/>
      <point x="359" y="-165"/>
      <point x="333" y="-165" type="curve" smooth="yes"/>
      <point x="316" y="-165"/>
      <point x="297" y="-160"/>
      <point x="285" y="-153" type="curve"/>
      <point x="269" y="-188" type="line"/>
      <point x="290" y="-201"/>
      <point x="321" y="-212"/>
      <point x="352" y="-212" type="curve" smooth="yes"/>
      <point x="398" y="-212"/>
      <point x="436" y="-184"/>
      <point x="436" y="-129" type="curve" smooth="yes"/>
      <point x="436" y="-94"/>
      <point x="406" y="-59"/>
      <point x="368" y="-46" type="curve"/>
    </contour>
  </outline>
</glyph>
<glyph name="Egrave" format="1">
  <advance width="558"/>
  <unicode hex="00C8"/>
  <outline>
    <contour>
      <point x="340" y="795" type="line"/>
      <point x="207" y="955" type="line"/>
      <point x="153" y="899" type="line"/>
      <point x="306" y="764" type="line"/>
    </contour>
    <contour>
      <point x="512" y="707" type="line"/>
      <point x="95" y="707" type="line"/>
      <point x="95" y="0" type="line"/>
      <point x="523" y="0" type="line"/>
      <point x="523" y="77" type="line"/>
      <point x="182" y="77" type="line"/>
      <point x="182" y="332" type="line"/>
      <point x="480" y="332" type="line"/>
      <point x="480" y="409" type="line"/>
      <point x="182" y="409" type="line"/>
      <point x="182" y="630" type="line"/>
      <point x="512" y="630" type="line"/>
    </contour>
  </outline>
</glyph>
<glyph name="Eacute" format="1">
  <advance width="558"/>
  <unicode hex="00C9"/>
  <outline>
    <contour>
      <point x="398" y="955" type="line"/>
      <point x="265" y="795" type="line"/>
      <point x="299" y="764" type="line"/>
      <point x="452" y="899" type="line"/>
    </contour>
    <contour>
      <point x="512" y="707" type="line"/>
      <point x="95" y="707" type="line"/>
      <point x="95" y="0" type="line"/>
      <point x="523" y="0" type="line"/>
      <point x="523" y="77" type="line"/>
      <point x="182" y="77" type="line"/>
      <point x="182" y="332" type="line"/>
      <point x="480" y="332" type="line"/>
      <point x="480" y="409" type="line"/>
      <point x="182" y="409" type="line"/>
      <point x="182" y="630" type="line"/>
      <point x="512" y="630" type="line"/>
    </contour>
  </outline>
</glyph>
<glyph name="Ecircumflex" format="1">
  <advance width="560"/>
  <unicode hex="00CA"/>
  <outline>
    <contour>
      <point x="462" y="795" type="line"/>
      <point x="329" y="929" type="line"/>
      <point x="292" y="929" type="line"/>
      <point x="159" y="795" type="line"/>
      <point x="196" y="761" type="line"/>
      <point x="310" y="849" type="line"/>
      <point x="425" y="761" type="line"/>
    </contour>
    <contour>
      <point x="514" y="708" type="line"/>
      <point x="93" y="708" type="line"/>
      <point x="93" y="0" type="line"/>
      <point x="525" y="0" type="line"/>
      <point x="525" y="85" type="line"/>
      <point x="189" y="85" type="line"/>
      <point x="189" y="328" type="line"/>
      <point x="481" y="328" type="line"/>
      <point x="481" y="413" type="line"/>
      <point x="189" y="413" type="line"/>
      <point x="189" y="623" type="line"/>
      <point x="514" y="623" type="line"/>
    </contour>
  </outline>
</glyph>
<glyph name="Edieresis" format="1">
  <advance width="558"/>
  <unicode hex="00CB"/>
  <outline>
    <contour>
      <point x="262" y="888" type="line"/>
      <point x="176" y="888" type="line"/>
      <point x="176" y="802" type="line"/>
      <point x="262" y="802" type="line"/>
    </contour>
    <contour>
      <point x="445" y="888" type="line"/>
      <point x="360" y="888" type="line"/>
      <point x="360" y="802" type="line"/>
      <point x="445" y="802" type="line"/>
    </contour>
    <contour>
      <point x="512" y="707" type="line"/>
      <point x="95" y="707" type="line"/>
      <point x="95" y="0" type="line"/>
      <point x="523" y="0" type="line"/>
      <point x="523" y="77" type="line"/>
      <point x="182" y="77" type="line"/>
      <point x="182" y="332" type="line"/>
      <point x="480" y="332" type="line"/>
      <point x="480" y="409" type="line"/>
      <point x="182" y="409" type="line"/>
      <point x="182" y="630" type="line"/>
      <point x="512" y="630" type="line"/>
    </contour>
  </outline>
</glyph>
<glyph name="Igrave" format="1">
  <advance width="278"/>
  <unicode hex="00CC"/>
  <outline>
    <contour>
      <point x="170" y="795" type="line"/>
      <point x="37" y="955" type="line"/>
      <point x="-17" y="899" type="line"/>
      <point x="136" y="764" type="line"/>
    </contour>
    <contour>
      <point x="182" y="707" type="line"/>
      <point x="95" y="707" type="line"/>
      <point x="95" y="0" type="line"/>
      <point x="182" y="0" type="line"/>
    </contour>
  </outline>
</glyph>
<glyph name="Iacute" format="1">
  <advance width="278"/>
  <unicode hex="00CD"/>
  <outline>
    <contour>
      <point x="228" y="955" type="line"/>
      <point x="95" y="795" type="line"/>
      <point x="129" y="764" type="line"/>
      <point x="282" y="899" type="line"/>
    </contour>
    <contour>
      <point x="182" y="707" type="line"/>
      <point x="95" y="707" type="line"/>
      <point x="95" y="0" type="line"/>
      <point x="182" y="0" type="line"/>
    </contour>
  </outline>
</glyph>
<glyph name="Icircumflex" format="1">
  <advance width="278"/>
  <unicode hex="00CE"/>
  <outline>
    <contour>
      <point x="290" y="795" type="line"/>
      <point x="157" y="929" type="line"/>
      <point x="123" y="929" type="line"/>
      <point x="-10" y="795" type="line"/>
      <point x="24" y="764" type="line"/>
      <point x="139" y="856" type="line"/>
      <point x="256" y="764" type="line"/>
    </contour>
    <contour>
      <point x="182" y="707" type="line"/>
      <point x="95" y="707" type="line"/>
      <point x="95" y="0" type="line"/>
      <point x="182" y="0" type="line"/>
    </contour>
  </outline>
</glyph>
<glyph name="Idieresis" format="1">
  <advance width="282"/>
  <unicode hex="00CF"/>
  <outline>
    <contour>
      <point x="98" y="890" type="line"/>
      <point x="5" y="890" type="line"/>
      <point x="5" y="797" type="line"/>
      <point x="98" y="797" type="line"/>
    </contour>
    <contour>
      <point x="279" y="890" type="line"/>
      <point x="187" y="890" type="line"/>
      <point x="187" y="797" type="line"/>
      <point x="279" y="797" type="line"/>
    </contour>
    <contour>
      <point x="189" y="708" type="line"/>
      <point x="93" y="708" type="line"/>
      <point x="93" y="0" type="line"/>
      <point x="189" y="0" type="line"/>
    </contour>
  </outline>
</glyph>
<glyph name="Eth" format="1">
  <advance width="711"/>
  <unicode hex="00D0"/>
  <outline>
    <contour>
      <point x="96" y="707" type="line"/>
      <point x="96" y="394" type="line"/>
      <point x="11" y="394" type="line"/>
      <point x="11" y="317" type="line"/>
      <point x="96" y="317" type="line"/>
      <point x="96" y="0" type="line"/>
      <point x="321" y="0" type="line" smooth="yes"/>
      <point x="537" y="0"/>
      <point x="660" y="129"/>
      <point x="660" y="356" type="curve" smooth="yes"/>
      <point x="660" y="583"/>
      <point x="540" y="707"/>
      <point x="321" y="707" type="curve" smooth="yes"/>
    </contour>
    <contour>
      <point x="182" y="77" type="line"/>
      <point x="182" y="317" type="line"/>
      <point x="333" y="317" type="line"/>
      <point x="333" y="394" type="line"/>
      <point x="182" y="394" type="line"/>
      <point x="182" y="630" type="line"/>
      <point x="321" y="630" type="line" smooth="yes"/>
      <point x="483" y="630"/>
      <point x="570" y="535"/>
      <point x="570" y="356" type="curve" smooth="yes"/>
      <point x="570" y="175"/>
      <point x="481" y="77"/>
      <point x="321" y="77" type="curve" smooth="yes"/>
    </contour>
  </outline>
</glyph>
<glyph name="Ntilde" format="1">
  <advance width="739"/>
  <unicode hex="00D1"/>
  <outline>
    <contour>
      <point x="358" y="849"/>
      <point x="369" y="786"/>
      <point x="446" y="786" type="curve" smooth="yes"/>
      <point x="510" y="786"/>
      <point x="552" y="831"/>
      <point x="552" y="903" type="curve"/>
      <point x="494" y="903" type="line"/>
      <point x="494" y="870"/>
      <point x="476" y="850"/>
      <point x="448" y="850" type="curve" smooth="yes"/>
      <point x="390" y="850"/>
      <point x="383" y="912"/>
      <point x="304" y="912" type="curve" smooth="yes"/>
      <point x="237" y="912"/>
      <point x="194" y="866"/>
      <point x="194" y="795" type="curve"/>
      <point x="252" y="795" type="line"/>
      <point x="252" y="829"/>
      <point x="272" y="849"/>
      <point x="304" y="849" type="curve" smooth="yes"/>
    </contour>
    <contour>
      <point x="643" y="707" type="line"/>
      <point x="561" y="707" type="line"/>
      <point x="561" y="138" type="line"/>
      <point x="521" y="202"/>
      <point x="482" y="265"/>
      <point x="439" y="326" type="curve" smooth="yes"/>
      <point x="169" y="707" type="line"/>
      <point x="95" y="707" type="line"/>
      <point x="95" y="0" type="line"/>
      <point x="178" y="0" type="line"/>
      <point x="178" y="570" type="line"/>
      <point x="215" y="510"/>
      <point x="251" y="450"/>
      <point x="292" y="393" type="curve" smooth="yes"/>
      <point x="570" y="0" type="line"/>
      <point x="643" y="0" type="line"/>
    </contour>
  </outline>
</glyph>
<glyph name="Oacute" format="1">
  <advance width="739"/>
  <unicode hex="00D3"/>
  <outline>
    <contour>
      <point x="453" y="959" type="line"/>
      <point x="320" y="795" type="line"/>
      <point x="357" y="761" type="line"/>
      <point x="513" y="897" type="line"/>
    </contour>
    <contour>
      <point x="165" y="716"/>
      <point x="48" y="586"/>
      <point x="48" y="357" type="curve" smooth="yes"/>
      <point x="48" y="120"/>
      <point x="162" y="-10"/>
      <point x="370" y="-10" type="curve" smooth="yes"/>
      <point x="577" y="-10"/>
      <point x="691" y="121"/>
      <point x="691" y="357" type="curve" smooth="yes"/>
      <point x="691" y="585"/>
      <point x="574" y="716"/>
      <point x="370" y="716" type="curve" smooth="yes"/>
    </contour>
    <contour>
      <point x="512" y="626"/>
      <point x="591" y="530"/>
      <point x="591" y="357" type="curve" smooth="yes"/>
      <point x="591" y="179"/>
      <point x="512" y="80"/>
      <point x="370" y="80" type="curve" smooth="yes"/>
      <point x="227" y="80"/>
      <point x="148" y="178"/>
      <point x="148" y="357" type="curve" smooth="yes"/>
      <point x="148" y="531"/>
      <point x="226" y="626"/>
      <point x="370" y="626" type="curve" smooth="yes"/>
    </contour>
  </outline>
</glyph>
<glyph name="Otilde" format="1">
  <advance width="742"/>
  <unicode hex="00D5"/>
  <outline>
    <contour>
      <point x="230" y="912"/>
      <point x="187" y="866"/>
      <point x="187" y="795" type="curve"/>
      <point x="245" y="795" type="line"/>
      <point x="245" y="829"/>
      <point x="265" y="849"/>
      <point x="297" y="849" type="curve" smooth="yes"/>
      <point x="351" y="849"/>
      <point x="362" y="786"/>
      <point x="439" y="786" type="curve" smooth="yes"/>
      <point x="503" y="786"/>
      <point x="545" y="831"/>
      <point x="545" y="903" type="curve"/>
      <point x="487" y="903" type="line"/>
      <point x="487" y="870"/>
      <point x="469" y="850"/>
      <point x="441" y="850" type="curve" smooth="yes"/>
      <point x="383" y="850"/>
      <point x="376" y="912"/>
      <point x="297" y="912" type="curve" smooth="yes"/>
    </contour>
    <contour>
      <point x="167" y="715"/>
      <point x="50" y="585"/>
      <point x="50" y="356" type="curve" smooth="yes"/>
      <point x="50" y="121"/>
      <point x="165" y="-9"/>
      <point x="371" y="-9" type="curve" smooth="yes"/>
      <point x="577" y="-9"/>
      <point x="692" y="122"/>
      <point x="692" y="356" type="curve" smooth="yes"/>
      <point x="692" y="584"/>
      <point x="575" y="715"/>
      <point x="371" y="715" type="curve" smooth="yes"/>
    </contour>
    <contour>
      <point x="518" y="633"/>
      <point x="601" y="534"/>
      <point x="601" y="356" type="curve" smooth="yes"/>
      <point x="601" y="174"/>
      <point x="518" y="72"/>
      <point x="371" y="72" type="curve" smooth="yes"/>
      <point x="223" y="72"/>
      <point x="141" y="173"/>
      <point x="141" y="356" type="curve" smooth="yes"/>
      <point x="141" y="535"/>
      <point x="222" y="633"/>
      <point x="371" y="633" type="curve" smooth="yes"/>
    </contour>
  </outline>
</glyph>
<glyph name="Odieresis" format="1">
  <advance width="742"/>
  <unicode hex="00D6"/>
  <outline>
    <contour>
      <point x="321" y="888" type="line"/>
      <point x="235" y="888" type="line"/>
      <point x="235" y="802" type="line"/>
      <point x="321" y="802" type="line"/>
    </contour>
    <contour>
      <point x="504" y="888" type="line"/>
      <point x="419" y="888" type="line"/>
      <point x="419" y="802" type="line"/>
      <point x="504" y="802" type="line"/>
    </contour>
    <contour>
      <point x="167" y="715"/>
      <point x="50" y="585"/>
      <point x="50" y="356" type="curve" smooth="yes"/>
      <point x="50" y="121"/>
      <point x="165" y="-9"/>
      <point x="371" y="-9" type="curve" smooth="yes"/>
      <point x="577" y="-9"/>
      <point x="692" y="122"/>
      <point x="692" y="356" type="curve" smooth="yes"/>
      <point x="692" y="584"/>
      <point x="575" y="715"/>
      <point x="371" y="715" type="curve" smooth="yes"/>
    </contour>
    <contour>
      <point x="518" y="633"/>
      <point x="601" y="534"/>
      <point x="601" y="356" type="curve" smooth="yes"/>
      <point x="601" y="174"/>
      <point x="518" y="72"/>
      <point x="371" y="72" type="curve" smooth="yes"/>
      <point x="223" y="72"/>
      <point x="141" y="173"/>
      <point x="141" y="356" type="curve" smooth="yes"/>
      <point x="141" y="535"/>
      <point x="222" y="633"/>
      <point x="371" y="633" type="curve" smooth="yes"/>
    </contour>
  </outline>
</glyph>
<glyph name="multiply" format="1">
  <advance width="544"/>
  <unicode hex="00D7"/>
  <outline>
    <contour>
      <point x="221" y="297" type="line"/>
      <point x="60" y="136" type="line"/>
      <point x="111" y="85" type="line"/>
      <point x="271" y="246" type="line"/>
      <point x="433" y="85" type="line"/>
      <point x="484" y="136" type="line"/>
      <point x="322" y="297" type="line"/>
      <point x="484" y="459" type="line"/>
      <point x="433" y="510" type="line"/>
      <point x="271" y="348" type="line"/>
      <point x="111" y="510" type="line"/>
      <point x="60" y="459" type="line"/>
    </contour>
  </outline>
</glyph>
<glyph name="Oslash" format="1">
  <advance width="742"/>
  <unicode hex="00D8"/>
  <outline>
    <contour>
      <point x="579" y="743" type="line"/>
      <point x="504" y="743" type="line"/>
      <point x="485" y="699" type="line"/>
      <point x="451" y="710"/>
      <point x="413" y="715"/>
      <point x="372" y="715" type="curve" smooth="yes"/>
      <point x="167" y="715"/>
      <point x="51" y="585"/>
      <point x="51" y="356" type="curve" smooth="yes"/>
      <point x="51" y="202"/>
      <point x="100" y="93"/>
      <point x="193" y="36" type="curve"/>
      <point x="160" y="-38" type="line"/>
      <point x="237" y="-38" type="line"/>
      <point x="257" y="7" type="line"/>
      <point x="291" y="-4"/>
      <point x="330" y="-9"/>
      <point x="372" y="-9" type="curve" smooth="yes"/>
      <point x="577" y="-9"/>
      <point x="692" y="122"/>
      <point x="692" y="356" type="curve" smooth="yes"/>
      <point x="692" y="507"/>
      <point x="641" y="615"/>
      <point x="548" y="671" type="curve"/>
    </contour>
    <contour>
      <point x="141" y="535"/>
      <point x="223" y="633"/>
      <point x="372" y="633" type="curve" smooth="yes"/>
      <point x="401" y="633"/>
      <point x="427" y="629"/>
      <point x="451" y="622" type="curve"/>
      <point x="228" y="117" type="line"/>
      <point x="171" y="164"/>
      <point x="141" y="245"/>
      <point x="141" y="356" type="curve" smooth="yes"/>
    </contour>
    <contour>
      <point x="342" y="72"/>
      <point x="314" y="76"/>
      <point x="290" y="84" type="curve"/>
      <point x="512" y="590" type="line"/>
      <point x="570" y="545"/>
      <point x="601" y="465"/>
      <point x="601" y="356" type="curve" smooth="yes"/>
      <point x="601" y="174"/>
      <point x="519" y="72"/>
      <point x="372" y="72" type="curve" smooth="yes"/>
    </contour>
  </outline>
</glyph>
<glyph name="Ugrave" format="1">
  <advance width="710"/>
  <unicode hex="00D9"/>
  <outline>
    <contour>
      <point x="385" y="795" type="line"/>
      <point x="252" y="955" type="line"/>
      <point x="198" y="899" type="line"/>
      <point x="351" y="764" type="line"/>
    </contour>
    <contour>
      <point x="629" y="707" type="line"/>
      <point x="543" y="707" type="line"/>
      <point x="543" y="237" type="line" smooth="yes"/>
      <point x="543" y="127"/>
      <point x="482" y="72"/>
      <point x="355" y="72" type="curve" smooth="yes"/>
      <point x="228" y="72"/>
      <point x="167" y="128"/>
      <point x="167" y="237" type="curve" smooth="yes"/>
      <point x="167" y="707" type="line"/>
      <point x="81" y="707" type="line"/>
      <point x="81" y="237" type="line" smooth="yes"/>
      <point x="81" y="83"/>
      <point x="176" y="-9"/>
      <point x="355" y="-9" type="curve" smooth="yes"/>
      <point x="532" y="-9"/>
      <point x="629" y="83"/>
      <point x="629" y="237" type="curve" smooth="yes"/>
    </contour>
  </outline>
</glyph>
<glyph name="Ucircumflex" format="1">
  <advance width="709"/>
  <unicode hex="00DB"/>
  <outline>
    <contour>
      <point x="506" y="795" type="line"/>
      <point x="373" y="929" type="line"/>
      <point x="336" y="929" type="line"/>
      <point x="203" y="795" type="line"/>
      <point x="240" y="761" type="line"/>
      <point x="354" y="849" type="line"/>
      <point x="469" y="761" type="line"/>
    </contour>
    <contour>
      <point x="631" y="708" type="line"/>
      <point x="535" y="708" type="line"/>
      <point x="535" y="238" type="line" smooth="yes"/>
      <point x="535" y="132"/>
      <point x="475" y="80"/>
      <point x="354" y="80" type="curve" smooth="yes"/>
      <point x="233" y="80"/>
      <point x="174" y="132"/>
      <point x="174" y="238" type="curve" smooth="yes"/>
      <point x="174" y="708" type="line"/>
      <point x="78" y="708" type="line"/>
      <point x="78" y="238" type="line" smooth="yes"/>
      <point x="78" y="81"/>
      <point x="178" y="-9"/>
      <point x="354" y="-9" type="curve" smooth="yes"/>
      <point x="529" y="-9"/>
      <point x="631" y="82"/>
      <point x="631" y="238" type="curve" smooth="yes"/>
    </contour>
  </outline>
</glyph>
<glyph name="Udieresis" format="1">
  <advance width="710"/>
  <unicode hex="00DC"/>
  <outline>
    <contour>
      <point x="307" y="888" type="line"/>
      <point x="221" y="888" type="line"/>
      <point x="221" y="802" type="line"/>
      <point x="307" y="802" type="line"/>
    </contour>
    <contour>
      <point x="490" y="888" type="line"/>
      <point x="405" y="888" type="line"/>
      <point x="405" y="802" type="line"/>
      <point x="490" y="802" type="line"/>
    </contour>
    <contour>
      <point x="629" y="707" type="line"/>
      <point x="543" y="707" type="line"/>
      <point x="543" y="237" type="line" smooth="yes"/>
      <point x="543" y="127"/>
      <point x="482" y="72"/>
      <point x="355" y="72" type="curve" smooth="yes"/>
      <point x="228" y="72"/>
      <point x="167" y="128"/>
      <point x="167" y="237" type="curve" smooth="yes"/>
      <point x="167" y="707" type="line"/>
      <point x="81" y="707" type="line"/>
      <point x="81" y="237" type="line" smooth="yes"/>
      <point x="81" y="83"/>
      <point x="176" y="-9"/>
      <point x="355" y="-9" type="curve" smooth="yes"/>
      <point x="532" y="-9"/>
      <point x="629" y="83"/>
      <point x="629" y="237" type="curve" smooth="yes"/>
    </contour>
  </outline>
</glyph>
<glyph name="Thorn" format="1">
  <advance width="573"/>
  <unicode hex="00DE"/>
  <outline>
    <contour>
      <point x="182" y="707" type="line"/>
      <point x="96" y="707" type="line"/>
      <point x="96" y="0" type="line"/>
      <point x="182" y="0" type="line"/>
      <point x="182" y="144" type="line"/>
      <point x="302" y="144" type="line" smooth="yes"/>
      <point x="457" y="144"/>
      <point x="543" y="219"/>
      <point x="543" y="350" type="curve" smooth="yes"/>
      <point x="543" y="484"/>
      <point x="460" y="557"/>
      <point x="302" y="557" type="curve" smooth="yes"/>
      <point x="182" y="557" type="line"/>
    </contour>
    <contour>
      <point x="182" y="221" type="line"/>
      <point x="182" y="480" type="line"/>
      <point x="302" y="480" type="line" smooth="yes"/>
      <point x="404" y="480"/>
      <point x="452" y="437"/>
      <point x="452" y="350" type="curve" smooth="yes"/>
      <point x="452" y="264"/>
      <point x="403" y="221"/>
      <point x="302" y="221" type="curve" smooth="yes"/>
    </contour>
  </outline>
</glyph>
<glyph name="germandbls" format="1">
  <advance width="568"/>
  <unicode hex="00DF"/>
  <outline>
    <contour>
      <point x="86" y="0" type="line"/>
      <point x="171" y="0" type="line"/>
      <point x="171" y="557" type="line" smooth="yes"/>
      <point x="171" y="618"/>
      <point x="212" y="654"/>
      <point x="284" y="654" type="curve" smooth="yes"/>
      <point x="348" y="654"/>
      <point x="382" y="626"/>
      <point x="382" y="571" type="curve" smooth="yes"/>
      <point x="382" y="489"/>
      <point x="271" y="471"/>
      <point x="271" y="376" type="curve" smooth="yes"/>
      <point x="271" y="241"/>
      <point x="456" y="276"/>
      <point x="456" y="167" type="curve" smooth="yes"/>
      <point x="456" y="104"/>
      <point x="415" y="73"/>
      <point x="336" y="73" type="curve" smooth="yes"/>
      <point x="252" y="73" type="line"/>
      <point x="252" y="0" type="line"/>
      <point x="341" y="0" type="line" smooth="yes"/>
      <point x="468" y="0"/>
      <point x="543" y="61"/>
      <point x="543" y="166" type="curve" smooth="yes"/>
      <point x="543" y="316"/>
      <point x="362" y="316"/>
      <point x="362" y="381" type="curve" smooth="yes"/>
      <point x="362" y="445"/>
      <point x="469" y="468"/>
      <point x="469" y="576" type="curve" smooth="yes"/>
      <point x="469" y="669"/>
      <point x="397" y="729"/>
      <point x="288" y="729" type="curve" smooth="yes"/>
      <point x="157" y="729"/>
      <point x="86" y="666"/>
      <point x="86" y="553" type="curve" smooth="yes"/>
    </contour>
  </outline>
</glyph>
<glyph name="acircumflex" format="1">
  <advance width="524"/>
  <unicode hex="00E2"/>
  <outline>
    <contour>
      <point x="411" y="601" type="line"/>
      <point x="278" y="735" type="line"/>
      <point x="241" y="735" type="line"/>
      <point x="108" y="601" type="line"/>
      <point x="145" y="567" type="line"/>
      <point x="259" y="655" type="line"/>
      <point x="374" y="567" type="line"/>
    </contour>
    <contour>
      <point x="194" y="522"/>
      <point x="124" y="506"/>
      <point x="64" y="478" type="curve"/>
      <point x="90" y="402" type="line"/>
      <point x="145" y="425"/>
      <point x="203" y="439"/>
      <point x="248" y="439" type="curve" smooth="yes"/>
      <point x="320" y="439"/>
      <point x="358" y="403"/>
      <point x="361" y="329" type="curve"/>
      <point x="361" y="315" type="line"/>
      <point x="285" y="315" type="line" smooth="yes"/>
      <point x="125" y="315"/>
      <point x="32" y="251"/>
      <point x="32" y="143" type="curve" smooth="yes"/>
      <point x="32" y="50"/>
      <point x="98" y="-10"/>
      <point x="200" y="-10" type="curve" smooth="yes"/>
      <point x="264" y="-10"/>
      <point x="320" y="14"/>
      <point x="369" y="60" type="curve"/>
      <point x="383" y="0" type="line"/>
      <point x="455" y="0" type="line"/>
      <point x="455" y="327" type="line" smooth="yes"/>
      <point x="455" y="452"/>
      <point x="383" y="522"/>
      <point x="255" y="522" type="curve" smooth="yes"/>
    </contour>
    <contour>
      <point x="361" y="243" type="line"/>
      <point x="361" y="137" type="line"/>
      <point x="328" y="99"/>
      <point x="273" y="73"/>
      <point x="217" y="73" type="curve" smooth="yes"/>
      <point x="160" y="73"/>
      <point x="126" y="99"/>
      <point x="126" y="146" type="curve" smooth="yes"/>
      <point x="126" y="207"/>
      <point x="187" y="243"/>
      <point x="291" y="243" type="curve" smooth="yes"/>
    </contour>
  </outline>
</glyph>
<glyph name="atilde" format="1">
  <advance width="524"/>
  <unicode hex="00E3"/>
  <outline>
    <contour>
      <point x="120" y="718"/>
      <point x="76" y="671"/>
      <point x="76" y="599" type="curve"/>
      <point x="140" y="599" type="line"/>
      <point x="140" y="630"/>
      <point x="159" y="649"/>
      <point x="188" y="649" type="curve" smooth="yes"/>
      <point x="240" y="649"/>
      <point x="252" y="590"/>
      <point x="328" y="590" type="curve" smooth="yes"/>
      <point x="393" y="590"/>
      <point x="436" y="637"/>
      <point x="436" y="709" type="curve"/>
      <point x="372" y="709" type="line"/>
      <point x="372" y="679"/>
      <point x="356" y="660"/>
      <point x="331" y="660" type="curve" smooth="yes"/>
      <point x="275" y="660"/>
      <point x="267" y="718"/>
      <point x="189" y="718" type="curve" smooth="yes"/>
    </contour>
    <contour>
      <point x="194" y="522"/>
      <point x="124" y="506"/>
      <point x="64" y="478" type="curve"/>
      <point x="90" y="402" type="line"/>
      <point x="145" y="425"/>
      <point x="203" y="439"/>
      <point x="248" y="439" type="curve" smooth="yes"/>
      <point x="320" y="439"/>
      <point x="358" y="403"/>
      <point x="361" y="329" type="curve"/>
      <point x="361" y="315" type="line"/>
      <point x="285" y="315" type="line" smooth="yes"/>
      <point x="125" y="315"/>
      <point x="32" y="251"/>
      <point x="32" y="143" type="curve" smooth="yes"/>
      <point x="32" y="50"/>
      <point x="98" y="-10"/>
      <point x="200" y="-10" type="curve" smooth="yes"/>
      <point x="264" y="-10"/>
      <point x="320" y="14"/>
      <point x="369" y="60" type="curve"/>
      <point x="383" y="0" type="line"/>
      <point x="455" y="0" type="line"/>
      <point x="455" y="327" type="line" smooth="yes"/>
      <point x="455" y="452"/>
      <point x="383" y="522"/>
      <point x="255" y="522" type="curve" smooth="yes"/>
    </contour>
    <contour>
      <point x="361" y="243" type="line"/>
      <point x="361" y="137" type="line"/>
      <point x="328" y="99"/>
      <point x="273" y="73"/>
      <point x="217" y="73" type="curve" smooth="yes"/>
      <point x="160" y="73"/>
      <point x="126" y="99"/>
      <point x="126" y="146" type="curve" smooth="yes"/>
      <point x="126" y="207"/>
      <point x="187" y="243"/>
      <point x="291" y="243" type="curve" smooth="yes"/>
    </contour>
  </outline>
</glyph>
<glyph name="aring" format="1">
  <advance width="524"/>
  <unicode hex="00E5"/>
  <outline>
    <contour>
      <point x="187" y="826"/>
      <point x="126" y="767"/>
      <point x="126" y="697" type="curve" smooth="yes"/>
      <point x="126" y="627"/>
      <point x="187" y="568"/>
      <point x="260" y="568" type="curve" smooth="yes"/>
      <point x="333" y="568"/>
      <point x="394" y="627"/>
      <point x="394" y="697" type="curve" smooth="yes"/>
      <point x="394" y="767"/>
      <point x="333" y="826"/>
      <point x="260" y="826" type="curve" smooth="yes"/>
    </contour>
    <contour>
      <point x="295" y="760"/>
      <point x="323" y="732"/>
      <point x="323" y="697" type="curve" smooth="yes"/>
      <point x="323" y="662"/>
      <point x="295" y="633"/>
      <point x="260" y="633" type="curve" smooth="yes"/>
      <point x="225" y="633"/>
      <point x="196" y="662"/>
      <point x="196" y="697" type="curve" smooth="yes"/>
      <point x="196" y="732"/>
      <point x="225" y="760"/>
      <point x="260" y="760" type="curve" smooth="yes"/>
    </contour>
    <contour>
      <point x="194" y="522"/>
      <point x="124" y="506"/>
      <point x="64" y="478" type="curve"/>
      <point x="90" y="402" type="line"/>
      <point x="145" y="425"/>
      <point x="203" y="439"/>
      <point x="248" y="439" type="curve" smooth="yes"/>
      <point x="320" y="439"/>
      <point x="358" y="403"/>
      <point x="361" y="329" type="curve"/>
      <point x="361" y="315" type="line"/>
      <point x="285" y="315" type="line" smooth="yes"/>
      <point x="125" y="315"/>
      <point x="32" y="251"/>
      <point x="32" y="143" type="curve" smooth="yes"/>
      <point x="32" y="50"/>
      <point x="98" y="-10"/>
      <point x="200" y="-10" type="curve" smooth="yes"/>
      <point x="264" y="-10"/>
      <point x="320" y="14"/>
      <point x="369" y="60" type="curve"/>
      <point x="383" y="0" type="line"/>
      <point x="455" y="0" type="line"/>
      <point x="455" y="327" type="line" smooth="yes"/>
      <point x="455" y="452"/>
      <point x="383" y="522"/>
      <point x="255" y="522" type="curve" smooth="yes"/>
    </contour>
    <contour>
      <point x="361" y="243" type="line"/>
      <point x="361" y="137" type="line"/>
      <point x="328" y="99"/>
      <point x="273" y="73"/>
      <point x="217" y="73" type="curve" smooth="yes"/>
      <point x="160" y="73"/>
      <point x="126" y="99"/>
      <point x="126" y="146" type="curve" smooth="yes"/>
      <point x="126" y="207"/>
      <point x="187" y="243"/>
      <point x="291" y="243" type="curve" smooth="yes"/>
    </contour>
  </outline>
</glyph>
<glyph name="ae" format="1">
  <advance width="851"/>
  <unicode hex="00E6"/>
  <outline>
    <contour>
      <point x="812" y="243" type="line"/>
      <point x="812" y="263" type="line" smooth="yes"/>
      <point x="812" y="435"/>
      <point x="742" y="521"/>
      <point x="600" y="521" type="curve" smooth="yes"/>
      <point x="519" y="521"/>
      <point x="457" y="490"/>
      <point x="418" y="434" type="curve"/>
      <point x="390" y="489"/>
      <point x="334" y="519"/>
      <point x="256" y="519" type="curve" smooth="yes"/>
      <point x="194" y="519"/>
      <point x="127" y="504"/>
      <point x="66" y="476" type="curve"/>
      <point x="89" y="407" type="line"/>
      <point x="145" y="431"/>
      <point x="200" y="444"/>
      <point x="249" y="444" type="curve" smooth="yes"/>
      <point x="323" y="444"/>
      <point x="363" y="406"/>
      <point x="365" y="328" type="curve" smooth="yes"/>
      <point x="365" y="311" type="line"/>
      <point x="285" y="311" type="line" smooth="yes"/>
      <point x="127" y="311"/>
      <point x="35" y="248"/>
      <point x="35" y="140" type="curve" smooth="yes"/>
      <point x="35" y="48"/>
      <point x="100" y="-11"/>
      <point x="202" y="-11" type="curve" smooth="yes"/>
      <point x="281" y="-11"/>
      <point x="357" y="22"/>
      <point x="417" y="84" type="curve"/>
      <point x="456" y="25"/>
      <point x="520" y="-7"/>
      <point x="604" y="-7" type="curve" smooth="yes"/>
      <point x="665" y="-7"/>
      <point x="727" y="8"/>
      <point x="794" y="42" type="curve"/>
      <point x="767" y="106" type="line"/>
      <point x="707" y="80"/>
      <point x="659" y="68"/>
      <point x="608" y="68" type="curve" smooth="yes"/>
      <point x="510" y="68"/>
      <point x="454" y="130"/>
      <point x="450" y="243" type="curve"/>
    </contour>
    <contour>
      <point x="455" y="315" type="line"/>
      <point x="470" y="401"/>
      <point x="519" y="446"/>
      <point x="600" y="446" type="curve" smooth="yes"/>
      <point x="676" y="446"/>
      <point x="718" y="402"/>
      <point x="724" y="315" type="curve"/>
    </contour>
    <contour>
      <point x="365" y="246" type="line"/>
      <point x="365" y="134" type="line"/>
      <point x="330" y="91"/>
      <point x="273" y="64"/>
      <point x="218" y="64" type="curve" smooth="yes"/>
      <point x="155" y="64"/>
      <point x="120" y="93"/>
      <point x="120" y="142" type="curve" smooth="yes"/>
      <point x="120" y="208"/>
      <point x="182" y="246"/>
      <point x="290" y="246" type="curve" smooth="yes"/>
    </contour>
  </outline>
</glyph>
<glyph name="ccedilla" format="1">
  <advance width="470"/>
  <unicode hex="00E7"/>
  <outline>
    <contour>
      <point x="308" y="-5" type="line"/>
      <point x="355" y="-1"/>
      <point x="406" y="13"/>
      <point x="449" y="33" type="curve"/>
      <point x="424" y="108" type="line"/>
      <point x="382" y="89"/>
      <point x="333" y="77"/>
      <point x="295" y="77" type="curve" smooth="yes"/>
      <point x="194" y="77"/>
      <point x="139" y="141"/>
      <point x="139" y="258" type="curve" smooth="yes"/>
      <point x="139" y="374"/>
      <point x="193" y="440"/>
      <point x="289" y="440" type="curve" smooth="yes"/>
      <point x="330" y="440"/>
      <point x="368" y="429"/>
      <point x="411" y="405" type="curve"/>
      <point x="444" y="480" type="line"/>
      <point x="396" y="508"/>
      <point x="341" y="523"/>
      <point x="289" y="523" type="curve" smooth="yes"/>
      <point x="134" y="523"/>
      <point x="43" y="425"/>
      <point x="43" y="258" type="curve" smooth="yes"/>
      <point x="43" y="97"/>
      <point x="123" y="3"/>
      <point x="264" y="-5" type="curve"/>
      <point x="230" y="-54" type="line"/>
      <point x="236" y="-75" type="line"/>
      <point x="276" y="-87"/>
      <point x="293" y="-102"/>
      <point x="293" y="-126" type="curve" smooth="yes"/>
      <point x="293" y="-149"/>
      <point x="279" y="-162"/>
      <point x="255" y="-162" type="curve" smooth="yes"/>
      <point x="238" y="-162"/>
      <point x="221" y="-157"/>
      <point x="209" y="-150" type="curve"/>
      <point x="191" y="-188" type="line"/>
      <point x="213" y="-201"/>
      <point x="244" y="-213"/>
      <point x="276" y="-213" type="curve" smooth="yes"/>
      <point x="322" y="-213"/>
      <point x="361" y="-184"/>
      <point x="361" y="-128" type="curve" smooth="yes"/>
      <point x="361" y="-94"/>
      <point x="332" y="-58"/>
      <point x="295" y="-45" type="curve"/>
    </contour>
  </outline>
</glyph>
<glyph name="ecircumflex" format="1">
  <advance width="534"/>
  <unicode hex="00EA"/>
  <outline>
    <contour>
      <point x="165" y="569" type="line"/>
      <point x="280" y="661" type="line"/>
      <point x="397" y="569" type="line"/>
      <point x="431" y="600" type="line"/>
      <point x="298" y="734" type="line"/>
      <point x="264" y="734" type="line"/>
      <point x="131" y="600" type="line"/>
    </contour>
    <contour>
      <point x="495" y="244" type="line"/>
      <point x="495" y="264" type="line" smooth="yes"/>
      <point x="495" y="436"/>
      <point x="425" y="521"/>
      <point x="283" y="521" type="curve" smooth="yes"/>
      <point x="132" y="521"/>
      <point x="45" y="424"/>
      <point x="45" y="257" type="curve" smooth="yes"/>
      <point x="45" y="90"/>
      <point x="134" y="-7"/>
      <point x="286" y="-7" type="curve" smooth="yes"/>
      <point x="349" y="-7"/>
      <point x="410" y="9"/>
      <point x="477" y="42" type="curve"/>
      <point x="449" y="106" type="line"/>
      <point x="391" y="80"/>
      <point x="343" y="68"/>
      <point x="290" y="68" type="curve" smooth="yes"/>
      <point x="192" y="68"/>
      <point x="136" y="131"/>
      <point x="132" y="244" type="curve"/>
    </contour>
    <contour>
      <point x="137" y="316" type="line"/>
      <point x="152" y="401"/>
      <point x="202" y="446"/>
      <point x="283" y="446" type="curve" smooth="yes"/>
      <point x="359" y="446"/>
      <point x="402" y="401"/>
      <point x="407" y="316" type="curve"/>
    </contour>
  </outline>
</glyph>
<glyph name="igrave" format="1">
  <advance width="254"/>
  <unicode hex="00EC"/>
  <outline>
    <contour>
      <point x="158" y="600" type="line"/>
      <point x="25" y="760" type="line"/>
      <point x="-29" y="704" type="line"/>
      <point x="124" y="569" type="line"/>
    </contour>
    <contour>
      <point x="170" y="513" type="line"/>
      <point x="85" y="513" type="line"/>
      <point x="85" y="0" type="line"/>
      <point x="170" y="0" type="line"/>
    </contour>
  </outline>
</glyph>
<glyph name="iacute" format="1">
  <advance width="254"/>
  <unicode hex="00ED"/>
  <outline>
    <contour>
      <point x="216" y="760" type="line"/>
      <point x="83" y="600" type="line"/>
      <point x="117" y="569" type="line"/>
      <point x="270" y="704" type="line"/>
    </contour>
    <contour>
      <point x="170" y="513" type="line"/>
      <point x="85" y="513" type="line"/>
      <point x="85" y="0" type="line"/>
      <point x="170" y="0" type="line"/>
    </contour>
  </outline>
</glyph>
<glyph name="icircumflex" format="1">
  <advance width="254"/>
  <unicode hex="00EE"/>
  <outline>
    <contour>
      <point x="279" y="600" type="line"/>
      <point x="146" y="734" type="line"/>
      <point x="112" y="734" type="line"/>
      <point x="-21" y="600" type="line"/>
      <point x="13" y="569" type="line"/>
      <point x="128" y="661" type="line"/>
      <point x="245" y="569" type="line"/>
    </contour>
    <contour>
      <point x="170" y="513" type="line"/>
      <point x="85" y="513" type="line"/>
      <point x="85" y="0" type="line"/>
      <point x="170" y="0" type="line"/>
    </contour>
  </outline>
</glyph>
<glyph name="idieresis" format="1">
  <advance width="254"/>
  <unicode hex="00EF"/>
  <outline>
    <contour>
      <point x="80" y="693" type="line"/>
      <point x="-6" y="693" type="line"/>
      <point x="-6" y="607" type="line"/>
      <point x="80" y="607" type="line"/>
    </contour>
    <contour>
      <point x="263" y="693" type="line"/>
      <point x="178" y="693" type="line"/>
      <point x="178" y="607" type="line"/>
      <point x="263" y="607" type="line"/>
    </contour>
    <contour>
      <point x="170" y="513" type="line"/>
      <point x="85" y="513" type="line"/>
      <point x="85" y="0" type="line"/>
      <point x="170" y="0" type="line"/>
    </contour>
  </outline>
</glyph>
<glyph name="eth" format="1">
  <advance width="580"/>
  <unicode hex="00F0"/>
  <outline>
    <contour>
      <point x="360" y="729" type="line"/>
      <point x="310" y="761" type="line"/>
      <point x="275" y="707" type="line"/>
      <point x="240" y="726"/>
      <point x="202" y="743"/>
      <point x="162" y="757" type="curve"/>
      <point x="135" y="697" type="line"/>
      <point x="172" y="682"/>
      <point x="207" y="666"/>
      <point x="237" y="649" type="curve"/>
      <point x="189" y="574" type="line"/>
      <point x="238" y="542" type="line"/>
      <point x="287" y="618" type="line"/>
      <point x="344" y="577"/>
      <point x="386" y="529"/>
      <point x="411" y="467" type="curve"/>
      <point x="376" y="493"/>
      <point x="334" y="508"/>
      <point x="285" y="508" type="curve" smooth="yes"/>
      <point x="132" y="508"/>
      <point x="43" y="415"/>
      <point x="43" y="253" type="curve" smooth="yes"/>
      <point x="43" y="88"/>
      <point x="133" y="-8"/>
      <point x="286" y="-8" type="curve" smooth="yes"/>
      <point x="438" y="-8"/>
      <point x="527" y="102"/>
      <point x="527" y="303" type="curve" smooth="yes"/>
      <point x="527" y="474"/>
      <point x="449" y="595"/>
      <point x="326" y="677" type="curve"/>
    </contour>
    <contour>
      <point x="186" y="68"/>
      <point x="130" y="134"/>
      <point x="130" y="253" type="curve" smooth="yes"/>
      <point x="130" y="369"/>
      <point x="185" y="433"/>
      <point x="285" y="433" type="curve" smooth="yes"/>
      <point x="346" y="433"/>
      <point x="396" y="413"/>
      <point x="434" y="381" type="curve"/>
      <point x="438" y="357"/>
      <point x="440" y="331"/>
      <point x="440" y="303" type="curve" smooth="yes"/>
      <point x="440" y="147"/>
      <point x="384" y="68"/>
      <point x="286" y="68" type="curve" smooth="yes"/>
    </contour>
  </outline>
</glyph>
<glyph name="ntilde" format="1">
  <advance width="589"/>
  <unicode hex="00F1"/>
  <outline>
    <contour>
      <point x="165" y="717"/>
      <point x="122" y="671"/>
      <point x="122" y="600" type="curve"/>
      <point x="180" y="600" type="line"/>
      <point x="180" y="634"/>
      <point x="200" y="654"/>
      <point x="232" y="654" type="curve" smooth="yes"/>
      <point x="286" y="654"/>
      <point x="297" y="591"/>
      <point x="374" y="591" type="curve" smooth="yes"/>
      <point x="438" y="591"/>
      <point x="480" y="636"/>
      <point x="480" y="708" type="curve"/>
      <point x="422" y="708" type="line"/>
      <point x="422" y="675"/>
      <point x="404" y="655"/>
      <point x="376" y="655" type="curve" smooth="yes"/>
      <point x="318" y="655"/>
      <point x="311" y="717"/>
      <point x="232" y="717" type="curve" smooth="yes"/>
    </contour>
    <contour>
      <point x="153" y="513" type="line"/>
      <point x="84" y="513" type="line"/>
      <point x="84" y="0" type="line"/>
      <point x="169" y="0" type="line"/>
      <point x="169" y="364" type="line"/>
      <point x="210" y="417"/>
      <point x="266" y="446"/>
      <point x="328" y="446" type="curve" smooth="yes"/>
      <point x="399" y="446"/>
      <point x="430" y="411"/>
      <point x="430" y="332" type="curve" smooth="yes"/>
      <point x="430" y="0" type="line"/>
      <point x="515" y="0" type="line"/>
      <point x="515" y="338" type="line" smooth="yes"/>
      <point x="515" y="457"/>
      <point x="458" y="521"/>
      <point x="350" y="521" type="curve" smooth="yes"/>
      <point x="276" y="521"/>
      <point x="219" y="496"/>
      <point x="163" y="436" type="curve"/>
    </contour>
  </outline>
</glyph>
<glyph name="ograve" format="1">
  <advance width="574"/>
  <unicode hex="00F2"/>
  <outline>
    <contour>
      <point x="316" y="600" type="line"/>
      <point x="183" y="760" type="line"/>
      <point x="129" y="704" type="line"/>
      <point x="282" y="569" type="line"/>
    </contour>
    <contour>
      <point x="134" y="522"/>
      <point x="45" y="425"/>
      <point x="45" y="257" type="curve" smooth="yes"/>
      <point x="45" y="90"/>
      <point x="134" y="-8"/>
      <point x="287" y="-8" type="curve" smooth="yes"/>
      <point x="440" y="-8"/>
      <point x="529" y="90"/>
      <point x="529" y="257" type="curve" smooth="yes"/>
      <point x="529" y="425"/>
      <point x="440" y="522"/>
      <point x="287" y="522" type="curve" smooth="yes"/>
    </contour>
    <contour>
      <point x="387" y="447"/>
      <point x="442" y="379"/>
      <point x="442" y="257" type="curve" smooth="yes"/>
      <point x="442" y="136"/>
      <point x="387" y="68"/>
      <point x="287" y="68" type="curve" smooth="yes"/>
      <point x="187" y="68"/>
      <point x="132" y="136"/>
      <point x="132" y="257" type="curve" smooth="yes"/>
      <point x="132" y="379"/>
      <point x="187" y="447"/>
      <point x="287" y="447" type="curve" smooth="yes"/>
    </contour>
  </outline>
</glyph>
<glyph name="ocircumflex" format="1">
  <advance width="574"/>
  <unicode hex="00F4"/>
  <outline>
    <contour>
      <point x="437" y="600" type="line"/>
      <point x="304" y="734" type="line"/>
      <point x="270" y="734" type="line"/>
      <point x="137" y="600" type="line"/>
      <point x="171" y="569" type="line"/>
      <point x="286" y="661" type="line"/>
      <point x="403" y="569" type="line"/>
    </contour>
    <contour>
      <point x="134" y="522"/>
      <point x="45" y="425"/>
      <point x="45" y="257" type="curve" smooth="yes"/>
      <point x="45" y="90"/>
      <point x="134" y="-8"/>
      <point x="287" y="-8" type="curve" smooth="yes"/>
      <point x="440" y="-8"/>
      <point x="529" y="90"/>
      <point x="529" y="257" type="curve" smooth="yes"/>
      <point x="529" y="425"/>
      <point x="440" y="522"/>
      <point x="287" y="522" type="curve" smooth="yes"/>
    </contour>
    <contour>
      <point x="387" y="447"/>
      <point x="442" y="379"/>
      <point x="442" y="257" type="curve" smooth="yes"/>
      <point x="442" y="136"/>
      <point x="387" y="68"/>
      <point x="287" y="68" type="curve" smooth="yes"/>
      <point x="187" y="68"/>
      <point x="132" y="136"/>
      <point x="132" y="257" type="curve" smooth="yes"/>
      <point x="132" y="379"/>
      <point x="187" y="447"/>
      <point x="287" y="447" type="curve" smooth="yes"/>
    </contour>
  </outline>
</glyph>
<glyph name="otilde" format="1">
  <advance width="574"/>
  <unicode hex="00F5"/>
  <outline>
    <contour>
      <point x="147" y="717"/>
      <point x="104" y="671"/>
      <point x="104" y="600" type="curve"/>
      <point x="162" y="600" type="line"/>
      <point x="162" y="634"/>
      <point x="182" y="654"/>
      <point x="214" y="654" type="curve" smooth="yes"/>
      <point x="268" y="654"/>
      <point x="279" y="591"/>
      <point x="356" y="591" type="curve" smooth="yes"/>
      <point x="420" y="591"/>
      <point x="462" y="636"/>
      <point x="462" y="708" type="curve"/>
      <point x="404" y="708" type="line"/>
      <point x="404" y="675"/>
      <point x="386" y="655"/>
      <point x="358" y="655" type="curve" smooth="yes"/>
      <point x="300" y="655"/>
      <point x="293" y="717"/>
      <point x="214" y="717" type="curve" smooth="yes"/>
    </contour>
    <contour>
      <point x="134" y="522"/>
      <point x="45" y="425"/>
      <point x="45" y="257" type="curve" smooth="yes"/>
      <point x="45" y="90"/>
      <point x="134" y="-8"/>
      <point x="287" y="-8" type="curve" smooth="yes"/>
      <point x="440" y="-8"/>
      <point x="529" y="90"/>
      <point x="529" y="257" type="curve" smooth="yes"/>
      <point x="529" y="425"/>
      <point x="440" y="522"/>
      <point x="287" y="522" type="curve" smooth="yes"/>
    </contour>
    <contour>
      <point x="387" y="447"/>
      <point x="442" y="379"/>
      <point x="442" y="257" type="curve" smooth="yes"/>
      <point x="442" y="136"/>
      <point x="387" y="68"/>
      <point x="287" y="68" type="curve" smooth="yes"/>
      <point x="187" y="68"/>
      <point x="132" y="136"/>
      <point x="132" y="257" type="curve" smooth="yes"/>
      <point x="132" y="379"/>
      <point x="187" y="447"/>
      <point x="287" y="447" type="curve" smooth="yes"/>
    </contour>
  </outline>
</glyph>
<glyph name="odieresis" format="1">
  <advance width="574"/>
  <unicode hex="00F6"/>
  <outline>
    <contour>
      <point x="238" y="693" type="line"/>
      <point x="152" y="693" type="line"/>
      <point x="152" y="607" type="line"/>
      <point x="238" y="607" type="line"/>
    </contour>
    <contour>
      <point x="421" y="693" type="line"/>
      <point x="336" y="693" type="line"/>
      <point x="336" y="607" type="line"/>
      <point x="421" y="607" type="line"/>
    </contour>
    <contour>
      <point x="134" y="522"/>
      <point x="45" y="425"/>
      <point x="45" y="257" type="curve" smooth="yes"/>
      <point x="45" y="90"/>
      <point x="134" y="-8"/>
      <point x="287" y="-8" type="curve" smooth="yes"/>
      <point x="440" y="-8"/>
      <point x="529" y="90"/>
      <point x="529" y="257" type="curve" smooth="yes"/>
      <point x="529" y="425"/>
      <point x="440" y="522"/>
      <point x="287" y="522" type="curve" smooth="yes"/>
    </contour>
    <contour>
      <point x="387" y="447"/>
      <point x="442" y="379"/>
      <point x="442" y="257" type="curve" smooth="yes"/>
      <point x="442" y="136"/>
      <point x="387" y="68"/>
      <point x="287" y="68" type="curve" smooth="yes"/>
      <point x="187" y="68"/>
      <point x="132" y="136"/>
      <point x="132" y="257" type="curve" smooth="yes"/>
      <point x="132" y="379"/>
      <point x="187" y="447"/>
      <point x="287" y="447" type="curve" smooth="yes"/>
    </contour>
  </outline>
</glyph>
<glyph name="divide" format="1">
  <advance width="554"/>
  <unicode hex="00F7"/>
  <outline>
    <contour>
      <point x="316" y="529" type="line"/>
      <point x="236" y="529" type="line"/>
      <point x="236" y="451" type="line"/>
      <point x="316" y="451" type="line"/>
    </contour>
    <contour>
      <point x="509" y="340" type="line"/>
      <point x="45" y="340" type="line"/>
      <point x="45" y="275" type="line"/>
      <point x="509" y="275" type="line"/>
    </contour>
    <contour>
      <point x="316" y="167" type="line"/>
      <point x="236" y="167" type="line"/>
      <point x="236" y="89" type="line"/>
      <point x="316" y="89" type="line"/>
    </contour>
  </outline>
</glyph>
<glyph name="oslash" format="1">
  <advance width="575"/>
  <unicode hex="00F8"/>
  <outline>
    <contour>
      <point x="507" y="566" type="line"/>
      <point x="422" y="566" type="line"/>
      <point x="387" y="504" type="line"/>
      <point x="358" y="515"/>
      <point x="324" y="521"/>
      <point x="287" y="521" type="curve" smooth="yes"/>
      <point x="134" y="521"/>
      <point x="46" y="424"/>
      <point x="46" y="257" type="curve" smooth="yes"/>
      <point x="46" y="164"/>
      <point x="74" y="92"/>
      <point x="125" y="47" type="curve"/>
      <point x="68" y="-52" type="line"/>
      <point x="152" y="-52" type="line"/>
      <point x="187" y="9" type="line"/>
      <point x="216" y="-2"/>
      <point x="250" y="-8"/>
      <point x="287" y="-8" type="curve" smooth="yes"/>
      <point x="440" y="-8"/>
      <point x="529" y="90"/>
      <point x="529" y="257" type="curve" smooth="yes"/>
      <point x="529" y="351"/>
      <point x="501" y="422"/>
      <point x="450" y="467" type="curve"/>
    </contour>
    <contour>
      <point x="132" y="379"/>
      <point x="187" y="446"/>
      <point x="287" y="446" type="curve" smooth="yes"/>
      <point x="309" y="446"/>
      <point x="330" y="443"/>
      <point x="348" y="436" type="curve"/>
      <point x="168" y="122" type="line"/>
      <point x="144" y="154"/>
      <point x="132" y="200"/>
      <point x="132" y="257" type="curve" smooth="yes"/>
    </contour>
    <contour>
      <point x="265" y="68"/>
      <point x="245" y="71"/>
      <point x="227" y="78" type="curve"/>
      <point x="407" y="391" type="line"/>
      <point x="430" y="359"/>
      <point x="442" y="314"/>
      <point x="442" y="257" type="curve" smooth="yes"/>
      <point x="442" y="135"/>
      <point x="386" y="68"/>
      <point x="287" y="68" type="curve" smooth="yes"/>
    </contour>
  </outline>
</glyph>
<glyph name="uacute" format="1">
  <advance width="589"/>
  <unicode hex="00FA"/>
  <outline>
    <contour>
      <point x="378" y="760" type="line"/>
      <point x="245" y="600" type="line"/>
      <point x="279" y="569" type="line"/>
      <point x="432" y="704" type="line"/>
    </contour>
    <contour>
      <point x="73" y="174" type="line" smooth="yes"/>
      <point x="73" y="55"/>
      <point x="132" y="-8"/>
      <point x="245" y="-8" type="curve" smooth="yes"/>
      <point x="320" y="-8"/>
      <point x="384" y="28"/>
      <point x="425" y="76" type="curve"/>
      <point x="436" y="0" type="line"/>
      <point x="505" y="0" type="line"/>
      <point x="505" y="513" type="line"/>
      <point x="420" y="513" type="line"/>
      <point x="420" y="148" type="line"/>
      <point x="383" y="99"/>
      <point x="321" y="67"/>
      <point x="261" y="67" type="curve" smooth="yes"/>
      <point x="190" y="67"/>
      <point x="158" y="102"/>
      <point x="158" y="180" type="curve" smooth="yes"/>
      <point x="158" y="512" type="line"/>
      <point x="73" y="512" type="line"/>
    </contour>
  </outline>
</glyph>
<glyph name="ucircumflex" format="1">
  <advance width="589"/>
  <unicode hex="00FB"/>
  <outline>
    <contour>
      <point x="441" y="600" type="line"/>
      <point x="308" y="734" type="line"/>
      <point x="274" y="734" type="line"/>
      <point x="141" y="600" type="line"/>
      <point x="175" y="569" type="line"/>
      <point x="290" y="661" type="line"/>
      <point x="407" y="569" type="line"/>
    </contour>
    <contour>
      <point x="73" y="174" type="line" smooth="yes"/>
      <point x="73" y="55"/>
      <point x="132" y="-8"/>
      <point x="245" y="-8" type="curve" smooth="yes"/>
      <point x="320" y="-8"/>
      <point x="384" y="28"/>
      <point x="425" y="76" type="curve"/>
      <point x="436" y="0" type="line"/>
      <point x="505" y="0" type="line"/>
      <point x="505" y="513" type="line"/>
      <point x="420" y="513" type="line"/>
      <point x="420" y="148" type="line"/>
      <point x="383" y="99"/>
      <point x="321" y="67"/>
      <point x="261" y="67" type="curve" smooth="yes"/>
      <point x="190" y="67"/>
      <point x="158" y="102"/>
      <point x="158" y="180" type="curve" smooth="yes"/>
      <point x="158" y="512" type="line"/>
      <point x="73" y="512" type="line"/>
    </contour>
  </outline>
</glyph>
<glyph name="udieresis" format="1">
  <advance width="589"/>
  <unicode hex="00FC"/>
  <outline>
    <contour>
      <point x="242" y="693" type="line"/>
      <point x="156" y="693" type="line"/>
      <point x="156" y="607" type="line"/>
      <point x="242" y="607" type="line"/>
    </contour>
    <contour>
      <point x="425" y="693" type="line"/>
      <point x="340" y="693" type="line"/>
      <point x="340" y="607" type="line"/>
      <point x="425" y="607" type="line"/>
    </contour>
    <contour>
      <point x="73" y="174" type="line" smooth="yes"/>
      <point x="73" y="55"/>
      <point x="132" y="-8"/>
      <point x="245" y="-8" type="curve" smooth="yes"/>
      <point x="320" y="-8"/>
      <point x="384" y="28"/>
      <point x="425" y="76" type="curve"/>
      <point x="436" y="0" type="line"/>
      <point x="505" y="0" type="line"/>
      <point x="505" y="513" type="line"/>
      <point x="420" y="513" type="line"/>
      <point x="420" y="148" type="line"/>
      <point x="383" y="99"/>
      <point x="321" y="67"/>
      <point x="261" y="67" type="curve" smooth="yes"/>
      <point x="190" y="67"/>
      <point x="158" y="102"/>
      <point x="158" y="180" type="curve" smooth="yes"/>
      <point x="158" y="512" type="line"/>
      <point x="73" y="512" type="line"/>
    </contour>
  </outline>
</glyph>
<glyph name="yacute" format="1">
  <advance width="498"/>
  <unicode hex="00FD"/>
  <outline>
    <contour>
      <point x="251" y="569" type="line"/>
      <point x="404" y="704" type="line"/>
      <point x="350" y="760" type="line"/>
      <point x="217" y="600" type="line"/>
    </contour>
    <contour>
      <point x="486" y="513" type="line"/>
      <point x="401" y="513" type="line"/>
      <point x="326" y="316" type="line" smooth="yes"/>
      <point x="295" y="235"/>
      <point x="275" y="171"/>
      <point x="251" y="100" type="curve"/>
      <point x="226" y="171"/>
      <point x="201" y="240"/>
      <point x="172" y="316" type="curve" smooth="yes"/>
      <point x="96" y="513" type="line"/>
      <point x="12" y="513" type="line"/>
      <point x="210" y="1" type="line"/>
      <point x="120" y="-237" type="line"/>
      <point x="198" y="-237" type="line"/>
    </contour>
  </outline>
</glyph>
<glyph name="thorn" format="1">
  <advance width="592"/>
  <unicode hex="00FE"/>
  <outline>
    <contour>
      <point x="261" y="520"/>
      <point x="213" y="498"/>
      <point x="170" y="450" type="curve"/>
      <point x="170" y="749" type="line"/>
      <point x="85" y="749" type="line"/>
      <point x="85" y="-235" type="line"/>
      <point x="170" y="-235" type="line"/>
      <point x="170" y="6" type="line"/>
      <point x="220" y="-5"/>
      <point x="249" y="-9"/>
      <point x="284" y="-9" type="curve" smooth="yes"/>
      <point x="448" y="-9"/>
      <point x="547" y="94"/>
      <point x="547" y="264" type="curve" smooth="yes"/>
      <point x="547" y="427"/>
      <point x="465" y="520"/>
      <point x="322" y="520" type="curve" smooth="yes"/>
    </contour>
    <contour>
      <point x="245" y="67"/>
      <point x="227" y="68"/>
      <point x="170" y="82" type="curve"/>
      <point x="170" y="340" type="line"/>
      <point x="194" y="408"/>
      <point x="245" y="445"/>
      <point x="316" y="445" type="curve" smooth="yes"/>
      <point x="408" y="445"/>
      <point x="460" y="379"/>
      <point x="460" y="264" type="curve" smooth="yes"/>
      <point x="460" y="140"/>
      <point x="394" y="67"/>
      <point x="283" y="67" type="curve" smooth="yes"/>
    </contour>
  </outline>
</glyph>
<glyph name="ydieresis" format="1">
  <advance width="498"/>
  <unicode hex="00FF"/>
  <outline>
    <contour>
      <point x="214" y="607" type="line"/>
      <point x="214" y="693" type="line"/>
      <point x="128" y="693" type="line"/>
      <point x="128" y="607" type="line"/>
    </contour>
    <contour>
      <point x="397" y="607" type="line"/>
      <point x="397" y="693" type="line"/>
      <point x="312" y="693" type="line"/>
      <point x="312" y="607" type="line"/>
    </contour>
    <contour>
      <point x="486" y="513" type="line"/>
      <point x="401" y="513" type="line"/>
      <point x="326" y="316" type="line" smooth="yes"/>
      <point x="295" y="235"/>
      <point x="275" y="171"/>
      <point x="251" y="100" type="curve"/>
      <point x="226" y="171"/>
      <point x="201" y="240"/>
      <point x="172" y="316" type="curve" smooth="yes"/>
      <point x="96" y="513" type="line"/>
      <point x="12" y="513" type="line"/>
      <point x="210" y="1" type="line"/>
      <point x="120" y="-237" type="line"/>
      <point x="198" y="-237" type="line"/>
    </contour>
  </outline>
</glyph>
<glyph name="abreve" format="1">
  <advance width="524"/>
  <unicode hex="0103"/>
  <outline>
    <contour>
      <point x="341" y="707" type="line"/>
      <point x="341" y="667"/>
      <point x="308" y="638"/>
      <point x="261" y="638" type="curve" smooth="yes"/>
      <point x="213" y="638"/>
      <point x="182" y="665"/>
      <point x="182" y="707" type="curve"/>
      <point x="118" y="707" type="line"/>
      <point x="118" y="627"/>
      <point x="175" y="573"/>
      <point x="261" y="573" type="curve" smooth="yes"/>
      <point x="347" y="573"/>
      <point x="405" y="627"/>
      <point x="405" y="707" type="curve"/>
    </contour>
    <contour>
      <point x="194" y="522"/>
      <point x="124" y="506"/>
      <point x="64" y="478" type="curve"/>
      <point x="90" y="402" type="line"/>
      <point x="145" y="425"/>
      <point x="203" y="439"/>
      <point x="248" y="439" type="curve" smooth="yes"/>
      <point x="320" y="439"/>
      <point x="358" y="403"/>
      <point x="361" y="329" type="curve"/>
      <point x="361" y="315" type="line"/>
      <point x="285" y="315" type="line" smooth="yes"/>
      <point x="125" y="315"/>
      <point x="32" y="251"/>
      <point x="32" y="143" type="curve" smooth="yes"/>
      <point x="32" y="50"/>
      <point x="98" y="-10"/>
      <point x="200" y="-10" type="curve" smooth="yes"/>
      <point x="264" y="-10"/>
      <point x="320" y="14"/>
      <point x="369" y="60" type="curve"/>
      <point x="383" y="0" type="line"/>
      <point x="455" y="0" type="line"/>
      <point x="455" y="327" type="line" smooth="yes"/>
      <point x="455" y="452"/>
      <point x="383" y="522"/>
      <point x="255" y="522" type="curve" smooth="yes"/>
    </contour>
    <contour>
      <point x="361" y="243" type="line"/>
      <point x="361" y="137" type="line"/>
      <point x="328" y="99"/>
      <point x="273" y="73"/>
      <point x="217" y="73" type="curve" smooth="yes"/>
      <point x="160" y="73"/>
      <point x="126" y="99"/>
      <point x="126" y="146" type="curve" smooth="yes"/>
      <point x="126" y="207"/>
      <point x="187" y="243"/>
      <point x="291" y="243" type="curve" smooth="yes"/>
    </contour>
  </outline>
</glyph>
<glyph name="dcroat" format="1">
  <advance width="592"/>
  <unicode hex="0111"/>
  <outline>
    <contour>
      <point x="509" y="672" type="line"/>
      <point x="509" y="750" type="line"/>
      <point x="415" y="750" type="line"/>
      <point x="415" y="672" type="line"/>
      <point x="271" y="672" type="line"/>
      <point x="271" y="592" type="line"/>
      <point x="415" y="592" type="line"/>
      <point x="415" y="509" type="line"/>
      <point x="365" y="520"/>
      <point x="338" y="523"/>
      <point x="306" y="523" type="curve" smooth="yes"/>
      <point x="141" y="523"/>
      <point x="42" y="420"/>
      <point x="42" y="249" type="curve" smooth="yes"/>
      <point x="42" y="85"/>
      <point x="124" y="-8"/>
      <point x="268" y="-8" type="curve" smooth="yes"/>
      <point x="328" y="-8"/>
      <point x="376" y="14"/>
      <point x="420" y="64" type="curve"/>
      <point x="434" y="1" type="line"/>
      <point x="509" y="1" type="line"/>
      <point x="509" y="592" type="line"/>
      <point x="575" y="592" type="line"/>
      <point x="575" y="672" type="line"/>
    </contour>
    <contour>
      <point x="343" y="440"/>
      <point x="360" y="438"/>
      <point x="415" y="425" type="curve"/>
      <point x="415" y="176" type="line"/>
      <point x="391" y="112"/>
      <point x="339" y="75"/>
      <point x="274" y="75" type="curve" smooth="yes"/>
      <point x="187" y="75"/>
      <point x="138" y="138"/>
      <point x="138" y="249" type="curve" smooth="yes"/>
      <point x="138" y="369"/>
      <point x="201" y="440"/>
      <point x="307" y="440" type="curve" smooth="yes"/>
    </contour>
  </outline>
</glyph>
<glyph name="Ebreve" format="1">
  <advance width="558"/>
  <unicode hex="0114"/>
  <outline>
    <contour>
      <point x="396" y="901" type="line"/>
      <point x="396" y="859"/>
      <point x="362" y="828"/>
      <point x="312" y="828" type="curve" smooth="yes"/>
      <point x="261" y="828"/>
      <point x="228" y="857"/>
      <point x="228" y="901" type="curve"/>
      <point x="170" y="901" type="line"/>
      <point x="170" y="823"/>
      <point x="226" y="769"/>
      <point x="312" y="769" type="curve" smooth="yes"/>
      <point x="397" y="769"/>
      <point x="455" y="823"/>
      <point x="455" y="901" type="curve"/>
    </contour>
    <contour>
      <point x="512" y="707" type="line"/>
      <point x="95" y="707" type="line"/>
      <point x="95" y="0" type="line"/>
      <point x="523" y="0" type="line"/>
      <point x="523" y="77" type="line"/>
      <point x="182" y="77" type="line"/>
      <point x="182" y="332" type="line"/>
      <point x="480" y="332" type="line"/>
      <point x="480" y="409" type="line"/>
      <point x="182" y="409" type="line"/>
      <point x="182" y="630" type="line"/>
      <point x="512" y="630" type="line"/>
    </contour>
  </outline>
</glyph>
<glyph name="ebreve" format="1">
  <advance width="534"/>
  <unicode hex="0115"/>
  <outline>
    <contour>
      <point x="368" y="574"/>
      <point x="426" y="628"/>
      <point x="426" y="706" type="curve"/>
      <point x="367" y="706" type="line"/>
      <point x="367" y="664"/>
      <point x="333" y="633"/>
      <point x="283" y="633" type="curve" smooth="yes"/>
      <point x="232" y="633"/>
      <point x="199" y="662"/>
      <point x="199" y="706" type="curve"/>
      <point x="141" y="706" type="line"/>
      <point x="141" y="628"/>
      <point x="197" y="574"/>
      <point x="283" y="574" type="curve" smooth="yes"/>
    </contour>
    <contour>
      <point x="495" y="244" type="line"/>
      <point x="495" y="264" type="line" smooth="yes"/>
      <point x="495" y="436"/>
      <point x="425" y="521"/>
      <point x="283" y="521" type="curve" smooth="yes"/>
      <point x="132" y="521"/>
      <point x="45" y="424"/>
      <point x="45" y="257" type="curve" smooth="yes"/>
      <point x="45" y="90"/>
      <point x="134" y="-7"/>
      <point x="286" y="-7" type="curve" smooth="yes"/>
      <point x="349" y="-7"/>
      <point x="410" y="9"/>
      <point x="477" y="42" type="curve"/>
      <point x="449" y="106" type="line"/>
      <point x="391" y="80"/>
      <point x="343" y="68"/>
      <point x="290" y="68" type="curve" smooth="yes"/>
      <point x="192" y="68"/>
      <point x="136" y="131"/>
      <point x="132" y="244" type="curve"/>
    </contour>
    <contour>
      <point x="137" y="316" type="line"/>
      <point x="152" y="401"/>
      <point x="202" y="446"/>
      <point x="283" y="446" type="curve" smooth="yes"/>
      <point x="359" y="446"/>
      <point x="402" y="401"/>
      <point x="407" y="316" type="curve"/>
    </contour>
  </outline>
</glyph>
<glyph name="Gbreve" format="1">
  <advance width="662"/>
  <unicode hex="011E"/>
  <outline>
    <contour>
      <point x="445" y="767"/>
      <point x="503" y="821"/>
      <point x="503" y="901" type="curve"/>
      <point x="439" y="901" type="line"/>
      <point x="439" y="861"/>
      <point x="406" y="832"/>
      <point x="359" y="832" type="curve" smooth="yes"/>
      <point x="311" y="832"/>
      <point x="280" y="859"/>
      <point x="280" y="901" type="curve"/>
      <point x="216" y="901" type="line"/>
      <point x="216" y="821"/>
      <point x="273" y="767"/>
      <point x="359" y="767" type="curve" smooth="yes"/>
    </contour>
    <contour>
      <point x="607" y="352" type="line"/>
      <point x="511" y="352" type="line"/>
      <point x="511" y="103" type="line"/>
      <point x="468" y="90"/>
      <point x="423" y="83"/>
      <point x="381" y="83" type="curve" smooth="yes"/>
      <point x="232" y="83"/>
      <point x="148" y="181"/>
      <point x="148" y="356" type="curve" smooth="yes"/>
      <point x="148" y="529"/>
      <point x="233" y="626"/>
      <point x="384" y="626" type="curve" smooth="yes"/>
      <point x="443" y="626"/>
      <point x="498" y="611"/>
      <point x="562" y="579" type="curve"/>
      <point x="602" y="657" type="line"/>
      <point x="535" y="695"/>
      <point x="458" y="716"/>
      <point x="384" y="716" type="curve" smooth="yes"/>
      <point x="173" y="716"/>
      <point x="48" y="582"/>
      <point x="48" y="356" type="curve" smooth="yes"/>
      <point x="48" y="121"/>
      <point x="164" y="-7"/>
      <point x="377" y="-7" type="curve" smooth="yes"/>
      <point x="453" y="-7"/>
      <point x="541" y="12"/>
      <point x="607" y="43" type="curve"/>
    </contour>
  </outline>
</glyph>
<glyph name="Hcircumflex" format="1">
  <advance width="739"/>
  <unicode hex="0124"/>
  <outline>
    <contour>
      <point x="518" y="795" type="line"/>
      <point x="385" y="929" type="line"/>
      <point x="351" y="929" type="line"/>
      <point x="218" y="795" type="line"/>
      <point x="252" y="764" type="line"/>
      <point x="367" y="856" type="line"/>
      <point x="484" y="764" type="line"/>
    </contour>
    <contour>
      <point x="182" y="707" type="line"/>
      <point x="95" y="707" type="line"/>
      <point x="95" y="0" type="line"/>
      <point x="182" y="0" type="line"/>
      <point x="182" y="329" type="line"/>
      <point x="557" y="329" type="line"/>
      <point x="557" y="0" type="line"/>
      <point x="644" y="0" type="line"/>
      <point x="644" y="707" type="line"/>
      <point x="557" y="707" type="line"/>
      <point x="557" y="406" type="line"/>
      <point x="182" y="406" type="line"/>
    </contour>
  </outline>
</glyph>
<glyph name="hcircumflex" format="1">
  <advance width="590"/>
  <unicode hex="0125"/>
  <outline>
    <contour>
      <point x="277" y="799" type="line"/>
      <point x="144" y="933" type="line"/>
      <point x="110" y="933" type="line"/>
      <point x="-23" y="799" type="line"/>
      <point x="11" y="768" type="line"/>
      <point x="126" y="860" type="line"/>
      <point x="243" y="768" type="line"/>
    </contour>
    <contour>
      <point x="170" y="753" type="line"/>
      <point x="85" y="753" type="line"/>
      <point x="85" y="0" type="line"/>
      <point x="170" y="0" type="line"/>
      <point x="170" y="364" type="line"/>
      <point x="211" y="417"/>
      <point x="267" y="446"/>
      <point x="329" y="446" type="curve" smooth="yes"/>
      <point x="400" y="446"/>
      <point x="431" y="411"/>
      <point x="431" y="332" type="curve" smooth="yes"/>
      <point x="431" y="0" type="line"/>
      <point x="516" y="0" type="line"/>
      <point x="516" y="338" type="line" smooth="yes"/>
      <point x="516" y="457"/>
      <point x="459" y="521"/>
      <point x="351" y="521" type="curve" smooth="yes"/>
      <point x="281" y="521"/>
      <point x="225" y="496"/>
      <point x="170" y="441" type="curve"/>
    </contour>
  </outline>
</glyph>
<glyph name="Itilde" format="1">
  <advance width="282"/>
  <unicode hex="0128"/>
  <outline>
    <contour>
      <point x="34" y="908"/>
      <point x="0" y="861"/>
      <point x="0" y="793" type="curve"/>
      <point x="63" y="793" type="line"/>
      <point x="63" y="826"/>
      <point x="78" y="843"/>
      <point x="97" y="843" type="curve" smooth="yes"/>
      <point x="131" y="843"/>
      <point x="147" y="787"/>
      <point x="202" y="787" type="curve" smooth="yes"/>
      <point x="254" y="787"/>
      <point x="288" y="834"/>
      <point x="288" y="902" type="curve"/>
      <point x="225" y="902" type="line"/>
      <point x="225" y="871"/>
      <point x="213" y="854"/>
      <point x="195" y="854" type="curve" smooth="yes"/>
      <point x="159" y="854"/>
      <point x="147" y="908"/>
      <point x="90" y="908" type="curve" smooth="yes"/>
    </contour>
    <contour>
      <point x="189" y="708" type="line"/>
      <point x="93" y="708" type="line"/>
      <point x="93" y="0" type="line"/>
      <point x="189" y="0" type="line"/>
    </contour>
  </outline>
</glyph>
<glyph name="Ibreve" format="1">
  <advance width="282"/>
  <unicode hex="012C"/>
  <outline>
    <contour>
      <point x="224" y="901" type="line"/>
      <point x="224" y="861"/>
      <point x="191" y="832"/>
      <point x="144" y="832" type="curve" smooth="yes"/>
      <point x="96" y="832"/>
      <point x="65" y="859"/>
      <point x="65" y="901" type="curve"/>
      <point x="1" y="901" type="line"/>
      <point x="1" y="821"/>
      <point x="58" y="767"/>
      <point x="144" y="767" type="curve" smooth="yes"/>
      <point x="230" y="767"/>
      <point x="288" y="821"/>
      <point x="288" y="901" type="curve"/>
    </contour>
    <contour>
      <point x="189" y="708" type="line"/>
      <point x="93" y="708" type="line"/>
      <point x="93" y="0" type="line"/>
      <point x="189" y="0" type="line"/>
    </contour>
  </outline>
</glyph>
<glyph name="ibreve" format="1">
  <advance width="254"/>
  <unicode hex="012D"/>
  <outline>
    <contour>
      <point x="214" y="706" type="line"/>
      <point x="214" y="664"/>
      <point x="180" y="633"/>
      <point x="130" y="633" type="curve" smooth="yes"/>
      <point x="79" y="633"/>
      <point x="46" y="662"/>
      <point x="46" y="706" type="curve"/>
      <point x="-12" y="706" type="line"/>
      <point x="-12" y="628"/>
      <point x="44" y="574"/>
      <point x="130" y="574" type="curve" smooth="yes"/>
      <point x="215" y="574"/>
      <point x="273" y="628"/>
      <point x="273" y="706" type="curve"/>
    </contour>
    <contour>
      <point x="170" y="513" type="line"/>
      <point x="85" y="513" type="line"/>
      <point x="85" y="0" type="line"/>
      <point x="170" y="0" type="line"/>
    </contour>
  </outline>
</glyph>
<glyph name="IJ" format="1">
  <advance width="614"/>
  <unicode hex="0132"/>
  <outline>
    <contour>
      <point x="534" y="707" type="line"/>
      <point x="307" y="707" type="line"/>
      <point x="307" y="630" type="line"/>
      <point x="447" y="630" type="line"/>
      <point x="447" y="211" type="line" smooth="yes"/>
      <point x="447" y="117"/>
      <point x="405" y="72"/>
      <point x="307" y="72" type="curve" smooth="yes"/>
      <point x="209" y="72"/>
      <point x="167" y="117"/>
      <point x="167" y="211" type="curve" smooth="yes"/>
      <point x="167" y="526" type="line"/>
      <point x="80" y="526" type="line"/>
      <point x="80" y="211" type="line" smooth="yes"/>
      <point x="80" y="72"/>
      <point x="158" y="-9"/>
      <point x="307" y="-9" type="curve" smooth="yes"/>
      <point x="455" y="-9"/>
      <point x="534" y="73"/>
      <point x="534" y="211" type="curve" smooth="yes"/>
    </contour>
    <contour>
      <point x="167" y="620" type="line"/>
      <point x="167" y="707" type="line"/>
      <point x="80" y="707" type="line"/>
      <point x="80" y="620" type="line"/>
    </contour>
  </outline>
</glyph>
<glyph name="ij" format="1">
  <advance width="578"/>
  <unicode hex="0133"/>
  <outline>
    <contour>
      <point x="494" y="691" type="line"/>
      <point x="81" y="691" type="line"/>
      <point x="81" y="618" type="line"/>
      <point x="494" y="618" type="line"/>
    </contour>
    <contour>
      <point x="409" y="513" type="line"/>
      <point x="409" y="118" type="line"/>
      <point x="373" y="85"/>
      <point x="331" y="64"/>
      <point x="286" y="64" type="curve" smooth="yes"/>
      <point x="219" y="64"/>
      <point x="166" y="99"/>
      <point x="166" y="165" type="curve" smooth="yes"/>
      <point x="166" y="512" type="line"/>
      <point x="81" y="512" type="line"/>
      <point x="81" y="165" type="line" smooth="yes"/>
      <point x="81" y="44"/>
      <point x="151" y="-5"/>
      <point x="261" y="-5" type="curve" smooth="yes"/>
      <point x="312" y="-5"/>
      <point x="363" y="11"/>
      <point x="404" y="39" type="curve"/>
      <point x="392" y="-13"/>
      <point x="360" y="-69"/>
      <point x="303" y="-138" type="curve"/>
      <point x="352" y="-178" type="line"/>
      <point x="450" y="-89"/>
      <point x="494" y="-7"/>
      <point x="494" y="87" type="curve" smooth="yes"/>
      <point x="494" y="513" type="line"/>
    </contour>
  </outline>
</glyph>
<glyph name="Jcircumflex" format="1">
  <advance width="331"/>
  <unicode hex="0134"/>
  <outline>
    <contour>
      <point x="292" y="795" type="line"/>
      <point x="159" y="929" type="line"/>
      <point x="125" y="929" type="line"/>
      <point x="-8" y="795" type="line"/>
      <point x="26" y="764" type="line"/>
      <point x="141" y="856" type="line"/>
      <point x="258" y="764" type="line"/>
    </contour>
    <contour>
      <point x="34" y="-137" type="line"/>
      <point x="150" y="-94"/>
      <point x="239" y="17"/>
      <point x="239" y="121" type="curve" smooth="yes"/>
      <point x="239" y="707" type="line"/>
      <point x="12" y="707" type="line"/>
      <point x="12" y="630" type="line"/>
      <point x="154" y="630" type="line"/>
      <point x="154" y="121" type="line" smooth="yes"/>
      <point x="154" y="46"/>
      <point x="88" y="-40"/>
      <point x="2" y="-79" type="curve"/>
    </contour>
  </outline>
</glyph>
<glyph name="jcircumflex" format="1">
  <advance width="255"/>
  <unicode hex="0135"/>
  <outline>
    <contour>
      <point x="279" y="600" type="line"/>
      <point x="146" y="734" type="line"/>
      <point x="112" y="734" type="line"/>
      <point x="-21" y="600" type="line"/>
      <point x="13" y="569" type="line"/>
      <point x="128" y="661" type="line"/>
      <point x="245" y="569" type="line"/>
    </contour>
    <contour>
      <point x="30" y="-178" type="line"/>
      <point x="129" y="-88"/>
      <point x="172" y="-6"/>
      <point x="172" y="87" type="curve" smooth="yes"/>
      <point x="172" y="513" type="line"/>
      <point x="87" y="513" type="line"/>
      <point x="87" y="87" type="line" smooth="yes"/>
      <point x="87" y="20"/>
      <point x="55" y="-48"/>
      <point x="-19" y="-138" type="curve"/>
    </contour>
  </outline>
</glyph>
<glyph name="kgreenlandic" format="1">
  <advance width="531"/>
  <unicode hex="0138"/>
  <outline>
    <contour>
      <point x="176" y="514" type="line"/>
      <point x="82" y="514" type="line"/>
      <point x="82" y="0" type="line"/>
      <point x="176" y="0" type="line"/>
    </contour>
    <contour>
      <point x="399" y="514" type="line"/>
      <point x="189" y="291" type="line"/>
      <point x="411" y="0" type="line"/>
      <point x="526" y="0" type="line"/>
      <point x="303" y="296" type="line"/>
      <point x="510" y="514" type="line"/>
    </contour>
  </outline>
</glyph>
<glyph name="lacute" format="1">
  <advance width="260"/>
  <unicode hex="013A"/>
  <outline>
    <contour>
      <point x="217" y="965" type="line"/>
      <point x="84" y="801" type="line"/>
      <point x="121" y="767" type="line"/>
      <point x="277" y="903" type="line"/>
    </contour>
    <contour>
      <point x="177" y="750" type="line"/>
      <point x="83" y="750" type="line"/>
      <point x="83" y="0" type="line"/>
      <point x="177" y="0" type="line"/>
    </contour>
  </outline>
</glyph>
<glyph name="uni013B" format="1">
  <advance width="523"/>
  <unicode hex="013B"/>
  <outline>
    <contour>
      <point x="189" y="708" type="line"/>
      <point x="93" y="708" type="line"/>
      <point x="93" y="0" type="line"/>
      <point x="512" y="0" type="line"/>
      <point x="512" y="85" type="line"/>
      <point x="189" y="85" type="line"/>
    </contour>
    <contour>
      <point x="286" y="-47" type="line"/>
      <point x="282" y="-107"/>
      <point x="274" y="-152"/>
      <point x="256" y="-215" type="curve"/>
      <point x="316" y="-215" type="line"/>
      <point x="358" y="-139"/>
      <point x="370" y="-105"/>
      <point x="380" y="-47" type="curve"/>
    </contour>
  </outline>
</glyph>
<glyph name="Lcaron" format="1">
  <advance width="523"/>
  <unicode hex="013D"/>
  <outline>
    <contour>
      <point x="520" y="1459" type="line"/>
      <point x="435" y="1471" type="line"/>
      <point x="435" y="1279" type="line"/>
      <point x="484" y="1275" type="line"/>
    </contour>
    <contour>
      <point x="189" y="708" type="line"/>
      <point x="93" y="708" type="line"/>
      <point x="93" y="0" type="line"/>
      <point x="512" y="0" type="line"/>
      <point x="512" y="85" type="line"/>
      <point x="189" y="85" type="line"/>
    </contour>
  </outline>
</glyph>
<glyph name="Ldot" format="1">
  <advance width="527"/>
  <unicode hex="013F"/>
  <outline>
    <contour>
      <point x="182" y="707" type="line"/>
      <point x="95" y="707" type="line"/>
      <point x="95" y="0" type="line"/>
      <point x="509" y="0" type="line"/>
      <point x="509" y="77" type="line"/>
      <point x="182" y="77" type="line"/>
    </contour>
    <contour>
      <point x="481" y="433" type="line"/>
      <point x="395" y="433" type="line"/>
      <point x="395" y="347" type="line"/>
      <point x="481" y="347" type="line"/>
    </contour>
  </outline>
</glyph>
<glyph name="ldot" format="1">
  <advance width="328"/>
  <unicode hex="0140"/>
  <outline>
    <contour>
      <point x="177" y="750" type="line"/>
      <point x="83" y="750" type="line"/>
      <point x="83" y="0" type="line"/>
      <point x="177" y="0" type="line"/>
    </contour>
    <contour>
      <point x="358" y="443" type="line"/>
      <point x="265" y="443" type="line"/>
      <point x="265" y="350" type="line"/>
      <point x="358" y="350" type="line"/>
    </contour>
  </outline>
</glyph>
<glyph name="lslash" format="1">
  <advance width="288"/>
  <unicode hex="0142"/>
  <outline>
    <contour>
      <point x="265" y="431" type="line"/>
      <point x="265" y="524" type="line"/>
      <point x="191" y="481" type="line"/>
      <point x="191" y="754" type="line"/>
      <point x="97" y="754" type="line"/>
      <point x="97" y="427" type="line"/>
      <point x="23" y="384" type="line"/>
      <point x="23" y="291" type="line"/>
      <point x="97" y="334" type="line"/>
      <point x="97" y="0" type="line"/>
      <point x="191" y="0" type="line"/>
      <point x="191" y="388" type="line"/>
    </contour>
  </outline>
</glyph>
<glyph name="Obreve" format="1">
  <advance width="742"/>
  <unicode hex="014E"/>
  <outline>
    <contour>
      <point x="455" y="901" type="line"/>
      <point x="455" y="859"/>
      <point x="421" y="828"/>
      <point x="371" y="828" type="curve" smooth="yes"/>
      <point x="320" y="828"/>
      <point x="287" y="857"/>
      <point x="287" y="901" type="curve"/>
      <point x="229" y="901" type="line"/>
      <point x="229" y="823"/>
      <point x="285" y="769"/>
      <point x="371" y="769" type="curve" smooth="yes"/>
      <point x="456" y="769"/>
      <point x="514" y="823"/>
      <point x="514" y="901" type="curve"/>
    </contour>
    <contour>
      <point x="167" y="715"/>
      <point x="50" y="585"/>
      <point x="50" y="356" type="curve" smooth="yes"/>
      <point x="50" y="121"/>
      <point x="165" y="-9"/>
      <point x="371" y="-9" type="curve" smooth="yes"/>
      <point x="577" y="-9"/>
      <point x="692" y="122"/>
      <point x="692" y="356" type="curve" smooth="yes"/>
      <point x="692" y="584"/>
      <point x="575" y="715"/>
      <point x="371" y="715" type="curve" smooth="yes"/>
    </contour>
    <contour>
      <point x="518" y="633"/>
      <point x="601" y="534"/>
      <point x="601" y="356" type="curve" smooth="yes"/>
      <point x="601" y="174"/>
      <point x="518" y="72"/>
      <point x="371" y="72" type="curve" smooth="yes"/>
      <point x="223" y="72"/>
      <point x="141" y="173"/>
      <point x="141" y="356" type="curve" smooth="yes"/>
      <point x="141" y="535"/>
      <point x="222" y="633"/>
      <point x="371" y="633" type="curve" smooth="yes"/>
    </contour>
  </outline>
</glyph>
<glyph name="obreve" format="1">
  <advance width="574"/>
  <unicode hex="014F"/>
  <outline>
    <contour>
      <point x="372" y="706" type="line"/>
      <point x="372" y="664"/>
      <point x="338" y="633"/>
      <point x="288" y="633" type="curve" smooth="yes"/>
      <point x="237" y="633"/>
      <point x="204" y="662"/>
      <point x="204" y="706" type="curve"/>
      <point x="146" y="706" type="line"/>
      <point x="146" y="628"/>
      <point x="202" y="574"/>
      <point x="288" y="574" type="curve" smooth="yes"/>
      <point x="373" y="574"/>
      <point x="431" y="628"/>
      <point x="431" y="706" type="curve"/>
    </contour>
    <contour>
      <point x="134" y="522"/>
      <point x="45" y="425"/>
      <point x="45" y="257" type="curve" smooth="yes"/>
      <point x="45" y="90"/>
      <point x="134" y="-8"/>
      <point x="287" y="-8" type="curve" smooth="yes"/>
      <point x="440" y="-8"/>
      <point x="529" y="90"/>
      <point x="529" y="257" type="curve" smooth="yes"/>
      <point x="529" y="425"/>
      <point x="440" y="522"/>
      <point x="287" y="522" type="curve" smooth="yes"/>
    </contour>
    <contour>
      <point x="387" y="447"/>
      <point x="442" y="379"/>
      <point x="442" y="257" type="curve" smooth="yes"/>
      <point x="442" y="136"/>
      <point x="387" y="68"/>
      <point x="287" y="68" type="curve" smooth="yes"/>
      <point x="187" y="68"/>
      <point x="132" y="136"/>
      <point x="132" y="257" type="curve" smooth="yes"/>
      <point x="132" y="379"/>
      <point x="187" y="447"/>
      <point x="287" y="447" type="curve" smooth="yes"/>
    </contour>
  </outline>
</glyph>
<glyph name="Ohungarumlaut" format="1">
  <advance width="739"/>
  <unicode hex="0150"/>
  <outline>
    <contour>
      <point x="374" y="959" type="line"/>
      <point x="240" y="795" type="line"/>
      <point x="277" y="761" type="line"/>
      <point x="434" y="897" type="line"/>
    </contour>
    <contour>
      <point x="544" y="959" type="line"/>
      <point x="410" y="795" type="line"/>
      <point x="447" y="761" type="line"/>
      <point x="604" y="897" type="line"/>
    </contour>
    <contour>
      <point x="165" y="716"/>
      <point x="48" y="586"/>
      <point x="48" y="357" type="curve" smooth="yes"/>
      <point x="48" y="120"/>
      <point x="162" y="-10"/>
      <point x="370" y="-10" type="curve" smooth="yes"/>
      <point x="577" y="-10"/>
      <point x="691" y="121"/>
      <point x="691" y="357" type="curve" smooth="yes"/>
      <point x="691" y="585"/>
      <point x="574" y="716"/>
      <point x="370" y="716" type="curve" smooth="yes"/>
    </contour>
    <contour>
      <point x="512" y="626"/>
      <point x="591" y="530"/>
      <point x="591" y="357" type="curve" smooth="yes"/>
      <point x="591" y="179"/>
      <point x="512" y="80"/>
      <point x="370" y="80" type="curve" smooth="yes"/>
      <point x="227" y="80"/>
      <point x="148" y="178"/>
      <point x="148" y="357" type="curve" smooth="yes"/>
      <point x="148" y="531"/>
      <point x="226" y="626"/>
      <point x="370" y="626" type="curve" smooth="yes"/>
    </contour>
  </outline>
</glyph>
<glyph name="OE" format="1">
  <advance width="975"/>
  <unicode hex="0152"/>
  <outline>
    <contour>
      <point x="48" y="120"/>
      <point x="162" y="-10"/>
      <point x="370" y="-10" type="curve" smooth="yes"/>
      <point x="419" y="-10"/>
      <point x="467" y="-6"/>
      <point x="508" y="0" type="curve"/>
      <point x="940" y="0" type="line"/>
      <point x="940" y="85" type="line"/>
      <point x="604" y="85" type="line"/>
      <point x="604" y="328" type="line"/>
      <point x="896" y="328" type="line"/>
      <point x="896" y="413" type="line"/>
      <point x="604" y="413" type="line"/>
      <point x="604" y="623" type="line"/>
      <point x="929" y="623" type="line"/>
      <point x="929" y="708" type="line"/>
      <point x="518" y="708" type="line" smooth="yes"/>
      <point x="475" y="708"/>
      <point x="424" y="716"/>
      <point x="370" y="716" type="curve" smooth="yes"/>
      <point x="165" y="716"/>
      <point x="48" y="586"/>
      <point x="48" y="357" type="curve" smooth="yes"/>
    </contour>
    <contour>
      <point x="508" y="87" type="line"/>
      <point x="470" y="83"/>
      <point x="422" y="80"/>
      <point x="370" y="80" type="curve" smooth="yes"/>
      <point x="227" y="80"/>
      <point x="148" y="178"/>
      <point x="148" y="357" type="curve" smooth="yes"/>
      <point x="148" y="531"/>
      <point x="226" y="626"/>
      <point x="370" y="626" type="curve" smooth="yes"/>
      <point x="422" y="626"/>
      <point x="470" y="623"/>
      <point x="508" y="623" type="curve"/>
    </contour>
  </outline>
</glyph>
<glyph name="oe" format="1">
  <advance width="930"/>
  <unicode hex="0153"/>
  <outline>
    <contour>
      <point x="892" y="244" type="line"/>
      <point x="892" y="264" type="line" smooth="yes"/>
      <point x="892" y="436"/>
      <point x="821" y="521"/>
      <point x="680" y="521" type="curve" smooth="yes"/>
      <point x="589" y="521"/>
      <point x="522" y="483"/>
      <point x="485" y="414" type="curve"/>
      <point x="447" y="483"/>
      <point x="379" y="521"/>
      <point x="287" y="521" type="curve" smooth="yes"/>
      <point x="134" y="521"/>
      <point x="45" y="424"/>
      <point x="45" y="257" type="curve" smooth="yes"/>
      <point x="45" y="90"/>
      <point x="134" y="-8"/>
      <point x="287" y="-8" type="curve" smooth="yes"/>
      <point x="379" y="-8"/>
      <point x="447" y="31"/>
      <point x="485" y="100" type="curve"/>
      <point x="523" y="31"/>
      <point x="591" y="-7"/>
      <point x="683" y="-7" type="curve" smooth="yes"/>
      <point x="746" y="-7"/>
      <point x="808" y="9"/>
      <point x="873" y="42" type="curve"/>
      <point x="846" y="106" type="line"/>
      <point x="786" y="79"/>
      <point x="738" y="68"/>
      <point x="687" y="68" type="curve" smooth="yes"/>
      <point x="588" y="68"/>
      <point x="533" y="131"/>
      <point x="529" y="244" type="curve"/>
    </contour>
    <contour>
      <point x="188" y="68"/>
      <point x="132" y="135"/>
      <point x="132" y="257" type="curve" smooth="yes"/>
      <point x="132" y="379"/>
      <point x="187" y="446"/>
      <point x="287" y="446" type="curve" smooth="yes"/>
      <point x="387" y="446"/>
      <point x="442" y="379"/>
      <point x="442" y="257" type="curve" smooth="yes"/>
      <point x="442" y="135"/>
      <point x="386" y="68"/>
      <point x="287" y="68" type="curve" smooth="yes"/>
    </contour>
    <contour>
      <point x="534" y="316" type="line"/>
      <point x="549" y="401"/>
      <point x="598" y="446"/>
      <point x="680" y="446" type="curve" smooth="yes"/>
      <point x="753" y="446"/>
      <point x="792" y="405"/>
      <point x="801" y="316" type="curve"/>
    </contour>
  </outline>
</glyph>
